<svg xmlns="http://www.w3.org/2000/svg">
<defs>
<font id="PTSans-Bold" horiz-adv-x="567" >
  <font-face 
    font-family="PT Sans"
    font-weight="700"
    font-stretch="normal"
    units-per-em="1000"
    panose-1="2 11 7 3 2 2 3 2 2 4"
    ascent="770"
    descent="-230"
    x-height="500"
    cap-height="700"
    bbox="-387 -273.001 1191 1010"
    underline-thickness="50"
    underline-position="-50"
    unicode-range="U+000D-U+FEFF"
  />
<missing-glyph horiz-adv-x="750" 
d="M50 700h650v-700h-650v700zM570 620l-195 -217l-195 217l-50 -50l197 -220l-197 -220l50 -50l195 217l195 -217l50 50l-198 220l198 220zM129 27h8v12h4c4 0 7.66699 0.833008 11 2.5s5 4.83398 5 9.50098c0 5.33301 -1.83301 8.66602 -5.5 9.99902s-7.5 2 -11.5 2h-11
v-36zM141 57c5.33301 0 8.00098 -1.66797 8.00098 -5.00098s-0.833008 -5.16602 -2.5 -5.49902s-3.83398 -0.5 -6.50098 -0.5h-3v11h4zM189.001 62.999h-31v-6h12v-30h7v30h12v6zM222.001 36.999c0 -2.66699 -2.33301 -4.00098 -7 -4.00098s-7.66699 0.666992 -9 2l-3 -7
c1.33301 0 3 -0.333008 5 -1s4.66699 -1 8 -1c9.33301 0 14 4 14 12c0 6 -3 9.33301 -9 10s-9 2.66699 -9 6c0 2 2 3 6 3c3.33301 0 6.33301 -0.666992 9 -2l2 7c-4 1.33301 -7.66699 2 -11 2c-9.33301 0 -14 -3.66699 -14 -11c0 -3.33301 1 -5.66602 3 -6.99902
s4 -2.5 6 -3.5s4 -1.83301 6 -2.5s3 -1.66699 3 -3zM237.001 46.998c2.66699 1.33301 5.66699 2.00195 9 2.00195s5 -1.33301 5 -4v-2c-0.666992 0 -1.33398 0.166992 -2.00098 0.5s-1.66699 0.5 -3 0.5c-8 0 -12 -3.33301 -12 -10c0 -5.33301 2.66699 -8 8 -8
c4 0 7 1.66699 9 5l2 -4h6c-0.666992 1.33301 -1 3.66602 -1 6.99902v11c0 6.66699 -3.33301 10 -10 10c-2.66699 0 -5.16699 -0.333008 -7.5 -1s-4.16602 -1.33398 -5.49902 -2.00098zM245.001 32c-2.66699 0 -4.00098 1.33301 -4.00098 4s1.66699 4 5 4
c1.33301 0 2.33301 -0.166992 3 -0.5s1.33398 -0.5 2.00098 -0.5v-3c-1.33301 -2.66699 -3.33301 -4 -6 -4zM292 27v16c0 8 -3 12 -9 12c-4.66699 0 -8 -1.66699 -10 -5l-2 4h-5v-27h7v17c1.33301 2.66699 3.33301 4 6 4c3.33301 0 5 -2 5 -6v-15h8zM297 28

<glyph glyph-name="fi" unicode="fi" horiz-adv-x="553" 
d="M492 500v-500.001h-130v390h-151v-390h-130v390h-69v110h69v28c0 63.333 16.333 109.5 49 138.5s80 43.5 142 43.5c46 0 86.833 -3.5 122.5 -10.5s64.5 -16.833 86.5 -29.5l-34 -101c-17.333 9.33301 -38.333 16.833 -63 22.5s-52 8.5 -82 8.5
c-19.333 0 -35 -2.16699 -47 -6.5s-21.333 -10.666 -28 -18.999s-11 -18.833 -13 -31.5s-3 -27 -3 -43h281z" />
    <glyph glyph-name="fl" unicode="fl" horiz-adv-x="593" 
d="M360 596c-8.66699 2 -20.502 3.66602 -35.502 4.99902s-29.5 2 -43.5 2c-15.333 0 -27.666 -2.33301 -36.999 -7s-16.5 -11.334 -21.5 -20.001s-8.16699 -19.5 -9.5 -32.5s-2 -27.5 -2 -43.5h75v-110h-75v-390h-130v390h-69v110h69v28
c0 62.667 15.167 109.167 45.5 139.5s82.5 45.5 156.5 45.5c15.333 0 33 -0.666992 53 -2s39.833 -2.83301 59.5 -4.5s38 -3.5 55 -5.5s30.167 -4 39.5 -6v-527c0 -23.333 3 -40.333 9 -51s15.333 -16 28 -16c8 0 15.833 0.666992 23.5 2s17.167 4.33301 28.5 9l15 -102
c-10.667 -5.33301 -27.167 -10.666 -49.5 -15.999s-45.166 -8 -68.499 -8c-38 0 -66.833 8.83301 -86.5 26.5s-29.5 46.834 -29.5 87.501v496z" />
    <glyph glyph-name=".notdef" horiz-adv-x="750" 
d="M50 700h650v-700h-650v700zM570 620l-195 -217l-195 217l-50 -50l197 -220l-197 -220l50 -50l195 217l195 -217l50 50l-198 220l198 220zM129 27h8v12h4c4 0 7.66699 0.833008 11 2.5s5 4.83398 5 9.50098c0 5.33301 -1.83301 8.66602 -5.5 9.99902s-7.5 2 -11.5 2h-11
v-36zM141 57c5.33301 0 8.00098 -1.66797 8.00098 -5.00098s-0.833008 -5.16602 -2.5 -5.49902s-3.83398 -0.5 -6.50098 -0.5h-3v11h4zM189.001 62.999h-31v-6h12v-30h7v30h12v6zM222.001 36.999c0 -2.66699 -2.33301 -4.00098 -7 -4.00098s-7.66699 0.666992 -9 2l-3 -7
c1.33301 0 3 -0.333008 5 -1s4.66699 -1 8 -1c9.33301 0 14 4 14 12c0 6 -3 9.33301 -9 10s-9 2.66699 -9 6c0 2 2 3 6 3c3.33301 0 6.33301 -0.666992 9 -2l2 7c-4 1.33301 -7.66699 2 -11 2c-9.33301 0 -14 -3.66699 -14 -11c0 -3.33301 1 -5.66602 3 -6.99902
s4 -2.5 6 -3.5s4 -1.83301 6 -2.5s3 -1.66699 3 -3zM237.001 46.998c2.66699 1.33301 5.66699 2.00195 9 2.00195s5 -1.33301 5 -4v-2c-0.666992 0 -1.33398 0.166992 -2.00098 0.5s-1.66699 0.5 -3 0.5c-8 0 -12 -3.33301 -12 -10c0 -5.33301 2.66699 -8 8 -8
c4 0 7 1.66699 9 5l2 -4h6c-0.666992 1.33301 -1 3.66602 -1 6.99902v11c0 6.66699 -3.33301 10 -10 10c-2.66699 0 -5.16699 -0.333008 -7.5 -1s-4.16602 -1.33398 -5.49902 -2.00098zM245.001 32c-2.66699 0 -4.00098 1.33301 -4.00098 4s1.66699 4 5 4
c1.33301 0 2.33301 -0.166992 3 -0.5s1.33398 -0.5 2.00098 -0.5v-3c-1.33301 -2.66699 -3.33301 -4 -6 -4zM292 27v16c0 8 -3 12 -9 12c-4.66699 0 -8 -1.66699 -10 -5l-2 4h-5v-27h7v17c1.33301 2.66699 3.33301 4 6 4c3.33301 0 5 -2 5 -6v-15h8zM297 28
c2.66699 -1.33301 5.99902 -2 9.99902 -2c7.33301 0 11 3 11 9c0 3.33301 -0.833008 5.33301 -2.5 6s-3.5 1.66699 -5.5 3c-3.33301 1.33301 -5 2.33301 -5 3c0 1.33301 1 2 3 2c2.66699 0 5.33398 -0.666992 8.00098 -2l2 6c-2.66699 1.33301 -6 2 -10 2
c-6.66699 0 -10 -3 -10 -9c0 -3.33301 1 -5.5 3 -6.5l5 -2.5c3.33301 0 5 -1 5 -3c0 -1.33301 -1 -2 -3 -2c-3.33301 0 -6.33301 0.666992 -9 2zM337.999 42c0 -14 6.66699 -21 20 -21s20 7 20 21c0 13.333 -6.66699 20 -20 20c-5.33301 0 -10 -1.83301 -14 -5.5
s-6 -8.5 -6 -14.5zM343.999 42c0 10 4.66699 15 14 15s14 -5 14 -15s-4.66699 -15 -14 -15s-14 5 -14 15zM363.999 38c-1.33301 -0.666992 -2.66602 -1 -3.99902 -1c-2.66699 0 -4 1.66699 -4 5c0 2.66699 1.33301 4 4 4h3l2 4c-2.66699 1.33301 -5 2 -7 2
c-6 0 -9 -3.33301 -9 -10c0 -7.33301 3 -11 9 -11c3.33301 0 5.66602 0.666992 6.99902 2zM398.999 27h8v12h4c4 0 7.66699 0.833008 11 2.5s5 4.83398 5 9.50098c0 5.33301 -1.83301 8.66602 -5.5 9.99902s-7.5 2 -11.5 2h-11v-36zM410.999 57
c5.33301 0 8.00098 -1.66797 8.00098 -5.00098s-0.833008 -5.16602 -2.5 -5.49902s-3.83398 -0.5 -6.50098 -0.5h-3v11h4zM432 46.999c2.66699 1.33301 5.66699 2.00195 9 2.00195s5 -1.33301 5 -4v-2c-0.666992 0 -1.33398 0.166992 -2.00098 0.5s-1.66699 0.5 -3 0.5
c-8.66699 0 -13 -3.33301 -13 -10c0 -5.33301 3 -8 9 -8c4 0 7 1.66699 9 5l2 -4h6c-0.666992 1.33301 -1 3.66602 -1 6.99902v11c0 6.66699 -3.33301 10 -10 10c-2.66699 0 -5.16699 -0.333008 -7.5 -1s-4.16602 -1.33398 -5.49902 -2.00098zM440 32.001
c-2.66699 0 -4.00098 1.33301 -4.00098 4s1.66699 4 5 4c1.33301 0 2.33301 -0.166992 3 -0.5s1.33398 -0.5 2.00098 -0.5v-3c-1.33301 -2.66699 -3.33301 -4 -6 -4zM477.999 54.001c-0.666992 0.666992 -2 1 -4 1c-2.66699 0 -4.66699 -1.66699 -6 -5h-1l-1 4h-6v-27h8v17
c0 2.66699 2 4 6 4h1c0.666992 0 1 -0.166992 1 -0.5s0.333008 -0.5 1 -0.5zM482.999 47.001c4 1.33301 7.00098 2.00195 9.00098 2.00195c3.33301 0 5 -1.33301 5 -4v-2c-0.666992 0 -1.33398 0.166992 -2.00098 0.5s-1.66699 0.5 -3 0.5c-8.66699 0 -13 -3.33301 -13 -10
c0 -5.33301 3 -8 9 -8c4.66699 0 7.66699 1.66699 9 5h1l1 -4h6c-0.666992 1.33301 -1 3.66602 -1 6.99902v11c0 6.66699 -3.33301 10 -10 10c-2.66699 0 -5 -0.333008 -7 -1s-3.66699 -1.33398 -5 -2.00098zM491 32.0029c-2.66699 0 -4.00098 1.33301 -4.00098 4
s1.66699 4 5 4c1.33301 0 2.33301 -0.166992 3 -0.5s1.33398 -0.5 2.00098 -0.5v-3c-1.33301 -2.66699 -3.33301 -4 -6 -4zM532.999 63.0029h-31v-6h11v-30h8v30h12v6zM540.999 54.0029h-7.99805l12 -27c-0.666992 -3.33301 -2.33398 -5 -5.00098 -5l-1 1l-2 -6
c1.33301 -0.666992 3 -1 5 -1c3.33301 0 6.66602 4.33301 9.99902 13l10 25h-8l-5 -15v-5h-1l-1 5zM565.001 16.0029h7.99902v12c0.666992 -1.33301 2.33398 -2 5.00098 -2c9.33301 0 14 5 14 15c0 9.33301 -3.66699 14 -11 14c-3.33301 0 -6.33301 -1.33301 -9 -4h-1l-1 3
h-5v-38zM579 49.0029c3.33301 0 4.99902 -2.66699 4.99902 -8c0 -6 -2.33301 -9 -7 -9c-1.33301 0 -2.66602 0.666992 -3.99902 2v10c0 3.33301 2 5 6 5zM617.999 34.0029c-1.33301 -1.33301 -3.66699 -2.00098 -7 -2.00098c-4.66699 0 -7.33398 2 -8.00098 6h19v6
c0 4 -1.16699 6.83301 -3.5 8.5s-5.16602 2.5 -8.49902 2.5c-9.33301 0 -14 -5 -14 -15c0 -9.33301 4.66699 -14 14 -14c2 0 4 0.333008 6 1s3.66699 1.33398 5 2.00098zM609.998 49.002c4 0 5.66699 -2 5 -6h-11c0 4 2 6 6 6z" />
    <glyph glyph-name=".null" horiz-adv-x="0" 
 />
    <glyph glyph-name=".null" horiz-adv-x="0" 
 />
    <glyph glyph-name="uni000D" unicode="&#xd;" horiz-adv-x="253" 
 />
    <glyph glyph-name="space" unicode=" " horiz-adv-x="253" 
 />
    <glyph glyph-name="exclam" unicode="!" horiz-adv-x="294" 
d="M100 700h134v-329l-26 -163h-82l-26 163v329zM86 66c0 23.333 7.33301 41.833 22 55.5s34 20.5 58 20.5c25.333 0 45.333 -6.83301 60 -20.5s22 -32.167 22 -55.5s-7.33301 -42 -22 -56s-34.667 -21 -60 -21c-24 0 -43.333 7 -58 21s-22 32.667 -22 56z" />
    <glyph glyph-name="quotedbl" unicode="&#x22;" horiz-adv-x="402" 
d="M90 700h114l-36 -216h-78v216zM238 700h114l-36 -216h-78v216z" />
    <glyph glyph-name="numbersign" unicode="#" 
d="M289 205h-89l-36 -154h-107l36 154h-74l22 97h75l25 106h-72l22 97h73l35 144h106l-34 -144h89l35 144h106l-34 -144h72l-25 -97h-70l-25 -106h69l-24 -97h-68l-36 -154h-107zM223 302h89l25 106h-89z" />
    <glyph glyph-name="dollar" unicode="$" 
d="M238 -13c-38 1.33301 -71.333 5.33398 -100 12.001s-51 14.334 -67 23.001l39 113c12 -7.33301 28.833 -14.333 50.5 -21s47.5 -11.334 77.5 -14.001v205c-20.667 9.33301 -41.167 19.666 -61.5 30.999s-38.5 25 -54.5 41s-28.833 35.167 -38.5 57.5
s-14.5 48.833 -14.5 79.5c0 57.333 15.167 101.833 45.5 133.5s71.5 52.167 123.5 61.5v91h104v-87c29.333 -2 55 -6 77 -12s42.333 -13 61 -21l-36 -111c-11.333 5.33301 -25.666 10.666 -42.999 15.999s-37 9.33301 -59 12v-187c20.667 -9.33301 41.5 -19.833 62.5 -31.5
s39.667 -25.5 56 -41.5s29.666 -34.833 39.999 -56.5s15.5 -47.5 15.5 -77.5c0 -61.333 -15.5 -109.166 -46.5 -143.499s-73.5 -56.5 -127.5 -66.5v-93h-104v87zM386 188.001c0 21.333 -8.49902 38.834 -25.499 52.501s-37.5 26.167 -61.5 37.5v-178
c29.333 3.33301 51.166 12.666 65.499 27.999s21.5 35.333 21.5 60zM199.001 525.002c0 -20 7.83301 -36.668 23.5 -50.001s35.167 -25.666 58.5 -36.999v162c-31.333 -1.33301 -52.833 -9 -64.5 -23s-17.5 -31.333 -17.5 -52z" />
    <glyph glyph-name="percent" unicode="%" horiz-adv-x="840" 
d="M51 542c0 30 4.33301 55.667 13 77s20.667 39 36 53s33.833 24.167 55.5 30.5s45.167 9.5 70.5 9.5s48.666 -3 69.999 -9s39.833 -15.667 55.5 -29s27.834 -30.833 36.501 -52.5s13.334 -48.167 14.001 -79.5c-0.666992 -31.333 -5.33398 -57.833 -14.001 -79.5
s-20.834 -39.167 -36.501 -52.5s-34.167 -23 -55.5 -29s-44.666 -9 -69.999 -9s-48.833 3 -70.5 9s-40.167 15.667 -55.5 29s-27.333 30.833 -36 52.5s-13 48.167 -13 79.5zM167 542c0 -57.333 19.667 -86 59 -86c20.667 0 35.5 6.16699 44.5 18.5s13.833 34.833 14.5 67.5
c-0.666992 32 -5.5 54.333 -14.5 67s-23.833 19 -44.5 19s-35.667 -6.33301 -45 -19s-14 -35 -14 -67zM457 171c0 30 4.33301 55.667 13 77s20.667 39 36 53s33.833 24.167 55.5 30.5s45.167 9.5 70.5 9.5s48.666 -3 69.999 -9s39.833 -15.667 55.5 -29
s27.834 -30.833 36.501 -52.5s13.334 -48.167 14.001 -79.5c-0.666992 -31.333 -5.33398 -57.833 -14.001 -79.5s-20.834 -39.167 -36.501 -52.5s-34.167 -23 -55.5 -29s-44.666 -9 -69.999 -9s-48.833 3 -70.5 9s-40.167 15.667 -55.5 29s-27.333 30.833 -36 52.5
s-13 48.167 -13 79.5zM573 171c0 -57.333 19.667 -86 59 -86c20.667 0 35.5 6.16699 44.5 18.5s13.833 34.833 14.5 67.5c-0.666992 32 -5.5 54.333 -14.5 67s-23.833 19 -44.5 19s-35.667 -6.33301 -45 -19s-14 -35 -14 -67zM677 714l73 -66l-576 -662l-73 69z" />
    <glyph glyph-name="ampersand" unicode="&#x26;" horiz-adv-x="814" 
d="M92 194c0 25.333 4.16992 49.5 12.5029 72.5s20 44.5 35 64.5s32.833 38.667 53.5 56s43 32.666 67 45.999c-16.667 22 -30.334 44.333 -41.001 67s-16 46.667 -16 72c0 16.667 3.16699 33.5 9.5 50.5s16.333 32.333 30 46s31.5 24.667 53.5 33s48.667 12.5 80 12.5
c30.667 0 56.834 -3.66699 78.501 -11s39.167 -17 52.5 -29s23 -25.667 29 -41s9 -31 9 -47c0 -27.333 -9.66699 -55.833 -29 -85.5s-52.333 -58.167 -99 -85.5c23.333 -36 46.666 -69 69.999 -99s49.333 -59.667 78 -89c15.333 16.667 29.166 37.5 41.499 62.5
s23.166 50.5 32.499 76.5l94 -50c-4 -12 -9.5 -25.167 -16.5 -39.5s-14.667 -28.833 -23 -43.5s-16.833 -28.5 -25.5 -41.5s-16.667 -24.167 -24 -33.5c21.333 -19.333 40 -34.5 56 -45.5s32.333 -21.167 49 -30.5l-69 -96c-18.667 8.66699 -37.834 20.167 -57.501 34.5
s-39.167 30.833 -58.5 49.5c-24 -22 -54 -41.5 -90 -58.5s-80.333 -25.5 -133 -25.5c-34.667 0 -67.167 4.66699 -97.5 14s-56.666 23 -78.999 41s-40 39.833 -53 65.5s-19.5 54.834 -19.5 87.501zM486.003 149c-34 35.333 -65 70.5 -93 105.5s-52.333 68.167 -73 99.5
c-32 -24.667 -56.333 -48.5 -73 -71.5s-25 -48.833 -25 -77.5c0 -34 12.5 -60.667 37.5 -80s57.833 -29 98.5 -29c26.667 0 51.667 5.5 75 16.5s41 23.167 53 36.5zM333.003 566c0 -28 12 -58.002 36 -90.002c26 16.667 44.833 32.334 56.5 47.001s17.5 28.667 17.5 42
c0 16 -4.5 28.667 -13.5 38s-23.5 14 -43.5 14c-18 0 -31.333 -4.66699 -40 -14s-13 -21.666 -13 -36.999z" />
    <glyph glyph-name="quotesingle" unicode="'" horiz-adv-x="254" 
d="M90 700h114l-36 -216h-78v216z" />
    <glyph glyph-name="parenleft" unicode="(" horiz-adv-x="327" 
d="M227 -220c-30.667 32 -56.666 67.167 -77.999 105.5s-38.5 77.666 -51.5 117.999s-22.5 81 -28.5 122s-9 80.167 -9 117.5c0 36.667 3 75.334 9 116.001s15.667 81.5 29 122.5s30.833 81.167 52.5 120.5s48.167 76 79.5 110l84 -54
c-23.333 -31.333 -42.833 -64 -58.5 -98s-28.334 -68.833 -38.001 -104.5s-16.667 -71.5 -21 -107.5s-6.5 -71 -6.5 -105c0 -32 2.33301 -66 7 -102s12 -71.833 22 -107.5s23 -70.5 39 -104.5s35.333 -65 58 -93z" />
    <glyph glyph-name="parenright" unicode=")" horiz-adv-x="327" 
d="M97 712c32 -32 58.668 -67.1709 80.001 -105.504s38.5 -77.666 51.5 -117.999s22.5 -81 28.5 -122s9.33301 -80.833 10 -119.5c-0.666992 -35.333 -4 -73.333 -10 -114s-15.667 -81.5 -29 -122.5s-30.833 -81.167 -52.5 -120.5s-46.834 -76 -75.501 -110l-89 56
c25.333 32.667 46 66.167 62 100.5s28.667 69 38 104s15.833 70 19.5 105s5.83398 67.5 6.50098 97.5c-0.666992 36 -3.5 71.833 -8.5 107.5s-12.5 71.334 -22.5 107.001s-22.833 70.334 -38.5 104.001s-33.834 65.834 -54.501 96.501z" />
    <glyph glyph-name="asterisk" unicode="*" horiz-adv-x="378" 
d="M144 731l28 -46l15 -59l15 55l28 49l64 -35l-30 -52l-48 -43l65 16h57v-73h-55l-61 16l50 -47l25 -42l-64 -37l-27 46l-20 64l-13 -58l-29 -49l-64 37l29 49l45 37l-55 -16h-59v74h60l59 -17l-51 44l-28 50z" />
    <glyph glyph-name="plus" unicode="+" horiz-adv-x="527" 
d="M43 394h162v169h117v-169h163v-112h-163v-171h-117v171h-162v112z" />
    <glyph glyph-name="comma" unicode="," horiz-adv-x="252" 
d="M42 64c0 22.667 7.50293 40.667 22.5029 54s33.5 20 55.5 20c28 0 50 -9.33301 66 -28s24 -43.334 24 -74.001c0 -30 -4.66699 -55.833 -14 -77.5s-20.833 -39.667 -34.5 -54s-28.334 -25.666 -44.001 -33.999s-29.834 -14.5 -42.501 -18.5l-38 54
c18 7.33301 33.667 19.333 47 36s20.666 34.334 21.999 53.001c-15.333 -2 -29.833 2.66699 -43.5 14s-20.5 29.666 -20.5 54.999z" />
    <glyph glyph-name="hyphen" unicode="-" horiz-adv-x="360" 
d="M54 345h251v-115h-251v115z" />
    <glyph glyph-name="period" unicode="." horiz-adv-x="246" 
d="M42 66c0 23.333 7.33301 41.833 22 55.5s34 20.5 58 20.5c25.333 0 45.333 -6.83301 60 -20.5s22 -32.167 22 -55.5s-7.33301 -42 -22 -56s-34.667 -21 -60 -21c-24 0 -43.333 7 -58 21s-22 32.667 -22 56z" />
    <glyph glyph-name="slash" unicode="/" horiz-adv-x="408" 
d="M333 712l98 -44l-357 -808l-98 46z" />
    <glyph glyph-name="zero" unicode="0" 
d="M40 351c0 122.667 20.999 213.833 62.999 273.5s102.333 89.5 181 89.5c84 0 145.667 -29.5 185 -88.5s59 -150.5 59 -274.5c0 -123.333 -21.167 -215 -63.5 -275s-102.833 -90 -181.5 -90c-83.333 0 -144.666 31.5 -183.999 94.5s-59 153.167 -59 270.5z
M169.999 350.999c0 -81.333 8.83301 -144.168 26.5 -188.501s46.834 -66.5 87.501 -66.5c39.333 0 68.166 20.333 86.499 61s27.5 105.334 27.5 194.001c0 80.667 -8.66699 143 -26 187s-47 66 -89 66c-40 0 -68.833 -20.667 -86.5 -62s-26.5 -105 -26.5 -191z" />
    <glyph glyph-name="one" unicode="1" 
d="M101 110h139v395l15 68l-48 -59l-89 -61l-55 75l228 184h73v-602h136v-110h-399v110z" />
    <glyph glyph-name="two" unicode="2" 
d="M475 529c0 -34 -6.16699 -68.333 -18.5 -103s-28 -68.667 -47 -102s-40 -65.5 -63 -96.5s-45.5 -59.5 -67.5 -85.5l-53 -41v-5l72 14h192v-110h-421v67l54 58.5l60.5 71c20.333 25 40.166 50.833 59.499 77.5s36.666 53.5 51.999 80.5s27.5 53.167 36.5 78.5
s13.5 49.333 13.5 72c0 27.333 -7.83301 49.833 -23.5 67.5s-40.5 26.5 -74.5 26.5c-21.333 0 -43.166 -4.5 -65.499 -13.5s-41.166 -20.5 -56.499 -34.5l-52 92c26 21.333 55.5 38.5 88.5 51.5s71.833 19.5 116.5 19.5c28.667 0 55 -4 79 -12s44.667 -19.667 62 -35
s31 -34.5 41 -57.5s15 -49.833 15 -80.5z" />
    <glyph glyph-name="three" unicode="3" 
d="M241 96c41.333 0 72.832 10.999 94.499 32.999s32.5 48.667 32.5 80c0 38 -11.333 66 -34 84s-58.334 27 -107.001 27h-72v69l121 165l57 45l-79 -9h-168v110h382v-71l-141 -189l-44 -27v-5l42 6c23.333 -2 45.5 -7.33301 66.5 -16s39.333 -21.167 55 -37.5
s28.167 -36.5 37.5 -60.5s14 -51.667 14 -83c0 -39.333 -6.5 -73.333 -19.5 -102s-31 -52.667 -54 -72s-49.833 -33.666 -80.5 -42.999s-63.667 -14 -99 -14c-29.333 0 -59.666 2.66699 -90.999 8s-56.666 13 -75.999 23l35 108c17.333 -8.66699 36.5 -15.667 57.5 -21
s44.5 -8 70.5 -8z" />
    <glyph glyph-name="four" unicode="4" 
d="M553 195h-110v-195h-121v195h-303v74l317 436h107v-406h110v-104zM322 452l9 84h-4l-34 -72l-104 -135l-50 -38l64 8h119v153z" />
    <glyph glyph-name="five" unicode="5" 
d="M220 101c44 0 77.668 10.6689 101.001 32.002s35 50.666 35 87.999c0 40 -13.667 69.333 -41 88s-66.333 28 -117 28l-79 -3v366h344v-122h-232v-135l41 4c32.667 -1.33301 62.167 -7.33301 88.5 -18s48.833 -25.5 67.5 -44.5s33 -42 43 -69s15 -57.167 15 -90.5
c0 -39.333 -6.66699 -74 -20 -104s-31.833 -55 -55.5 -75s-51.5 -35 -83.5 -45s-67 -15 -105 -15c-30 0 -58.5 2.5 -85.5 7.5s-49.833 11.833 -68.5 20.5l35 108c15.333 -6.66699 32.166 -11.834 50.499 -15.501s40.5 -5.5 66.5 -5.5z" />
    <glyph glyph-name="six" unicode="6" 
d="M520 217c0 -32.667 -5.49902 -63.0039 -16.499 -91.0039s-26.5 -52.333 -46.5 -73s-44.167 -37 -72.5 -49s-59.5 -18 -93.5 -18c-34.667 0 -66.5 5.5 -95.5 16.5s-54.167 27.5 -75.5 49.5s-38 49.667 -50 83s-18 72 -18 116c0 66 9.5 125.667 28.5 179
s44.667 99.833 77 139.5s70 71.667 113 96s88.5 40.5 136.5 48.5l29 -103c-33.333 -5.33301 -64 -15.666 -92 -30.999s-52.833 -33.666 -74.5 -54.999s-40 -45.166 -55 -71.499s-25.5 -53.5 -31.5 -81.5c13.333 16.667 30.666 30.834 51.999 42.501s48 17.5 80 17.5
c30 0 57.667 -4.66699 83 -14s47 -23.166 65 -41.499s32 -40.833 42 -67.5s15 -57.334 15 -92.001zM394.001 209.996c0 74.667 -36.668 112 -110.001 112c-26.667 0 -49.167 -6 -67.5 -18s-31.166 -26 -38.499 -42c-1.33301 -7.33301 -2 -13.666 -2 -18.999v-16
c0 -16 2.33301 -31.833 7 -47.5s11.5 -29.667 20.5 -42s20.5 -22.333 34.5 -30s30.667 -11.5 50 -11.5c31.333 0 56.833 10.667 76.5 32s29.5 48.666 29.5 81.999z" />
    <glyph glyph-name="seven" unicode="7" 
d="M104 0l229 539l44 49l-60 -10h-257v122h451v-38l-280 -662h-127z" />
    <glyph glyph-name="eight" unicode="8" 
d="M61 171c0 23.333 2.99902 44.1641 8.99902 62.4971s14.5 35 25.5 50s24 28.5 39 40.5s31.167 23 48.5 33c-32.667 20.667 -58.334 44.5 -77.001 71.5s-28 60.5 -28 100.5c0 26 4.83301 50.333 14.5 73s23.667 42.334 42 59.001s40.5 29.667 66.5 39s55.333 14 88 14
c30 0 57.333 -4 82 -12s45.834 -19.333 63.501 -34s31.334 -32.5 41.001 -53.5s14.5 -44.167 14.5 -69.5c0 -39.333 -8.83301 -72.666 -26.5 -99.999s-43.5 -52.333 -77.5 -75c40 -23.333 70.167 -49 90.5 -77s30.5 -64 30.5 -108c0 -30 -5.5 -57.167 -16.5 -81.5
s-26.5 -45.166 -46.5 -62.499s-44 -30.833 -72 -40.5s-58.667 -14.5 -92 -14.5s-63.5 4.5 -90.5 13.5s-50 21.5 -69 37.5s-33.667 35.333 -44 58s-15.5 48 -15.5 76zM382.999 183.998c0 15.333 -3.66699 29.333 -11 42s-16.833 24.167 -28.5 34.5s-24.667 19.833 -39 28.5
s-28.833 17 -43.5 25c-31.333 -18 -52.833 -37.5 -64.5 -58.5s-17.5 -41.833 -17.5 -62.5c0 -26.667 9.16699 -49.5 27.5 -68.5s43.833 -28.5 76.5 -28.5c30 0 54.167 7.33301 72.5 22s27.5 36.667 27.5 66zM201.999 526.998c0 -16 2.99902 -29.999 8.99902 -41.999
s14.167 -22.5 24.5 -31.5s22 -17.333 35 -25s26.5 -14.834 40.5 -21.501c40 34 60 71.333 60 112c0 28 -8.16699 49.167 -24.5 63.5s-36.166 21.5 -59.499 21.5c-29.333 0 -50.833 -7.66699 -64.5 -23s-20.5 -33.333 -20.5 -54z" />
    <glyph glyph-name="nine" unicode="9" 
d="M45 481c0 34 5.16504 65.3311 15.498 93.998s25.333 53.167 45 73.5s43.667 36.333 72 48s60.833 17.5 97.5 17.5c75.333 0 134.5 -22.5 177.5 -67.5s64.5 -110.5 64.5 -196.5c0 -77.333 -9.83301 -144.166 -29.5 -200.499s-46 -103.333 -79 -141
s-71.167 -66.5 -114.5 -86.5s-89 -32 -137 -36l-28 102c36.667 4.66699 69.334 13.667 98.001 27s53.334 29.833 74.001 49.5s37.5 42 50.5 67s22.167 51.833 27.5 80.5c-16 -17.333 -33.167 -29.333 -51.5 -36s-42.833 -10 -73.5 -10c-25.333 0 -50.5 4.33301 -75.5 13
s-47.333 21.834 -67 39.501s-35.667 40 -48 67s-18.5 58.833 -18.5 95.5zM170.998 487.998c0 -38 10.6699 -66.668 32.0029 -86.001s48 -29 80 -29c27.333 0 49.666 4.33301 66.999 13s30.666 19.334 39.999 32.001c2 14 3 27.333 3 40c0 18.667 -2.33301 37 -7 55
s-11.834 34 -21.501 48s-22 25.167 -37 33.5s-32.833 12.5 -53.5 12.5c-32.667 0 -58 -10.5 -76 -31.5s-27 -50.167 -27 -87.5z" />
    <glyph glyph-name="colon" unicode=":" horiz-adv-x="269" 
d="M93 428c0 23.333 7.33301 41.833 22 55.5s34 20.5 58 20.5c25.333 0 45.333 -6.83301 60 -20.5s22 -32.167 22 -55.5s-7.33301 -42 -22 -56s-34.667 -21 -60 -21c-24 0 -43.333 7 -58 21s-22 32.667 -22 56zM93 66c0 23.333 7.33301 41.833 22 55.5s34 20.5 58 20.5
c25.333 0 45.333 -6.83301 60 -20.5s22 -32.167 22 -55.5s-7.33301 -42 -22 -56s-34.667 -21 -60 -21c-24 0 -43.333 7 -58 21s-22 32.667 -22 56z" />
    <glyph glyph-name="semicolon" unicode=";" horiz-adv-x="290" 
d="M82 64c0 22.667 7.50293 40.667 22.5029 54s33.5 20 55.5 20c28 0 50 -9.33301 66 -28s24 -43.334 24 -74.001c0 -30 -4.66699 -55.833 -14 -77.5s-20.833 -39.667 -34.5 -54s-28.334 -25.666 -44.001 -33.999s-29.834 -14.5 -42.501 -18.5l-38 54
c18 7.33301 33.667 19.333 47 36s20.666 34.334 21.999 53.001c-15.333 -2 -29.833 2.66699 -43.5 14s-20.5 29.666 -20.5 54.999zM82.0029 428c0 23.333 7.33301 41.833 22 55.5s34 20.5 58 20.5c25.333 0 45.333 -6.83301 60 -20.5s22 -32.167 22 -55.5
s-7.33301 -42 -22 -56s-34.667 -21 -60 -21c-24 0 -43.333 7 -58 21s-22 32.667 -22 56z" />
    <glyph glyph-name="less" unicode="&#x3c;" horiz-adv-x="527" 
d="M40 285v70l386 231l57 -90l-224 -139l-91 -35l90 -31l230 -137l-57 -90z" />
    <glyph glyph-name="equal" unicode="=" horiz-adv-x="527" 
d="M43 490h442v-112h-442v112zM43 299h442v-112h-442v112z" />
    <glyph glyph-name="greater" unicode="&#x3e;" horiz-adv-x="527" 
d="M487 365v-70l-386 -231l-57 91l224 138l91 36l-90 30l-230 138l57 89z" />
    <glyph glyph-name="question" unicode="?" horiz-adv-x="454" 
d="M136 208c-3.33301 34.667 -1.66895 64.166 4.99805 88.499s15.834 45.333 27.501 63s25 33 40 46l42 37.5c13 12 23.833 24.5 32.5 37.5s13 28.5 13 46.5c0 23.333 -6.5 42 -19.5 56s-36.167 21 -69.5 21c-10.667 0 -22 -1.16699 -34 -3.5s-24 -5.66602 -36 -9.99902
s-23.5 -9.33301 -34.5 -15s-20.833 -11.5 -29.5 -17.5l-50 96c25.333 17.333 54.5 31.666 87.5 42.999s72.833 17 119.5 17c62.667 0 111.667 -15.167 147 -45.5s53 -71.166 53 -122.499c0 -34 -4.5 -62.167 -13.5 -84.5s-20.167 -41.333 -33.5 -57s-28 -29.5 -44 -41.5
s-30.667 -24.833 -44 -38.5s-24.666 -29.5 -33.999 -47.5s-14 -41 -14 -69h-111zM115.997 65.999c0 23.333 7.33301 41.833 22 55.5s34 20.5 58 20.5c25.333 0 45.333 -6.83301 60 -20.5s22 -32.167 22 -55.5s-7.33301 -42 -22 -56s-34.667 -21 -60 -21
c-24 0 -43.333 7 -58 21s-22 32.667 -22 56z" />
    <glyph glyph-name="at" unicode="@" horiz-adv-x="1059" 
d="M679 484l70.001 -0.00195312l-48 -271c-5.33301 -31.333 -5.5 -54 -0.5 -68s16.167 -21 33.5 -21s34.333 4 51 12s31.667 20.333 45 37s24.166 37.667 32.499 63s12.5 55.333 12.5 90c0 50 -8.33301 92.667 -25 128s-39.5 64.5 -68.5 87.5s-63.167 39.833 -102.5 50.5
s-81.666 16 -126.999 16c-52 0 -100.333 -9.33301 -145 -28s-83.5 -44.334 -116.5 -77.001s-58.833 -71.5 -77.5 -116.5s-28 -93.833 -28 -146.5c0 -52 7.83301 -98.667 23.5 -140s38.5 -76.5 68.5 -105.5s67.167 -51.333 111.5 -67s95.166 -23.5 152.499 -23.5
c19.333 0 41.333 2.33301 66 7s47 11.667 67 21l31 -96c-27.333 -13.333 -55.166 -22.666 -83.499 -27.999s-60.833 -8 -97.5 -8c-64.667 0 -124.5 9.33301 -179.5 28s-102.667 46.334 -143 83.001s-71.833 82.167 -94.5 136.5s-34 117.166 -34 188.499
c0 72.667 13 138.334 39 197.001s61 108.667 105 150s95 73.166 153 95.499s119.333 33.5 184 33.5c61.333 0 118.333 -8.83301 171 -26.5s98.334 -43 137.001 -76s69 -73.333 91 -121s33 -101.834 33 -162.501c0 -42.667 -7.5 -82.667 -22.5 -120
s-35.667 -69.666 -62 -96.999s-57 -49 -92 -65s-72.5 -24 -112.5 -24c-16.667 0 -32.167 1.83301 -46.5 5.5s-26.333 9.83398 -36 18.501s-16.834 20 -21.501 34s-6 31.333 -4 52h-4c-10 -14 -20.833 -27.667 -32.5 -41s-24.5 -25.166 -38.5 -35.499
s-29.333 -18.5 -46 -24.5s-35 -9 -55 -9c-16 0 -31.333 3.5 -46 10.5s-27.334 16.833 -38.001 29.5s-19.167 28 -25.5 46s-9.5 38 -9.5 60c0 41.333 6.66699 81.5 20 120.5s31.5 73.5 54.5 103.5s49.667 54.167 80 72.5s62.5 27.5 96.5 27.5c23.333 0 43 -3.5 59 -10.5
s30.667 -16.167 44 -27.5zM616.001 362.998c-8.66699 7.33301 -17.666 12.999 -26.999 16.999s-21 6 -35 6c-20 0 -38.5 -5.66699 -55.5 -17s-31.667 -26 -44 -44s-21.833 -38.167 -28.5 -60.5s-10 -44.166 -10 -65.499c0 -22 4.5 -40 13.5 -54s24.5 -21 46.5 -21
c9.33301 0 19.333 2.83301 30 8.5s21 13.167 31 22.5s19.667 20 29 32s17.666 24.667 24.999 38z" />
    <glyph glyph-name="A" unicode="A" horiz-adv-x="605" 
d="M405 155h-215l-53 -155h-137l252 705h101l252 -705h-144zM225 265h150l-52 156l-21 110h-5l-21 -111z" />
    <glyph glyph-name="B" unicode="B" horiz-adv-x="591" 
d="M531 537c0 -17.333 -2.16602 -34.666 -6.49902 -51.999s-11.5 -33.166 -21.5 -47.499s-23 -27 -39 -38s-35.333 -19.167 -58 -24.5v-6c20 -3.33301 39 -9 57 -17s33.667 -19 47 -33s23.833 -31 31.5 -51s11.5 -43.667 11.5 -71c0 -36 -7.66699 -67.167 -23 -93.5
s-35.833 -47.833 -61.5 -64.5s-54.834 -29 -87.501 -37s-66.334 -12 -101.001 -12h-43.5c-17.667 0 -36.667 0.5 -57 1.5s-41 2.5 -62 4.5s-40.167 5 -57.5 9v690c12.667 2 27.167 4 43.5 6s33.833 3.66699 52.5 5s37.834 2.33301 57.501 3s39.167 1 58.5 1
c32.667 0 64.5 -2.5 95.5 -7.5s58.667 -13.833 83 -26.5s43.833 -30.334 58.5 -53.001s22 -51.334 22 -86.001zM281.001 103c16.667 0 32.834 2 48.501 6s29.5 10.167 41.5 18.5s21.667 18.833 29 31.5s11 27.667 11 45c0 22 -4.33301 39.333 -13 52s-20 22.5 -34 29.5
s-29.667 11.5 -47 13.5s-34.666 3 -51.999 3h-73v-193c3.33301 -1.33301 8.66602 -2.33301 15.999 -3s15.166 -1.16699 23.499 -1.5l26 -1c9 -0.333008 16.833 -0.5 23.5 -0.5zM236.001 406c9.33301 0 20.168 0.333008 32.501 1s22.5 1.66699 30.5 3
c25.333 8 47.166 20 65.499 36s27.5 37 27.5 63c0 17.333 -3.33301 31.666 -10 42.999s-15.5 20.333 -26.5 27s-23.5 11.334 -37.5 14.001s-28.667 4 -44 4c-17.333 0 -33.333 -0.333008 -48 -1s-26 -1.66699 -34 -3v-187h44z" />
    <glyph glyph-name="C" unicode="C" horiz-adv-x="559" 
d="M534 29c-21.333 -15.333 -48.4961 -26.3311 -81.4961 -32.998s-66.833 -10 -101.5 -10c-42 0 -81.833 6.5 -119.5 19.5s-70.834 34 -99.501 63s-51.5 66.667 -68.5 113s-25.5 102.5 -25.5 168.5c0 68.667 9.5 126.167 28.5 172.5s43.667 83.666 74 111.999
s64.166 48.666 101.499 60.999s74.666 18.5 111.999 18.5c40 0 73.833 -2.66699 101.5 -8s50.5 -11.666 68.5 -18.999l-27 -116c-15.333 7.33301 -33.5 12.666 -54.5 15.999s-46.5 5 -76.5 5c-55.333 0 -99.833 -19.667 -133.5 -59s-50.5 -100.333 -50.5 -183
c0 -36 4 -68.833 12 -98.5s20.167 -55 36.5 -76s36.666 -37.333 60.999 -49s52.5 -17.5 84.5 -17.5c30 0 55.333 3 76 9s38.667 13.667 54 23z" />
    <glyph glyph-name="D" unicode="D" horiz-adv-x="647" 
d="M60 700c14 2 29.832 3.66504 47.499 4.99805s35.834 2.33301 54.501 3s36.834 1.16699 54.501 1.5s33.5 0.5 47.5 0.5c62 0 115 -8.66699 159 -26s79.667 -41.666 107 -72.999s47.333 -68.666 60 -111.999s19 -91 19 -143c0 -47.333 -6 -93 -18 -137s-32 -83 -60 -117
s-64.833 -61.333 -110.5 -82s-102.167 -31 -169.5 -31c-10.667 0 -24.834 0.333008 -42.501 1s-36 1.5 -55 2.5l-54.5 3c-17.333 1 -30.333 2.16699 -39 3.5v701zM274.999 587.998c-14.667 0 -29.501 -0.335938 -44.501 -1.00293s-26.167 -1.66699 -33.5 -3v-469
c2.66699 -0.666992 7.16699 -1.16699 13.5 -1.5s13.166 -0.666016 20.499 -0.999023l21 -1c6.66699 -0.333008 11.667 -0.5 15 -0.5c38.667 0 70.834 6.83301 96.501 20.5s46 31.834 61 54.501s25.5 48.834 31.5 78.501s9 60.167 9 91.5c0 27.333 -2.66699 54.833 -8 82.5
s-15.166 52.5 -29.499 74.5s-33.833 40 -58.5 54s-56 21 -94 21z" />
    <glyph glyph-name="E" unicode="E" horiz-adv-x="522" 
d="M60 700h415v-122h-278v-163h253v-122h-253v-171h283v-122h-420v700z" />
    <glyph glyph-name="F" unicode="F" horiz-adv-x="508" 
d="M60 700h415v-122h-278v-173h256v-122h-256v-283h-137v700z" />
    <glyph glyph-name="G" unicode="G" horiz-adv-x="609" 
d="M307 365l261.003 0.000976562v-312c-28 -23.333 -61.5 -40.333 -100.5 -51s-77.5 -16 -115.5 -16c-44.667 0 -86.167 7 -124.5 21s-71.5 35.833 -99.5 65.5s-50 67.5 -66 113.5s-24 100.667 -24 164c0 66 9.5 122.167 28.5 168.5s44 84 75 113s65.833 50 104.5 63
s78 19.5 118 19.5s75.167 -3 105.5 -9s54.5 -12.333 72.5 -19l-28 -115c-16.667 6.66699 -35.334 11.834 -56.001 15.501s-47 5.5 -79 5.5c-28.667 0 -55 -4.33301 -79 -13s-44.833 -22.834 -62.5 -42.501s-31.334 -44.834 -41.001 -75.501s-14.5 -68 -14.5 -112
c0 -42 4.66699 -78.167 14 -108.5s22.333 -55.333 39 -75s36.167 -34.167 58.5 -43.5s46.166 -14 71.499 -14c17.333 0 34.333 2.16699 51 6.5s30.667 10.833 42 19.5v132l-151 16v83z" />
    <glyph glyph-name="H" unicode="H" horiz-adv-x="651" 
d="M453 293h-256v-293h-137v700h137v-285h256v285h137v-700h-137v293z" />
    <glyph glyph-name="I" unicode="I" horiz-adv-x="285" 
d="M74 700h137v-700h-137v700z" />
    <glyph glyph-name="J" unicode="J" horiz-adv-x="334" 
d="M131 700h137.001v-512c0 -26.667 -3 -52 -9 -76s-15.833 -45.167 -29.5 -63.5s-31.167 -33 -52.5 -44s-47.333 -16.5 -78 -16.5c-19.333 0 -40.333 2 -63 6s-42.334 9.66699 -59.001 17l30 112c17.333 -8.66699 37 -13 59 -13c28 0 45.833 10.333 53.5 31
s11.5 48 11.5 82v477z" />
    <glyph glyph-name="K" unicode="K" horiz-adv-x="620" 
d="M233 299h-36v-299h-137v700h137v-310l32 14l193 296h156l-204 -294l-54 -38l56 -39l233 -329h-169z" />
    <glyph glyph-name="L" unicode="L" horiz-adv-x="514" 
d="M503 0h-443v700h137v-578h306v-122z" />
    <glyph glyph-name="M" unicode="M" horiz-adv-x="800" 
d="M603 363l15 139h-6l-43 -112l-149 -261h-44l-157 262l-44 111h-5l20 -138v-364h-130v700h125l187 -320l33 -80h4l30 82l177 318h124v-700h-137v363z" />
    <glyph glyph-name="N" unicode="N" horiz-adv-x="657" 
d="M234 365l-55 110h-5l16 -110v-365h-130v705h100l265 -373l53 -107h5l-16 107v368h130v-705h-100z" />
    <glyph glyph-name="O" unicode="O" horiz-adv-x="670" 
d="M38 350c0 116.667 25.668 206.5 77.001 269.5s124.666 94.5 219.999 94.5c50 0 93.667 -8.66699 131 -26s68.333 -42 93 -74s43 -70.333 55 -115s18 -94.334 18 -149.001c0 -116.667 -25.833 -206.5 -77.5 -269.5s-124.834 -94.5 -219.501 -94.5
c-50.667 0 -94.667 8.66699 -132 26s-68.166 42 -92.499 74s-42.5 70.333 -54.5 115s-18 94.334 -18 149.001zM182.001 350c0 -35.333 3.00098 -67.833 9.00098 -97.5s15.167 -55.167 27.5 -76.5s28.166 -38 47.499 -50s42.333 -18 69 -18c48.667 0 86.334 19 113.001 57
s40 99.667 40 185c0 34 -2.83301 65.667 -8.5 95s-14.5 55 -26.5 77s-27.667 39.167 -47 51.5s-43 18.5 -71 18.5c-48.667 0 -86.334 -19.5 -113.001 -58.5s-40 -100.167 -40 -183.5z" />
    <glyph glyph-name="P" unicode="P" horiz-adv-x="572" 
d="M60 693c28 5.33301 58.8311 9.49805 92.498 12.498s67.167 4.5 100.5 4.5c34.667 0 69.5 -2.83301 104.5 -8.5s66.5 -17 94.5 -34s50.833 -40.667 68.5 -71s26.5 -69.833 26.5 -118.5c0 -44 -7.66699 -81.167 -23 -111.5s-35.666 -55.166 -60.999 -74.499
s-54.166 -33.333 -86.499 -42s-65.833 -13 -100.5 -13h-16c-7.33301 0 -15 0.166992 -23 0.5s-15.833 0.833008 -23.5 1.5s-13.167 1.33398 -16.5 2.00098v-241h-137v693zM263.998 591.998c-13.333 0 -26 -0.499023 -38 -1.49902s-21.667 -2.16699 -29 -3.5v-227
c2.66699 -0.666992 6.66699 -1.33398 12 -2.00098s11 -1.16699 17 -1.5s11.833 -0.5 17.5 -0.5h12.5c18 0 35.833 1.66699 53.5 5s33.5 9.5 47.5 18.5s25.167 21.5 33.5 37.5s12.5 37 12.5 63c0 22 -4 40.167 -12 54.5s-18.5 25.833 -31.5 34.5s-27.833 14.667 -44.5 18
s-33.667 5 -51 5z" />
    <glyph glyph-name="Q" unicode="Q" horiz-adv-x="670" 
d="M702 -202c-32 -8.66699 -64.334 -12.998 -97.001 -12.998c-34 0 -67 3.5 -99 10.5s-63 14.5 -93 22.5l-87 22.5c-28 7 -54.333 10.5 -79 10.5c-16 0 -31.333 -2 -46 -6v118c18.667 4 38 6 58 6c28 0 55.833 -3.33301 83.5 -10s55.834 -13.834 84.501 -21.501
s58 -14.834 88 -21.501s61.667 -10 95 -10c14.667 0 29.667 0.833008 45 2.5s31 4.5 47 8.5v-119zM37.999 350.002c0 116.667 25.668 206.5 77.001 269.5s124.666 94.5 219.999 94.5c50 0 93.667 -8.66699 131 -26s68.333 -42 93 -74s43 -70.333 55 -115
s18 -94.334 18 -149.001c0 -116.667 -25.833 -206.5 -77.5 -269.5s-124.834 -94.5 -219.501 -94.5c-50.667 0 -94.667 8.66699 -132 26s-68.166 42 -92.499 74s-42.5 70.333 -54.5 115s-18 94.334 -18 149.001zM182 350.002c0 -35.333 3.00098 -67.833 9.00098 -97.5
s15.167 -55.167 27.5 -76.5s28.166 -38 47.499 -50s42.333 -18 69 -18c48.667 0 86.334 19 113.001 57s40 99.667 40 185c0 34 -2.83301 65.667 -8.5 95s-14.5 55 -26.5 77s-27.667 39.167 -47 51.5s-43 18.5 -71 18.5c-48.667 0 -86.334 -19.5 -113.001 -58.5
s-40 -100.167 -40 -183.5z" />
    <glyph glyph-name="R" unicode="R" horiz-adv-x="602" 
d="M60 693c15.333 2.66699 31.8311 5.16992 49.498 7.50293s35.334 4.16602 53.001 5.49902s34.834 2.33301 51.501 3s32 1 46 1c32.667 0 64.834 -3 96.501 -9s60 -16.333 85 -31s45 -34.834 60 -60.501s22.5 -57.834 22.5 -96.501c0 -57.333 -13.333 -104 -40 -140
s-62.334 -61 -107.001 -75l49 -31l160 -267h-158l-159 274l-72 13v-287h-137v693zM269.998 588.003c-14 0 -27.833 -0.333008 -41.5 -1s-24.167 -2 -31.5 -4v-203h58c38 0 68.333 8.66699 91 26s34 46 34 86c0 30 -9.33301 53.5 -28 70.5s-46 25.5 -82 25.5z" />
    <glyph glyph-name="S" unicode="S" horiz-adv-x="530" 
d="M362 188c0 21.333 -7.83496 38.668 -23.502 52.001s-35.334 25.5 -59.001 36.5s-49.334 22.333 -77.001 34s-53.334 26 -77.001 43s-43.334 38.167 -59.001 63.5s-23.5 57.666 -23.5 96.999c0 34 5.66699 63.5 17 88.5s27.5 45.833 48.5 62.5s45.833 29 74.5 37
s60.667 12 96 12c40.667 0 79 -3.5 115 -10.5s65.667 -17.167 89 -30.5l-43 -115c-14.667 9.33301 -36.667 17.833 -66 25.5s-61 11.5 -95 11.5c-32 0 -56.5 -6.33301 -73.5 -19s-25.5 -29.667 -25.5 -51c0 -20 7.83301 -36.667 23.5 -50s35.334 -25.666 59.001 -36.999
s49.334 -23 77.001 -35s53.334 -26.5 77.001 -43.5s43.334 -38 59.001 -63s23.5 -56.167 23.5 -93.5s-6.16699 -69.5 -18.5 -96.5s-29.666 -49.5 -51.999 -67.5s-49.333 -31.333 -81 -40s-66.5 -13 -104.5 -13c-50 0 -94 4.66699 -132 14s-66 18.666 -84 27.999l44 117
c7.33301 -4 16.833 -8.33301 28.5 -13s24.834 -9 39.501 -13s30.167 -7.33301 46.5 -10s33.166 -4 50.499 -4c40.667 0 71.834 6.83301 93.501 20.5s32.5 34.5 32.5 62.5z" />
    <glyph glyph-name="T" unicode="T" horiz-adv-x="568" 
d="M557 578h-204v-578h-137v578h-205v122h546v-122z" />
    <glyph glyph-name="U" unicode="U" horiz-adv-x="627" 
d="M440 700h130.001v-452c0 -45.333 -6 -84.333 -18 -117s-28.667 -59.667 -50 -81s-47.333 -37 -78 -47s-64.334 -15 -101.001 -15c-177.333 0 -266 81 -266 243v469h137v-442c0 -27.333 2.5 -50.5 7.5 -69.5s12.833 -34.333 23.5 -46s24 -20 40 -25s34.667 -7.5 56 -7.5
c42 0 72.333 11.667 91 35s28 61 28 113v442z" />
    <glyph glyph-name="V" unicode="V" horiz-adv-x="602" 
d="M290 289l18 -119h5l20 120l134 410h144l-260 -705h-98l-262 705h159z" />
    <glyph glyph-name="W" unicode="W" horiz-adv-x="862" 
d="M242 309l13 -124h4l14 126l122 389h90l120 -391l14 -124h4l15 126l85 389h139l-193 -705h-92l-125 389l-17 107h-5l-17 -108l-124 -388h-97l-192 705h149z" />
    <glyph glyph-name="X" unicode="X" horiz-adv-x="633" 
d="M225 356l-195 344h165l108 -202l24 -71l23 71l113 202h149l-202 -337l212 -363h-163l-123 216l-27 74l-26 -74l-124 -216h-149z" />
    <glyph glyph-name="Y" unicode="Y" horiz-adv-x="592" 
d="M228 260l-230 440h163l128 -263l14 -74h5l15 76l124 261h147l-229 -439v-261h-137v260z" />
    <glyph glyph-name="Z" unicode="Z" horiz-adv-x="539" 
d="M27 122l296 414l52 42h-348v122h485v-122l-298 -418l-51 -38h349v-122h-485v122z" />
    <glyph glyph-name="bracketleft" unicode="[" horiz-adv-x="324" 
d="M60 700h235v-110h-111v-710h111v-110h-235v930z" />
    <glyph glyph-name="backslash" unicode="\" horiz-adv-x="424" 
d="M438 -95l-99 -45l-363 808l102 43z" />
    <glyph glyph-name="bracketright" unicode="]" horiz-adv-x="324" 
d="M264 -230h-235v110h111v710h-111v110h235v-930z" />
    <glyph glyph-name="asciicircum" unicode="^" horiz-adv-x="500" 
d="M216 705h69l185 -292h-131l-71 122l-21 70l-25 -71l-78 -121h-124z" />
    <glyph glyph-name="underscore" unicode="_" horiz-adv-x="444" 
d="M0 -117h444v-107h-444v107z" />
    <glyph glyph-name="grave" unicode="`" horiz-adv-x="316" 
d="M256 566h-72l-124 124v30h136z" />
    <glyph glyph-name="a" unicode="a" horiz-adv-x="496" 
d="M54 471c26.667 12 58.3291 21.5 94.9961 28.5s75 10.5 115 10.5c34.667 0 63.667 -4.16699 87 -12.5s41.833 -20.166 55.5 -35.499s23.334 -33.666 29.001 -54.999s8.5 -45.333 8.5 -72c0 -29.333 -1 -58.833 -3 -88.5s-3.16699 -58.834 -3.5 -87.501
s0.5 -56.5 2.5 -83.5s7 -52.5 15 -76.5h-106l-21 69h-5c-13.333 -20.667 -31.833 -38.5 -55.5 -53.5s-54.167 -22.5 -91.5 -22.5c-23.333 0 -44.333 3.5 -63 10.5s-34.667 17 -48 30s-23.666 28.333 -30.999 46s-11 37.5 -11 59.5c0 30.667 6.83301 56.5 20.5 77.5
s33.334 38 59.001 51s56.334 22 92.001 27s75.5 6.5 119.5 4.5c4.66699 37.333 2 64.166 -8 80.499s-32.333 24.5 -67 24.5c-26 0 -53.5 -2.66699 -82.5 -8s-52.833 -12.333 -71.5 -21zM218.995 99c26 0 46.6689 5.83398 62.002 17.501s26.666 24.167 33.999 37.5v65
c-20.667 2 -40.5 2.33301 -59.5 1s-35.833 -4.33301 -50.5 -9s-26.334 -11.334 -35.001 -20.001s-13 -19.667 -13 -33c0 -18.667 5.5 -33.167 16.5 -43.5s26.167 -15.5 45.5 -15.5z" />
    <glyph glyph-name="b" unicode="b" horiz-adv-x="536" 
d="M57 700h129.999v-240h4c14 16 32 28.667 54 38s46.333 14 73 14c60 0 105.833 -20.5 137.5 -61.5s47.5 -103.5 47.5 -187.5c0 -90 -22.167 -158.333 -66.5 -205s-105.166 -70 -182.499 -70c-42.667 0 -81.667 3.5 -117 10.5s-62 14.833 -80 23.5v678zM279.999 402
c-24 0 -43.499 -6.16797 -58.499 -18.501s-26.5 -30.166 -34.5 -53.499v-218c10.667 -5.33301 22.167 -9 34.5 -11s25.5 -3 39.5 -3c35.333 0 62.166 12.833 80.499 38.5s27.5 66.5 27.5 122.5c0 95.333 -29.667 143 -89 143z" />
    <glyph glyph-name="c" unicode="c" horiz-adv-x="433" 
d="M411 31c-20 -14.667 -44.167 -25.834 -72.5 -33.501s-57.5 -11.5 -87.5 -11.5c-40 0 -73.833 6.33301 -101.5 19s-50.167 30.5 -67.5 53.5s-29.833 50.833 -37.5 83.5s-11.5 68.667 -11.5 108c0 84.667 19 149.834 57 195.501s93.333 68.5 166 68.5
c36.667 0 66.167 -3 88.5 -9s42.5 -13.667 60.5 -23l-31 -106c-15.333 7.33301 -30.5 13 -45.5 17s-32.167 6 -51.5 6c-36 0 -63.333 -11.833 -82 -35.5s-28 -61.5 -28 -113.5c0 -21.333 2.33301 -41 7 -59s11.667 -33.667 21 -47s21.5 -23.833 36.5 -31.5
s32.5 -11.5 52.5 -11.5c22 0 40.667 2.83301 56 8.5s29 12.5 41 20.5z" />
    <glyph glyph-name="d" unicode="d" horiz-adv-x="539" 
d="M482 176c0 -28 0.333984 -56.001 1.00098 -84.001s3.66699 -59 9 -93h-93l-18 65h-4c-13.333 -23.333 -32.5 -42.166 -57.5 -56.499s-54.5 -21.5 -88.5 -21.5c-62.667 0 -111.334 20.667 -146.001 62s-52 106 -52 194c0 85.333 19.333 151.666 58 198.999
s95.334 71 170.001 71c20.667 0 37.667 -1.16699 51 -3.5s26.666 -6.16602 39.999 -11.499v203h130v-524zM261.001 95.999c25.333 0 45.332 6.16797 59.999 18.501s25 30.166 31 53.499v212c-9.33301 7.33301 -19.666 12.833 -30.999 16.5s-26 5.5 -44 5.5
c-36.667 0 -64.167 -12.333 -82.5 -37s-27.5 -67 -27.5 -127c0 -42.667 7.5 -77 22.5 -103s38.833 -39 71.5 -39z" />
    <glyph glyph-name="e" unicode="e" horiz-adv-x="508" 
d="M457 43c-20 -16 -47.167 -29.5 -81.5 -40.5s-70.833 -16.5 -109.5 -16.5c-80.667 0 -139.667 23.5 -177 70.5s-56 111.5 -56 193.5c0 88 21 154 63 198s101 66 177 66c25.333 0 50 -3.33301 74 -10s45.333 -17.667 64 -33s33.667 -36 45 -62s17 -58.333 17 -97
c0 -14 -0.833008 -29 -2.5 -45s-4.16699 -32.667 -7.5 -50h-300c2 -42 12.833 -73.667 32.5 -95s51.5 -32 95.5 -32c27.333 0 51.833 4.16699 73.5 12.5s38.167 16.833 49.5 25.5zM271 410c-34 0 -59.168 -10.167 -75.501 -30.5s-26.166 -47.5 -29.499 -81.5h186
c2.66699 36 -2.83301 63.667 -16.5 83s-35.167 29 -64.5 29z" />
    <glyph glyph-name="f" unicode="f" horiz-adv-x="321" 
d="M11 500h69.002v28c0 63.333 13.333 109.166 40 137.499s65.334 42.5 116.001 42.5c53.333 0 97.666 -6.33301 132.999 -19l-25 -104c-15.333 5.33301 -28.833 8.83301 -40.5 10.5s-23.834 2.5 -36.501 2.5c-13.333 0 -23.833 -2 -31.5 -6s-13.334 -10.167 -17.001 -18.5
s-6 -18.666 -7 -30.999s-1.5 -26.5 -1.5 -42.5h110v-110h-110v-390h-130v390h-69v110z" />
    <glyph glyph-name="g" unicode="g" horiz-adv-x="536" 
d="M480 0c0 -72.667 -19.666 -126.167 -58.999 -160.5s-94.333 -51.5 -165 -51.5c-48 0 -85.833 3.33301 -113.5 10s-48.5 13.667 -62.5 21l27 103c15.333 -6 33.166 -12 53.499 -18s45.5 -9 75.5 -9c45.333 0 76.166 9.83301 92.499 29.5s24.5 47.167 24.5 82.5v32h-4
c-23.333 -31.333 -64.666 -47 -123.999 -47c-64.667 0 -112.834 20 -144.501 60s-47.5 102.667 -47.5 188c0 89.333 21.333 157 64 203s104.667 69 186 69c42.667 0 80.834 -3 114.501 -9s61.167 -13 82.5 -21v-482zM260.001 96c25.333 0 44.834 5.66699 58.501 17
s24.167 28.333 31.5 51v225c-20.667 8.66699 -46.334 13 -77.001 13c-33.333 0 -59.333 -12.5 -78 -37.5s-28 -64.833 -28 -119.5c0 -48.667 8 -85.667 24 -111s39 -38 69 -38z" />
    <glyph glyph-name="h" unicode="h" horiz-adv-x="545" 
d="M363 0l0.000976562 283.999c0 40.667 -5.66699 70 -17 88s-32 27 -62 27c-22 0 -42.167 -7.5 -60.5 -22.5s-30.5 -34.167 -36.5 -57.5v-319h-130v700h130v-256h4c16 21.333 35.667 38.333 59 51s53 19 89 19c25.333 0 47.666 -3.33301 66.999 -10s35.5 -17.667 48.5 -33
s22.667 -36.166 29 -62.499s9.5 -58.833 9.5 -97.5v-311h-130z" />
    <glyph glyph-name="i" unicode="i" horiz-adv-x="269" 
d="M68 500h130v-500h-130v500zM49 641c0 19.333 7.16699 35.833 21.5 49.5s34.166 20.5 59.499 20.5s45.833 -6.83301 61.5 -20.5s23.5 -30.167 23.5 -49.5s-7.83301 -35.5 -23.5 -48.5s-36.167 -19.5 -61.5 -19.5s-45.166 6.5 -59.499 19.5s-21.5 29.167 -21.5 48.5z" />
    <glyph glyph-name="j" unicode="j" horiz-adv-x="268" 
d="M69 500h130v-521c0 -60.667 -12 -107 -36 -139s-62.333 -48 -115 -48c-20 0 -41.333 2.33301 -64 7v109c2.66699 0 5 -0.166992 7 -0.5s4 -0.5 6 -0.5c30 0 49.5 9.66699 58.5 29s13.5 46 13.5 80v484zM51 641c0 19.333 7.16699 35.833 21.5 49.5
s34.166 20.5 59.499 20.5s45.833 -6.83301 61.5 -20.5s23.5 -30.167 23.5 -49.5s-7.83301 -35.5 -23.5 -48.5s-36.167 -19.5 -61.5 -19.5s-45.166 6.5 -59.499 19.5s-21.5 29.167 -21.5 48.5z" />
    <glyph glyph-name="k" unicode="k" horiz-adv-x="491" 
d="M222 207h-35v-207h-130v700h130v-413l30 14l114 199h143l-120 -190l-51 -38l55 -39l135 -233h-149z" />
    <glyph glyph-name="l" unicode="l" horiz-adv-x="294" 
d="M191 168c0 -23.333 3 -40.335 9 -51.002s15.667 -16 29 -16c8 0 15.833 0.666992 23.5 2s17.167 4.33301 28.5 9l14 -102c-10.667 -5.33301 -27 -10.666 -49 -15.999s-44.667 -8 -68 -8c-38 0 -67 8.83301 -87 26.5s-30 46.834 -30 87.501v600h130v-532z" />
    <glyph glyph-name="m" unicode="m" horiz-adv-x="805" 
d="M341 0l0.00195312 271.998c0 46 -4.33301 78.667 -13 98s-26.667 29 -54 29c-22.667 0 -41 -6.16699 -55 -18.5s-24.667 -28.166 -32 -47.499v-333h-130v500h101l15 -66h4c15.333 21.333 34.833 40 58.5 56s54.167 24 91.5 24c32 0 58.167 -6.5 78.5 -19.5
s36.166 -34.833 47.499 -65.5c15.333 26 35 46.667 59 62s53 23 87 23c28 0 51.833 -3.33301 71.5 -10s35.667 -18.167 48 -34.5s21.5 -38.166 27.5 -65.499s9 -62 9 -104v-300h-130v281c0 39.333 -4.16699 68.833 -12.5 88.5s-26.833 29.5 -55.5 29.5
c-23.333 0 -41.833 -6.33301 -55.5 -19s-23.834 -30 -30.501 -52v-328h-130z" />
    <glyph glyph-name="n" unicode="n" horiz-adv-x="545" 
d="M363 0l0.00195312 283.998c0 40.667 -5.83301 70 -17.5 88s-31.5 27 -59.5 27c-24.667 0 -45.5 -7.16699 -62.5 -21.5s-29.167 -32.166 -36.5 -53.499v-324h-130v500h103l15 -66h4c15.333 21.333 35.666 40 60.999 56s58 24 98 24c24.667 0 46.667 -3.33301 66 -10
s35.666 -17.667 48.999 -33s23.333 -36.166 30 -62.499s10 -58.833 10 -97.5v-311h-130z" />
    <glyph glyph-name="o" unicode="o" horiz-adv-x="537" 
d="M33 250c0 84.667 20.6689 149.834 62.002 195.501s99.333 68.5 174 68.5c40 0 74.667 -6.33301 104 -19s53.666 -30.5 72.999 -53.5s33.833 -50.833 43.5 -83.5s14.5 -68.667 14.5 -108c0 -84.667 -20.5 -149.834 -61.5 -195.501s-98.833 -68.5 -173.5 -68.5
c-40 0 -74.667 6.33301 -104 19s-53.833 30.5 -73.5 53.5s-34.334 50.833 -44.001 83.5s-14.5 68.667 -14.5 108zM167.002 250c0 -22 2 -42.333 6 -61s10 -35 18 -49s18.5 -24.833 31.5 -32.5s28.5 -11.5 46.5 -11.5c34 0 59.333 12.333 76 37s25 63.667 25 117
c0 46 -7.66699 83.167 -23 111.5s-41.333 42.5 -78 42.5c-32 0 -57 -12 -75 -36s-27 -63.333 -27 -118z" />
    <glyph glyph-name="p" unicode="p" horiz-adv-x="540" 
d="M57 500h94.999l15 -60h4c17.333 25.333 37.833 44 61.5 56s52.5 18 86.5 18c62.667 0 109.667 -19.833 141 -59.5s47 -103.5 47 -191.5c0 -42.667 -5 -81.167 -15 -115.5s-24.833 -63.5 -44.5 -87.5s-43.667 -42.333 -72 -55s-60.833 -19 -97.5 -19
c-20.667 0 -37.667 1.5 -51 4.5s-26.666 7.83301 -39.999 14.5v-205h-130v700zM279.999 404c-25.333 0 -45.166 -6.33398 -59.499 -19.001s-25.5 -31.667 -33.5 -57v-208c9.33301 -7.33301 19.5 -13.166 30.5 -17.499s25.5 -6.5 43.5 -6.5c37.333 0 65.333 13.167 84 39.5
s28 69.833 28 130.5c0 44 -7.33301 78 -22 102s-38.334 36 -71.001 36z" />
    <glyph glyph-name="q" unicode="q" horiz-adv-x="536" 
d="M480 -200l-130.001 -0.000976562v243h-4c-11.333 -17.333 -26.666 -31.166 -45.999 -41.499s-44.333 -15.5 -75 -15.5c-62 0 -109.5 21 -142.5 63s-49.5 105.667 -49.5 191c0 89.333 22.5 157 67.5 203s109.5 69 193.5 69c18 0 36 -0.833008 54 -2.5s35.167 -4 51.5 -7
s31.5 -6.33301 45.5 -10s25.667 -7.16699 35 -10.5v-682zM259.999 95.999c25.333 0 44.833 5.66699 58.5 17s24.167 28.333 31.5 51v225c-10 5.33301 -21.333 8.83301 -34 10.5s-27 2.5 -43 2.5c-35.333 0 -61.833 -13.333 -79.5 -40s-26.5 -65.667 -26.5 -117
c0 -48.667 8 -85.667 24 -111s39 -38 69 -38z" />
    <glyph glyph-name="r" unicode="r" horiz-adv-x="351" 
d="M333 378c-20.667 7.33301 -39.332 10.999 -55.999 10.999c-23.333 0 -42.833 -6.16699 -58.5 -18.5s-26.167 -28.166 -31.5 -47.499v-323h-130v500h101l15 -66h4c11.333 24.667 26.666 43.667 45.999 57s42 20 68 20c17.333 0 37 -3.66699 59 -11z" />
    <glyph glyph-name="s" unicode="s" horiz-adv-x="422" 
d="M264 138c0 13.333 -5.66602 24.001 -16.999 32.001s-25.333 15.333 -42 22s-35 13.5 -55 20.5s-38.333 16.667 -55 29s-30.667 28 -42 47s-17 43.5 -17 73.5c0 49.333 14.667 87 44 113s71.666 39 126.999 39c38 0 72.333 -4 103 -12s54.667 -17 72 -27l-29 -94
c-15.333 6 -34.666 12.333 -57.999 19s-47 10 -71 10c-38.667 0 -58 -15 -58 -45c0 -12 5.66699 -21.667 17 -29s25.333 -14.166 42 -20.499l55 -20.5c20 -7.33301 38.333 -16.833 55 -28.5s30.667 -26.834 42 -45.501s17 -42.667 17 -72
c0 -50.667 -16.167 -90.5 -48.5 -119.5s-80.833 -43.5 -145.5 -43.5c-35.333 0 -68.5 4.5 -99.5 13.5s-56.167 19.5 -75.5 31.5l36 97c15.333 -8.66699 35.666 -17.167 60.999 -25.5s51.333 -12.5 78 -12.5c19.333 0 34.833 3.66699 46.5 11s17.5 19.666 17.5 36.999z" />
    <glyph glyph-name="t" unicode="t" horiz-adv-x="349" 
d="M5 500h69v94l130 37v-131h122v-110h-122v-192c0 -34.667 3.5 -59.5 10.5 -74.5s20.167 -22.5 39.5 -22.5c13.333 0 24.833 1.33301 34.5 4s20.5 6.66699 32.5 12l23 -100c-18 -8.66699 -39 -16 -63 -22s-48.333 -9 -73 -9c-46 0 -79.833 11.833 -101.5 35.5
s-32.5 62.5 -32.5 116.5v252h-69v110z" />
    <glyph glyph-name="u" unicode="u" horiz-adv-x="538" 
d="M182 500l-0.00195312 -284.002c0 -40.667 4.83301 -70 14.5 -88s28.5 -27 56.5 -27c24.667 0 45.167 7.33301 61.5 22s28.5 32.667 36.5 54v323h130v-348c0 -27.333 1.33301 -54.166 4 -80.499s6.66699 -50.166 12 -71.499h-98l-23 74h-4
c-15.333 -25.333 -36.666 -46.333 -63.999 -63s-59.666 -25 -96.999 -25c-25.333 0 -48 3.33301 -68 10s-36.667 17.667 -50 33s-23.5 36 -30.5 62s-10.5 58.667 -10.5 98v311h130z" />
    <glyph glyph-name="v" unicode="v" horiz-adv-x="477" 
d="M230 238l17 -77h5l14 79l85 260h140l-209 -505h-79l-217 505h151z" />
    <glyph glyph-name="w" unicode="w" horiz-adv-x="721" 
d="M419 500l91 -256l18 -83h4l14 84l64 255h119l-154 -505h-96l-101 280l-13 63h-5l-12 -64l-96 -279h-99l-161 505h141l73 -251l12 -89h5l17 90l83 250h96z" />
    <glyph glyph-name="x" unicode="x" horiz-adv-x="525" 
d="M170 256l-150 244h155l65 -107l28 -70l30 70l68 107h141l-151 -240l161 -260h-151l-77 120l-30 74l-32 -74l-77 -120h-142z" />
    <glyph glyph-name="y" unicode="y" horiz-adv-x="478" 
d="M239 219l18.0039 -78h6l13 79l76 280h134l-152 -451c-12.667 -37.333 -24.834 -71.5 -36.501 -102.5s-24.5 -57.833 -38.5 -80.5s-29.5 -40.167 -46.5 -52.5s-37.167 -18.5 -60.5 -18.5c-34.667 0 -62.334 5.66699 -83.001 17l24 104c10 -4 20 -6 30 -6
c15.333 0 30.166 6.5 44.499 19.5s25.166 36.5 32.499 70.5l-209 500h156z" />
    <glyph glyph-name="z" unicode="z" horiz-adv-x="458" 
d="M31 110l197 237l51 43h-248v110h392v-110l-195 -241l-50 -39h245v-110h-392v110z" />
    <glyph glyph-name="braceleft" unicode="{" horiz-adv-x="371" 
d="M123 96c0 34 -7 57.3311 -21 69.998s-33.667 19 -59 19v100c25.333 0 45 6.83301 59 20.5s21 35.167 21 64.5v209c0 36 8.5 65.333 25.5 88s44.167 34 81.5 34h120v-110h-50c-18 0 -31.167 -4.66699 -39.5 -14s-12.5 -24.666 -12.5 -45.999v-195
c0 -29.333 -7 -51.5 -21 -66.5s-30.333 -24.167 -49 -27.5v-10c18 -2.66699 34.167 -12.667 48.5 -30s21.5 -40 21.5 -68v-194c0 -21.333 4 -36.666 12 -45.999s21.667 -14 41 -14h49v-110h-120c-34.667 0 -61.167 10.5 -79.5 31.5s-27.5 50.833 -27.5 89.5v205z" />
    <glyph glyph-name="bar" unicode="|" horiz-adv-x="227" 
d="M60 700h107v-830h-107v830z" />
    <glyph glyph-name="braceright" unicode="}" horiz-adv-x="371" 
d="M261 375c0 -34 7 -57.334 21 -70.001s33.667 -19 59 -19v-100c-25.333 0 -45 -6.83301 -59 -20.5s-21 -35.167 -21 -64.5v-209c0 -36 -8.83301 -65.333 -26.5 -88s-45.167 -34 -82.5 -34h-117v110h50c18 0 31.167 4.5 39.5 13.5s12.5 24.5 12.5 46.5v195
c0 29.333 7 51.5 21 66.5s30.333 24.167 49 27.5v10c-18 2.66699 -34.167 12.667 -48.5 30s-21.5 40 -21.5 68v194c0 20.667 -4 35.834 -12 45.501s-21.667 14.5 -41 14.5h-49v110h119c35.333 0 62 -10.5 80 -31.5s27 -50.833 27 -89.5v-205z" />
    <glyph glyph-name="asciitilde" unicode="~" horiz-adv-x="527" 
d="M28 378c31.333 25.333 59.499 42.833 84.499 52.5s48.167 14.5 69.5 14.5c19.333 0 37.333 -2.83301 54 -8.5s32.667 -11.667 48 -18l45.5 -18c15 -5.66699 30.167 -8.5 45.5 -8.5c12 0 24.333 2 37 6s26 11.667 40 23l47 -103c-24 -18 -46 -30.667 -66 -38
s-38.667 -11 -56 -11c-18.667 0 -36 3 -52 9s-31.5 12.667 -46.5 20s-30.167 14 -45.5 20s-31.666 9 -48.999 9c-16 0 -33.167 -3.5 -51.5 -10.5s-38.5 -19.833 -60.5 -38.5z" />
    <glyph glyph-name="uni00A0" unicode="&#xa0;" horiz-adv-x="253" 
 />
    <glyph glyph-name="exclamdown" unicode="&#xa1;" horiz-adv-x="293" 
d="M191 -200h-134v329l26 162h82l26 -162v-329zM44 435c0 23.333 7.33301 41.833 22 55.5s34 20.5 58 20.5c25.333 0 45.333 -6.83301 60 -20.5s22 -32.167 22 -55.5s-7.33301 -42 -22 -56s-34.667 -21 -60 -21c-24 0 -43.333 7 -58 21s-22 32.667 -22 56z" />
    <glyph glyph-name="cent" unicode="&#xa2;" 
d="M489 31c-11.333 -8.66699 -25.499 -16.168 -42.499 -22.501s-35.167 -11.166 -54.5 -14.499v-94h-121v89c-34 4.66699 -62.833 14.167 -86.5 28.5s-43 32.666 -58 54.999s-25.833 48.5 -32.5 78.5s-10 63 -10 99c0 74.667 16 134.167 48 178.5s78.333 71.5 139 81.5v90
h121v-90c18.667 -2.66699 35.334 -6.16699 50.001 -10.5s28 -9.5 40 -15.5l-30 -106c-10 4.66699 -20.667 8.33398 -32 11.001s-23 4.66699 -35 6v-291c15.333 2 29.166 5.33301 41.499 10s23.166 9.66699 32.499 15zM212.001 249.999c0 -34 6.33301 -63.833 19 -89.5
s34 -43.167 64 -52.5v286c-28 -7.33301 -48.833 -22.5 -62.5 -45.5s-20.5 -55.833 -20.5 -98.5z" />
    <glyph glyph-name="sterling" unicode="&#xa3;" 
d="M51 394l67.999 -0.00195312c-8.66699 16 -16.167 34 -22.5 54s-9.5 44 -9.5 72c0 32.667 5.5 61.167 16.5 85.5s26.333 44.5 46 60.5s43.167 28 70.5 36s57.333 12 90 12c40.667 0 77.667 -3.83301 111 -11.5s62 -17.167 86 -28.5l-42 -116
c-13.333 7.33301 -31.666 14.833 -54.999 22.5s-51.333 11.5 -84 11.5c-32 0 -57 -7.5 -75 -22.5s-27 -37.5 -27 -67.5c0 -22.667 4.16699 -42.167 12.5 -58.5s17.5 -32.833 27.5 -49.5h141v-107h-98c2 -11.333 3 -22.666 3 -33.999c0 -20 -3.33301 -41 -10 -63
s-17 -40 -31 -54l-43 -31v-5l67 15h230v-115h-472v115h2c20.667 0.666992 38.834 4.33398 54.501 11.001s28.667 15.5 39 26.5s18.166 23.833 23.499 38.5s8 30 8 46c0 18 -2 34.667 -6 50h-121v107z" />
    <glyph glyph-name="currency" unicode="&#xa4;" 
d="M81 622l78.001 -77.001l19 -37c13.333 10 29.166 17.5 47.499 22.5s37.5 7.5 57.5 7.5c19.333 0 38.5 -2.5 57.5 -7.5s34.833 -12.167 47.5 -21.5l20 36l78 77l77 -80l-77 -78l-37 -16c9.33301 -14 16 -29.833 20 -47.5s6 -36.167 6 -55.5
c0 -20 -2.16699 -38.833 -6.5 -56.5s-10.833 -32.5 -19.5 -44.5l37 -16l77 -78l-77 -80l-78 77l-18 37c-12.667 -9.33301 -28.834 -16.666 -48.501 -21.999s-39.167 -8 -58.5 -8c-20 0 -39.167 2.5 -57.5 7.5s-34.166 12.167 -47.499 21.5l-19 -36l-78 -77l-76 80l77 78
l36 17c-8 14 -14.333 29.167 -19 45.5s-7 34.5 -7 54.5c0 19.333 2.5 37.333 7.5 54s11.833 32.667 20.5 48l-38 17l-77 78zM201.001 345.999c0 -25.333 7.66699 -46 23 -62s35.333 -24 60 -24s44.5 8 59.5 24s22.5 36.667 22.5 62c0 24 -7.5 44.333 -22.5 61
s-34.833 25 -59.5 25s-44.667 -8.33301 -60 -25s-23 -37 -23 -61z" />
    <glyph glyph-name="yen" unicode="&#xa5;" 
d="M85 337h90l-189 363h163l128 -263l14 -74h5l15 76l124 261h147l-190 -363h91v-80h-130v-58h130v-80h-130v-119h-137v119h-131v80h131v58h-131v80z" />
    <glyph glyph-name="brokenbar" unicode="&#xa6;" horiz-adv-x="227" 
d="M60 213h107v-343h-107v343zM167 357h-107v343h107v-343z" />
    <glyph glyph-name="section" unicode="&#xa7;" horiz-adv-x="530" 
d="M49 353c0 20.667 4.99512 40.833 14.9951 60.5s23.667 37.167 41 52.5l41 14c-17.333 10.667 -31.666 24.167 -42.999 40.5s-17 38.166 -17 65.499c0 37.333 14.5 68 43.5 92s72.833 36 131.5 36c39.333 0 76 -3.33301 110 -10s60 -14.334 78 -23.001l-32 -105
c-15.333 7.33301 -35.666 13.833 -60.999 19.5s-49.666 8.5 -72.999 8.5c-24.667 0 -42 -3.66699 -52 -11s-15 -16.666 -15 -27.999c0 -12 6.5 -21.333 19.5 -28s29.333 -12.667 49 -18l64 -18c23 -6.66699 44.333 -16 64 -28s36 -28 49 -48s19.5 -46 19.5 -78
c0 -20.667 -4.83301 -40.667 -14.5 -60s-23.167 -36.666 -40.5 -51.999l-45 -14c18 -10.667 33 -24.334 45 -41.001s18 -38.667 18 -66c0 -42 -16.333 -73.833 -49 -95.5s-76 -32.5 -130 -32.5c-45.333 0 -83.166 4.5 -113.499 13.5s-55.166 18.833 -74.499 29.5l34 100
c15.333 -7.33301 34 -14.666 56 -21.999s47.667 -11 77 -11c24.667 0 42.5 3.16699 53.5 9.5s16.5 16.5 16.5 30.5c0 12.667 -6.5 22.5 -19.5 29.5s-29.333 13.333 -49 19l-64 18.5c-23 6.66699 -44.333 15.834 -64 27.501s-36 27.167 -49 46.5s-19.5 44.666 -19.5 75.999z
M350.995 344.999c0 12 -2.83301 22.001 -8.5 30.001s-13.834 15.167 -24.501 21.5s-23.667 12.166 -39 17.499s-32.666 11 -51.999 17c-13.333 -8 -24.666 -18.5 -33.999 -31.5s-14 -27.833 -14 -44.5c0 -23.333 10.667 -40.666 32 -51.999s50.666 -22.333 87.999 -33
c14.667 8 27 18.667 37 32s15 27.666 15 42.999z" />
    <glyph glyph-name="dieresis" unicode="&#xa8;" horiz-adv-x="479" 
d="M60 651c0 21.333 6.5 38.333 19.5 51s30.167 19 51.5 19s38.166 -6.33301 50.499 -19s18.5 -29.667 18.5 -51c0 -20 -6.16699 -36.333 -18.5 -49s-29.166 -19 -50.499 -19s-38.5 6.33301 -51.5 19s-19.5 29 -19.5 49zM279 651c0 21.333 6.16699 38.333 18.5 51
s29.166 19 50.499 19s38.5 -6.33301 51.5 -19s19.5 -29.667 19.5 -51c0 -20 -6.5 -36.333 -19.5 -49s-30.167 -19 -51.5 -19s-38.166 6.33301 -50.499 19s-18.5 29 -18.5 49z" />
    <glyph glyph-name="copyright" unicode="&#xa9;" horiz-adv-x="833" 
d="M55 290c0 55.333 9.33301 105.166 28 149.499s44.167 82.166 76.5 113.499s70.5 55.5 114.5 72.5s91.333 25.5 142 25.5s97.834 -8.5 141.501 -25.5s81.834 -41.167 114.501 -72.5s58.334 -69.166 77.001 -113.499s28 -94.166 28 -149.499
s-9.33301 -105.166 -28 -149.499s-44.334 -82.166 -77.001 -113.499s-70.834 -55.5 -114.501 -72.5s-90.834 -25.5 -141.501 -25.5c-55.333 0 -105.333 8.5 -150 25.5s-82.667 41.167 -114 72.5s-55.333 69.166 -72 113.499s-25 94.166 -25 149.499zM153 290
c0 -41.333 6.5 -78.666 19.5 -111.999s31.333 -61.5 55 -84.5s51.5 -40.667 83.5 -53s67 -18.5 105 -18.5s73.167 6.16699 105.5 18.5s60.333 30 84 53s42 51.167 55 84.5s19.5 70.666 19.5 111.999s-6.5 78.666 -19.5 111.999s-31.333 61.5 -55 84.5s-51.667 40.667 -84 53
s-67.5 18.5 -105.5 18.5s-73 -6.16699 -105 -18.5s-59.833 -30 -83.5 -53s-42 -51.167 -55 -84.5s-19.5 -70.666 -19.5 -111.999zM541 131c-14.667 -9.33301 -33.1689 -16.832 -55.502 -22.499s-46.166 -8.5 -71.499 -8.5c-54 0 -95.167 17 -123.5 51
s-42.5 80.333 -42.5 139c0 60.667 15.167 107.5 45.5 140.5s70.5 49.5 120.5 49.5c24.667 0 46.5 -2.83301 65.5 -8.5s37.167 -13.5 54.5 -23.5l-32 -87c-12 6 -22.833 10 -32.5 12s-19.167 3 -28.5 3c-19.333 0 -34.666 -6.33301 -45.999 -19s-17 -35 -17 -67
c0 -57.333 23.333 -86 70 -86c12.667 0 24 1.16699 34 3.5s20 6.16602 30 11.499z" />
    <glyph glyph-name="ordfeminine" unicode="&#xaa;" horiz-adv-x="420" 
d="M61 674c17.333 9.33301 41.834 17.3311 73.501 23.998s67.167 10 106.5 10c50.667 0 85.334 -9.16699 104.001 -27.5s28 -46.5 28 -84.5c0 -40 -1 -78.667 -3 -116s0.666992 -70.666 8 -99.999h-101l-13 46h-4c-8.66699 -11.333 -21 -22.5 -37 -33.5
s-38.333 -16.5 -67 -16.5c-34.667 0 -62.334 9.16699 -83.001 27.5s-31 42.166 -31 71.499c0 22 5.83301 40.333 17.5 55s27.334 26.334 47.001 35.001s42.667 14.5 69 17.5s54.166 3.83301 83.499 2.5c1.33301 17.333 -1 29.833 -7 37.5s-20.667 11.5 -44 11.5
c-26.667 0 -50.834 -2.66699 -72.501 -8s-39.167 -10.666 -52.5 -15.999zM194.001 453.998c21.333 0 36.333 3.83398 45 11.501s15.334 15.5 20.001 23.5v35c-28.667 3.33301 -52.834 2.66602 -72.501 -2.00098s-29.5 -16 -29.5 -34c0 -10.667 3.5 -19 10.5 -25
s15.833 -9 26.5 -9z" />
    <glyph glyph-name="guillemotleft" unicode="&#xab;" horiz-adv-x="488" 
d="M223 261l154 216l71 -56l-81 -122l-46 -39l46 -35l87 -121l-71 -56zM29 259l160 230l79 -62l-87 -126l-48 -41l48 -36l93 -124l-79 -62z" />
    <glyph glyph-name="logicalnot" unicode="&#xac;" horiz-adv-x="527" 
d="M45 412h442v-226h-120v114h-322v112z" />
    <glyph glyph-name="uni00AD" unicode="&#xad;" horiz-adv-x="360" 
d="M54 345h251v-115h-251v115z" />
    <glyph glyph-name="registered" unicode="&#xae;" horiz-adv-x="690" 
d="M62 451c0 44.667 7.50195 84.5 22.502 119.5s35.5 64.5 61.5 88.5s56.167 42.333 90.5 55s70.5 19 108.5 19c39.333 0 76.166 -6.33301 110.499 -19s64.166 -31 89.499 -55s45.333 -53.5 60 -88.5s22 -74.833 22 -119.5c0 -45.333 -7.5 -85.5 -22.5 -120.5
s-35.333 -64.5 -61 -88.5s-55.667 -42.167 -90 -54.5s-70.5 -18.5 -108.5 -18.5c-39.333 0 -76.166 6.16699 -110.499 18.5s-64.333 30.5 -90 54.5s-45.834 53.5 -60.501 88.5s-22 75.167 -22 120.5zM156.002 451c0 -32 5.16699 -60.165 15.5 -84.498
s24.166 -44.5 41.499 -60.5s37.333 -28 60 -36s46.667 -12 72 -12c26.667 0 51.5 3.83301 74.5 11.5s42.833 19.5 59.5 35.5s29.834 36.167 39.501 60.5s14.5 52.833 14.5 85.5c0 32 -5 60 -15 84s-23.5 44 -40.5 60s-37 28 -60 36s-47.167 12 -72.5 12
c-28 0 -53.667 -4.33301 -77 -13s-43.333 -21.334 -60 -38.001s-29.5 -36.834 -38.5 -60.501s-13.5 -50.5 -13.5 -80.5zM242.002 581.002c10.667 3.33301 25.668 5.83203 45.001 7.49902s37.666 2.5 54.999 2.5c28 0 52 -5.83301 72 -17.5s30 -31.834 30 -60.501
c0 -21.333 -6.83301 -37.666 -20.5 -48.999s-30.5 -17.666 -50.5 -18.999l28 -14l65 -109h-61l-63 104l-48 15v-119h-52v259zM331.003 546.001c-7.33301 0 -14.333 -0.166992 -21 -0.5s-12 -1.5 -16 -3.5v-71h34c19.333 0 34.333 3 45 9s16 16.333 16 31
c0 23.333 -19.333 35 -58 35z" />
    <glyph glyph-name="macron" unicode="&#xaf;" horiz-adv-x="443" 
d="M60 658h323v-92h-323v92z" />
    <glyph glyph-name="degree" unicode="&#xb0;" horiz-adv-x="437" 
d="M60 548c0 24.667 4.33301 47.166 13 67.499s20.5 37.833 35.5 52.5s32.333 26 52 34s40.834 12 63.501 12s44.167 -3.66699 64.5 -11s38.166 -18.166 53.499 -32.499s27.333 -31.833 36 -52.5s13 -44 13 -70s-4.33301 -49.167 -13 -69.5s-20.667 -37.5 -36 -51.5
s-33.166 -24.667 -53.499 -32s-41.833 -11 -64.5 -11s-43.834 3.66699 -63.501 11s-37 18 -52 32s-26.833 31.167 -35.5 51.5s-13 43.5 -13 69.5zM160 547.999c0 -21.333 6.33301 -38.166 19 -50.499s28 -18.5 46 -18.5s33.667 6.16699 47 18.5s20 29.166 20 50.499
s-6.66699 38.5 -20 51.5s-29 19.5 -47 19.5s-33.333 -6.5 -46 -19.5s-19 -30.167 -19 -51.5z" />
    <glyph glyph-name="plusminus" unicode="&#xb1;" horiz-adv-x="527" 
d="M43 518h162v164h117v-164h163v-112h-163v-107h-117v107h-162v112zM43 253h442v-112h-442v112z" />
    <glyph glyph-name="twosuperior" unicode="&#xb2;" horiz-adv-x="412" 
d="M348 680c0 -39.333 -9.99707 -72.998 -29.9971 -100.998s-44 -54.667 -72 -80l-47 -25v-4l59 11h106v-101h-313v71l58 42c21.333 16 41.166 33.167 59.499 51.5s33.666 37.166 45.999 56.499s18.5 37.666 18.5 54.999c0 32.667 -18.667 49 -56 49
c-18 0 -35 -2.83301 -51 -8.5s-30 -12.167 -42 -19.5l-34 90c23.333 14 48.166 24.167 74.499 30.5s51.5 9.5 75.5 9.5c47.333 0 83.833 -10.833 109.5 -32.5s38.5 -53.167 38.5 -94.5z" />
    <glyph glyph-name="threesuperior" unicode="&#xb3;" horiz-adv-x="412" 
d="M169 468c29.333 0 50.167 4.66699 62.5 14s18.833 21.666 19.5 36.999c-0.666992 15.333 -7.33398 27.333 -20.001 36s-36 13 -70 13h-42v38l73 80l43 25l-58 -6h-115v95h283v-62l-87 -92l-34 -18v-5l30 3c34.667 -1.33301 61.834 -11.833 81.501 -31.5
s29.834 -47.5 30.501 -83.5c-0.666992 -24 -5.83398 -44.667 -15.501 -62s-22.667 -31.666 -39 -42.999s-35.5 -19.666 -57.5 -24.999s-44.667 -8 -68 -8c-26 0 -50.167 2.16699 -72.5 6.5s-41.5 10.166 -57.5 17.499l23 90c27.333 -12.667 57.333 -19 90 -19z" />
    <glyph glyph-name="acute" unicode="&#xb4;" horiz-adv-x="305" 
d="M113 720h132v-30l-111 -124h-74z" />
    <glyph glyph-name="mu" unicode="&#xb5;" horiz-adv-x="569" 
d="M182 500l-0.00195312 -272.998c0 -42.667 6.83301 -74.834 20.5 -96.501s37.5 -32.5 71.5 -32.5c30.667 0 55.334 7.66699 74.001 23s32 36.666 40 63.999v315h130v-337c0 -27.333 0.833008 -54.833 2.5 -82.5s5.83398 -54.5 12.501 -80.5h-96l-32 74h-4
c-11.333 -23.333 -28 -43.5 -50 -60.5s-50.667 -25.5 -86 -25.5c-26 0 -46 4.66699 -60 14s-27 21.333 -39 36h-5l21 -105v-133h-130v700h130z" />
    <glyph glyph-name="mu" unicode="&#x3bc;" horiz-adv-x="569" 
d="M182 500l-0.00195312 -272.998c0 -42.667 6.83301 -74.834 20.5 -96.501s37.5 -32.5 71.5 -32.5c30.667 0 55.334 7.66699 74.001 23s32 36.666 40 63.999v315h130v-337c0 -27.333 0.833008 -54.833 2.5 -82.5s5.83398 -54.5 12.501 -80.5h-96l-32 74h-4
c-11.333 -23.333 -28 -43.5 -50 -60.5s-50.667 -25.5 -86 -25.5c-26 0 -46 4.66699 -60 14s-27 21.333 -39 36h-5l21 -105v-133h-130v700h130z" />
    <glyph glyph-name="paragraph" unicode="&#xb6;" horiz-adv-x="529" 
d="M362 700h107v-830h-107v830zM178 294c-22 0 -42.332 5.50098 -60.999 16.501s-34.834 26 -48.501 45s-24.167 40.667 -31.5 65s-11 50.166 -11 77.499c0 26.667 4.33301 52.167 13 76.5s21 45.833 37 64.5s35.333 33.5 58 44.5s48 16.5 76 16.5h74v-830h-106v424z" />
    <glyph glyph-name="periodcentered" unicode="&#xb7;" horiz-adv-x="253" 
d="M45 316c0 23.333 7.33301 41.833 22 55.5s34 20.5 58 20.5c25.333 0 45.333 -6.83301 60 -20.5s22 -32.167 22 -55.5s-7.33301 -42 -22 -56s-34.667 -21 -60 -21c-24 0 -43.333 7 -58 21s-22 32.667 -22 56z" />
    <glyph glyph-name="cedilla" unicode="&#xb8;" horiz-adv-x="332" 
d="M208 0l-23.999 -43.001c27.333 -2.66699 48.833 -9.83398 64.5 -21.501s23.5 -29.5 23.5 -53.5c0 -15.333 -3.83301 -28.666 -11.5 -39.999s-18.167 -20.833 -31.5 -28.5s-29 -13.5 -47 -17.5s-37.333 -6 -58 -6s-42 2 -64 6l9 48c4.66699 -0.666992 9 -1 13 -1h11
c25.333 0 41.666 3 48.999 9s11 13 11 21c0 18.667 -28.667 29.334 -86 32.001l57 95h84z" />
    <glyph glyph-name="onesuperior" unicode="&#xb9;" horiz-adv-x="412" 
d="M72 480h97v164l10 46l-30 -32l-59 -39l-49 77l158 111h85v-327h88v-100h-300v100z" />
    <glyph glyph-name="ordmasculine" unicode="&#xba;" horiz-adv-x="419" 
d="M34 542c0 30 4.33301 55.667 13 77s20.667 39 36 53s33.833 24.167 55.5 30.5s45.167 9.5 70.5 9.5s48.666 -3 69.999 -9s39.833 -15.667 55.5 -29s27.834 -30.833 36.501 -52.5s13.334 -48.167 14.001 -79.5c-0.666992 -31.333 -5.33398 -57.833 -14.001 -79.5
s-20.834 -39.167 -36.501 -52.5s-34.167 -23 -55.5 -29s-44.666 -9 -69.999 -9s-48.833 3 -70.5 9s-40.167 15.667 -55.5 29s-27.333 30.833 -36 52.5s-13 48.167 -13 79.5zM150 542c0 -57.333 19.667 -86 59 -86c20.667 0 35.5 6.16699 44.5 18.5s13.833 34.833 14.5 67.5
c-0.666992 32 -5.5 54.333 -14.5 67s-23.833 19 -44.5 19s-35.667 -6.33301 -45 -19s-14 -35 -14 -67z" />
    <glyph glyph-name="guillemotright" unicode="&#xbb;" horiz-adv-x="488" 
d="M264 266l-153 -216l-72 56l82 122l45 39l-45 35l-87 121l70 56zM459 268l-160 -230l-79 62l87 126l48 41l-48 36l-93 124l79 62z" />
    <glyph glyph-name="onequarter" unicode="&#xbc;" horiz-adv-x="880" 
d="M609 715l85 -50l-430 -679l-86 53zM833 78h-76v-78h-101v78h-207v67l218 283h90v-261h76v-89zM656 253l6 53h-5l-22 -49l-48 -66l-36 -32l52 8h53v86zM165 544l11 46l-31 -32l-59 -39l-49 77l158 111h85v-427h-115v264z" />
    <glyph glyph-name="onehalf" unicode="&#xbd;" horiz-adv-x="903" 
d="M609 715l85 -50l-430 -679l-86 53zM841 300c0 -39.333 -9.99707 -72.998 -29.9971 -100.998s-44 -54.667 -72 -80l-47 -25v-4l59 11h106v-101h-313v71l58 42c21.333 16 41.166 33.167 59.499 51.5s33.666 37.166 45.999 56.499s18.5 37.666 18.5 54.999
c0 32.667 -18.667 49 -56 49c-18 0 -35 -2.83301 -51 -8.5s-30 -12.167 -42 -19.5l-34 90c23.333 14 48.166 24.167 74.499 30.5s51.5 9.5 75.5 9.5c47.333 0 83.833 -10.833 109.5 -32.5s38.5 -53.167 38.5 -94.5zM165.003 544.002l11 46l-31 -32l-59 -39l-49 77l158 111
h85v-427h-115v264z" />
    <glyph glyph-name="threequarters" unicode="&#xbe;" horiz-adv-x="905" 
d="M634 715l85 -50l-430 -679l-86 53zM858 78h-76v-78h-101v78h-207v67l218 283h90v-261h76v-89zM681 253l6 53h-5l-22 -49l-48 -66l-36 -32l52 8h53v86zM161 368c29.333 0 50.167 4.66699 62.5 14s18.833 21.666 19.5 36.999c-0.666992 15.333 -7.33398 27.333 -20.001 36
s-36 13 -70 13h-42v38l73 80l43 25l-58 -6h-115v95h283v-62l-87 -92l-34 -18v-5l30 3c34.667 -1.33301 61.834 -11.833 81.501 -31.5s29.834 -47.5 30.501 -83.5c-0.666992 -24 -5.83398 -44.667 -15.501 -62s-22.667 -31.666 -39 -42.999s-35.5 -19.666 -57.5 -24.999
s-44.667 -8 -68 -8c-26 0 -50.167 2.16699 -72.5 6.5s-41.5 10.166 -57.5 17.499l23 90c27.333 -12.667 57.333 -19 90 -19z" />
    <glyph glyph-name="questiondown" unicode="&#xbf;" horiz-adv-x="454" 
d="M317 293c3.33301 -34.667 1.83398 -64.168 -4.49902 -88.501s-15.5 -45.333 -27.5 -63s-25.333 -32.834 -40 -45.501l-41.5 -37c-13 -12 -24 -24.5 -33 -37.5s-13.5 -28.5 -13.5 -46.5c0 -23.333 6.66699 -42.166 20 -56.499s36.666 -21.5 69.999 -21.5
c10.667 0 22 1.16699 34 3.5s24 5.66602 36 9.99902s23.5 9.33301 34.5 15s20.833 11.834 29.5 18.501l49 -96c-25.333 -17.333 -54.333 -31.666 -87 -42.999s-72.334 -17 -119.001 -17c-62.667 0 -111.834 15 -147.501 45s-53.5 71 -53.5 123c0 34 4.5 62 13.5 84
s20.333 40.833 34 56.5s28.334 29.5 44.001 41.5s30.334 24.833 44.001 38.5s25 29.5 34 47.5s13.5 41 13.5 69h111zM178.001 434.999c0 23.333 7.33301 41.833 22 55.5s34 20.5 58 20.5c25.333 0 45.333 -6.83301 60 -20.5s22 -32.167 22 -55.5s-7.33301 -42 -22 -56
s-34.667 -21 -60 -21c-24 0 -43.333 7 -58 21s-22 32.667 -22 56z" />
    <glyph glyph-name="Agrave" unicode="&#xc0;" horiz-adv-x="605" 
d="M405 155h-215l-53 -155h-137l252 705h101l252 -705h-144zM225 265h150l-52 156l-21 110h-5l-21 -111zM399 752h-105l-158 88v30h159z" />
    <glyph glyph-name="Aacute" unicode="&#xc1;" horiz-adv-x="605" 
d="M405 155h-215l-53 -155h-137l252 705h101l252 -705h-144zM225 265h150l-52 156l-21 110h-5l-21 -111zM309 870h159v-30l-160 -88h-103z" />
    <glyph glyph-name="Acircumflex" unicode="&#xc2;" horiz-adv-x="605" 
d="M405 155h-215l-53 -155h-137l252 705h101l252 -705h-144zM225 265h150l-52 156l-21 110h-5l-21 -111zM257 870h96l127 -93v-39h-99l-57 41l-20 34l-21 -33l-62 -42h-97v40z" />
    <glyph glyph-name="Atilde" unicode="&#xc3;" horiz-adv-x="605" 
d="M405 155h-215l-53 -155h-137l252 705h101l252 -705h-144zM225 265h150l-52 156l-21 110h-5l-21 -111zM113 800c21.333 23.333 41.833 39.332 61.5 47.999s39.167 13 58.5 13c14.667 0 29.334 -1.83301 44.001 -5.5s28.834 -7.66699 42.501 -12s27.167 -8.33301 40.5 -12
s26 -5.5 38 -5.5c10.667 0 21 1.66699 31 5s19.667 9.66602 29 18.999l25 -67c-18.667 -17.333 -36.834 -29.5 -54.501 -36.5s-34.834 -10.5 -51.501 -10.5c-15.333 0 -30 1.83301 -44 5.5s-27.833 7.83398 -41.5 12.501s-27.167 8.83398 -40.5 12.501s-26.333 5.5 -39 5.5
s-25.167 -2.5 -37.5 -7.5s-24.833 -14.167 -37.5 -27.5z" />
    <glyph glyph-name="Adieresis" unicode="&#xc4;" horiz-adv-x="605" 
d="M405 155h-215l-53 -155h-137l252 705h101l252 -705h-144zM225 265h150l-52 156l-21 110h-5l-21 -111zM124 798c0 17.333 6 31.333 18 42s31.333 16 58 16c26 0 45 -5.33301 57 -16s18 -24.667 18 -42s-6 -31.166 -18 -41.499s-31 -15.5 -57 -15.5
c-26.667 0 -46 5.16699 -58 15.5s-18 24.166 -18 41.499zM338 798c0 17.333 6 31.333 18 42s31 16 57 16c26.667 0 46 -5.33301 58 -16s18 -24.667 18 -42s-6 -31.166 -18 -41.499s-31.333 -15.5 -58 -15.5c-26 0 -45 5.16699 -57 15.5s-18 24.166 -18 41.499z" />
    <glyph glyph-name="Aring" unicode="&#xc5;" horiz-adv-x="605" 
d="M175 771c0 12 2.00098 23.499 6.00098 34.499s10.833 20.667 20.5 29s22.667 14.833 39 19.5s37.166 7 62.499 7c46.667 0 79.667 -8 99 -24s29 -38 29 -66c0 -19.333 -5.33301 -36.166 -16 -50.499s-29.667 -24.833 -57 -31.5l247 -689h-144l-56 155h-215l-53 -155h-137
l246 689c-26 6 -44.333 16.333 -55 31s-16 31.667 -16 51zM225.001 264.999h150l-52 156l-21 110h-5l-21 -111zM259.001 770.999c0 -20.667 14.666 -30.999 43.999 -30.999c16.667 0 28.334 2.66699 35.001 8s10 13 10 23c0 11.333 -3.5 19.666 -10.5 24.999
s-18.5 8 -34.5 8c-29.333 0 -44 -11 -44 -33z" />
    <glyph glyph-name="AE" unicode="&#xc6;" horiz-adv-x="862" 
d="M394 532l-36 -103l-84 -148h126v251h-6zM400 170h-186l-99 -170h-144l424 700h419v-122h-277v-163h252v-122h-252v-171h282v-122h-419v170z" />
    <glyph glyph-name="Ccedilla" unicode="&#xc7;" horiz-adv-x="559" 
d="M534 29c-17.333 -12.667 -39.1641 -22.3311 -65.4971 -28.998s-54.166 -11 -83.499 -13l-16 -30c27.333 -2.66699 48.833 -9.83398 64.5 -21.501s23.5 -29.5 23.5 -53.5c0 -15.333 -3.83301 -28.666 -11.5 -39.999s-18.167 -20.833 -31.5 -28.5s-29 -13.5 -47 -17.5
s-37.333 -6 -58 -6s-42 2 -64 6l9 48c4.66699 -0.666992 9 -1 13 -1h11c25.333 0 41.666 3 48.999 9s11 13 11 21c0 18.667 -28.667 29.334 -86 32.001l50 84c-36.667 4.66699 -71 14.834 -103 30.501s-60 38.167 -84 67.5s-42.833 65.666 -56.5 108.999
s-20.5 94.666 -20.5 153.999c0 68.667 9.5 126.167 28.5 172.5s43.667 83.666 74 111.999s64.166 48.666 101.499 60.999s74.666 18.5 111.999 18.5c40 0 73.833 -2.66699 101.5 -8s50.5 -11.666 68.5 -18.999l-27 -116c-15.333 7.33301 -33.5 12.666 -54.5 15.999
s-46.5 5 -76.5 5c-55.333 0 -99.833 -19.667 -133.5 -59s-50.5 -100.333 -50.5 -183c0 -36 4 -68.833 12 -98.5s20.167 -55 36.5 -76s36.666 -37.333 60.999 -49s52.5 -17.5 84.5 -17.5c30 0 55.333 3 76 9s38.667 13.667 54 23z" />
    <glyph glyph-name="Egrave" unicode="&#xc8;" horiz-adv-x="522" 
d="M60 700h415v-122h-278v-163h253v-122h-253v-171h283v-122h-420v700zM352 752h-105l-158 88v30h159z" />
    <glyph glyph-name="Eacute" unicode="&#xc9;" horiz-adv-x="522" 
d="M60 700h415v-122h-278v-163h253v-122h-253v-171h283v-122h-420v700zM293 870h159v-30l-160 -88h-103z" />
    <glyph glyph-name="Ecircumflex" unicode="&#xca;" horiz-adv-x="522" 
d="M60 700h415v-122h-278v-163h253v-122h-253v-171h283v-122h-420v700zM219 870h96l127 -93v-39h-99l-57 41l-20 34l-21 -33l-62 -42h-97v40z" />
    <glyph glyph-name="Edieresis" unicode="&#xcb;" horiz-adv-x="522" 
d="M60 700h415v-122h-278v-163h253v-122h-253v-171h283v-122h-420v700zM84 798c0 17.333 6 31.333 18 42s31.333 16 58 16c26 0 45 -5.33301 57 -16s18 -24.667 18 -42s-6 -31.166 -18 -41.499s-31 -15.5 -57 -15.5c-26.667 0 -46 5.16699 -58 15.5s-18 24.166 -18 41.499z
M298 798c0 17.333 6 31.333 18 42s31 16 57 16c26.667 0 46 -5.33301 58 -16s18 -24.667 18 -42s-6 -31.166 -18 -41.499s-31.333 -15.5 -58 -15.5c-26 0 -45 5.16699 -57 15.5s-18 24.166 -18 41.499z" />
    <glyph glyph-name="Igrave" unicode="&#xcc;" horiz-adv-x="285" 
d="M74 700h137v-700h-137v700zM241 752h-105l-158 88v30h159z" />
    <glyph glyph-name="Iacute" unicode="&#xcd;" horiz-adv-x="285" 
d="M74 700h137v-700h-137v700zM153 870h159v-30l-160 -88h-103z" />
    <glyph glyph-name="Icircumflex" unicode="&#xce;" horiz-adv-x="285" 
d="M74 700h137v-700h-137v700zM97 870h96l127 -93v-39h-99l-57 41l-20 34l-21 -33l-62 -42h-97v40z" />
    <glyph glyph-name="Idieresis" unicode="&#xcf;" horiz-adv-x="285" 
d="M74 700h137v-700h-137v700zM-38 798c0 17.333 6 31.333 18 42s31.333 16 58 16c26 0 45 -5.33301 57 -16s18 -24.667 18 -42s-6 -31.166 -18 -41.499s-31 -15.5 -57 -15.5c-26.667 0 -46 5.16699 -58 15.5s-18 24.166 -18 41.499zM176 798c0 17.333 6 31.333 18 42
s31 16 57 16c26.667 0 46 -5.33301 58 -16s18 -24.667 18 -42s-6 -31.166 -18 -41.499s-31.333 -15.5 -58 -15.5c-26 0 -45 5.16699 -57 15.5s-18 24.166 -18 41.499z" />
    <glyph glyph-name="Eth" unicode="&#xd0;" horiz-adv-x="669" 
d="M-6 401l87.999 -0.00195312v299c14 2 29.833 3.66699 47.5 5s35.834 2.33301 54.501 3s36.834 1.16699 54.501 1.5s33.5 0.5 47.5 0.5c62 0 115 -8.66699 159 -26s79.667 -41.666 107 -72.999s47.333 -68.666 60 -111.999s19 -91 19 -143c0 -47.333 -6 -93 -18 -137
s-32 -83 -60 -117s-64.833 -61.333 -110.5 -82s-102.167 -31 -169.5 -31c-10.667 0 -24.834 0.333008 -42.501 1s-36 1.5 -55 2.5l-54.5 3c-17.333 1 -30.333 2.16699 -39 3.5v322h-88v80zM296.999 587.998c-14.667 0 -29.501 -0.335938 -44.501 -1.00293
s-26.167 -1.66699 -33.5 -3v-183h140v-80h-140v-207c2.66699 -0.666992 7.16699 -1.16699 13.5 -1.5s13.166 -0.666016 20.499 -0.999023s14.333 -0.5 21 -0.5h15c38.667 0 70.834 6.83301 96.501 20.5s46 31.834 61 54.501s25.5 48.834 31.5 78.501s9 60.167 9 91.5
c0 27.333 -2.66699 54.833 -8 82.5s-15.166 52.5 -29.499 74.5s-33.833 40 -58.5 54s-56 21 -94 21z" />
    <glyph glyph-name="Ntilde" unicode="&#xd1;" horiz-adv-x="657" 
d="M234 365l-55 110h-5l16 -110v-365h-130v705h100l265 -373l53 -107h5l-16 107v368h130v-705h-100zM138 800c21.333 23.333 41.833 39.332 61.5 47.999s39.167 13 58.5 13c14.667 0 29.334 -1.83301 44.001 -5.5s28.834 -7.66699 42.501 -12s27.167 -8.33301 40.5 -12
s26 -5.5 38 -5.5c10.667 0 21 1.66699 31 5s19.667 9.66602 29 18.999l25 -67c-18.667 -17.333 -36.834 -29.5 -54.501 -36.5s-34.834 -10.5 -51.501 -10.5c-15.333 0 -30 1.83301 -44 5.5s-27.833 7.83398 -41.5 12.501s-27.167 8.83398 -40.5 12.501s-26.333 5.5 -39 5.5
s-25.167 -2.5 -37.5 -7.5s-24.833 -14.167 -37.5 -27.5z" />
    <glyph glyph-name="Ograve" unicode="&#xd2;" horiz-adv-x="670" 
d="M38 350c0 116.667 25.668 206.5 77.001 269.5s124.666 94.5 219.999 94.5c50 0 93.667 -8.66699 131 -26s68.333 -42 93 -74s43 -70.333 55 -115s18 -94.334 18 -149.001c0 -116.667 -25.833 -206.5 -77.5 -269.5s-124.834 -94.5 -219.501 -94.5
c-50.667 0 -94.667 8.66699 -132 26s-68.166 42 -92.499 74s-42.5 70.333 -54.5 115s-18 94.334 -18 149.001zM182.001 350c0 -35.333 3.00098 -67.833 9.00098 -97.5s15.167 -55.167 27.5 -76.5s28.166 -38 47.499 -50s42.333 -18 69 -18c48.667 0 86.334 19 113.001 57
s40 99.667 40 185c0 34 -2.83301 65.667 -8.5 95s-14.5 55 -26.5 77s-27.667 39.167 -47 51.5s-43 18.5 -71 18.5c-48.667 0 -86.334 -19.5 -113.001 -58.5s-40 -100.167 -40 -183.5zM412.002 752h-105l-158 88v30h159z" />
    <glyph glyph-name="Oacute" unicode="&#xd3;" horiz-adv-x="670" 
d="M38 350c0 116.667 25.668 206.5 77.001 269.5s124.666 94.5 219.999 94.5c50 0 93.667 -8.66699 131 -26s68.333 -42 93 -74s43 -70.333 55 -115s18 -94.334 18 -149.001c0 -116.667 -25.833 -206.5 -77.5 -269.5s-124.834 -94.5 -219.501 -94.5
c-50.667 0 -94.667 8.66699 -132 26s-68.166 42 -92.499 74s-42.5 70.333 -54.5 115s-18 94.334 -18 149.001zM182.001 350c0 -35.333 3.00098 -67.833 9.00098 -97.5s15.167 -55.167 27.5 -76.5s28.166 -38 47.499 -50s42.333 -18 69 -18c48.667 0 86.334 19 113.001 57
s40 99.667 40 185c0 34 -2.83301 65.667 -8.5 95s-14.5 55 -26.5 77s-27.667 39.167 -47 51.5s-43 18.5 -71 18.5c-48.667 0 -86.334 -19.5 -113.001 -58.5s-40 -100.167 -40 -183.5zM368.002 870h159v-30l-160 -88h-103z" />
    <glyph glyph-name="Ocircumflex" unicode="&#xd4;" horiz-adv-x="670" 
d="M38 350c0 116.667 25.668 206.5 77.001 269.5s124.666 94.5 219.999 94.5c50 0 93.667 -8.66699 131 -26s68.333 -42 93 -74s43 -70.333 55 -115s18 -94.334 18 -149.001c0 -116.667 -25.833 -206.5 -77.5 -269.5s-124.834 -94.5 -219.501 -94.5
c-50.667 0 -94.667 8.66699 -132 26s-68.166 42 -92.499 74s-42.5 70.333 -54.5 115s-18 94.334 -18 149.001zM182.001 350c0 -35.333 3.00098 -67.833 9.00098 -97.5s15.167 -55.167 27.5 -76.5s28.166 -38 47.499 -50s42.333 -18 69 -18c48.667 0 86.334 19 113.001 57
s40 99.667 40 185c0 34 -2.83301 65.667 -8.5 95s-14.5 55 -26.5 77s-27.667 39.167 -47 51.5s-43 18.5 -71 18.5c-48.667 0 -86.334 -19.5 -113.001 -58.5s-40 -100.167 -40 -183.5zM287.002 870h96l127 -93v-39h-99l-57 41l-20 34l-21 -33l-62 -42h-97v40z" />
    <glyph glyph-name="Otilde" unicode="&#xd5;" horiz-adv-x="670" 
d="M38 350c0 116.667 25.668 206.5 77.001 269.5s124.666 94.5 219.999 94.5c50 0 93.667 -8.66699 131 -26s68.333 -42 93 -74s43 -70.333 55 -115s18 -94.334 18 -149.001c0 -116.667 -25.833 -206.5 -77.5 -269.5s-124.834 -94.5 -219.501 -94.5
c-50.667 0 -94.667 8.66699 -132 26s-68.166 42 -92.499 74s-42.5 70.333 -54.5 115s-18 94.334 -18 149.001zM182.001 350c0 -35.333 3.00098 -67.833 9.00098 -97.5s15.167 -55.167 27.5 -76.5s28.166 -38 47.499 -50s42.333 -18 69 -18c48.667 0 86.334 19 113.001 57
s40 99.667 40 185c0 34 -2.83301 65.667 -8.5 95s-14.5 55 -26.5 77s-27.667 39.167 -47 51.5s-43 18.5 -71 18.5c-48.667 0 -86.334 -19.5 -113.001 -58.5s-40 -100.167 -40 -183.5zM144.002 800c21.333 23.333 41.833 39.332 61.5 47.999s39.167 13 58.5 13
c14.667 0 29.334 -1.83301 44.001 -5.5s28.834 -7.66699 42.501 -12s27.167 -8.33301 40.5 -12s26 -5.5 38 -5.5c10.667 0 21 1.66699 31 5s19.667 9.66602 29 18.999l25 -67c-18.667 -17.333 -36.834 -29.5 -54.501 -36.5s-34.834 -10.5 -51.501 -10.5
c-15.333 0 -30 1.83301 -44 5.5s-27.833 7.83398 -41.5 12.501s-27.167 8.83398 -40.5 12.501s-26.333 5.5 -39 5.5s-25.167 -2.5 -37.5 -7.5s-24.833 -14.167 -37.5 -27.5z" />
    <glyph glyph-name="Odieresis" unicode="&#xd6;" horiz-adv-x="670" 
d="M38 350c0 116.667 25.668 206.5 77.001 269.5s124.666 94.5 219.999 94.5c50 0 93.667 -8.66699 131 -26s68.333 -42 93 -74s43 -70.333 55 -115s18 -94.334 18 -149.001c0 -116.667 -25.833 -206.5 -77.5 -269.5s-124.834 -94.5 -219.501 -94.5
c-50.667 0 -94.667 8.66699 -132 26s-68.166 42 -92.499 74s-42.5 70.333 -54.5 115s-18 94.334 -18 149.001zM182.001 350c0 -35.333 3.00098 -67.833 9.00098 -97.5s15.167 -55.167 27.5 -76.5s28.166 -38 47.499 -50s42.333 -18 69 -18c48.667 0 86.334 19 113.001 57
s40 99.667 40 185c0 34 -2.83301 65.667 -8.5 95s-14.5 55 -26.5 77s-27.667 39.167 -47 51.5s-43 18.5 -71 18.5c-48.667 0 -86.334 -19.5 -113.001 -58.5s-40 -100.167 -40 -183.5zM150.002 798c0 17.333 6 31.333 18 42s31.333 16 58 16c26 0 45 -5.33301 57 -16
s18 -24.667 18 -42s-6 -31.166 -18 -41.499s-31 -15.5 -57 -15.5c-26.667 0 -46 5.16699 -58 15.5s-18 24.166 -18 41.499zM364.002 798c0 17.333 6 31.333 18 42s31 16 57 16c26.667 0 46 -5.33301 58 -16s18 -24.667 18 -42s-6 -31.166 -18 -41.499
s-31.333 -15.5 -58 -15.5c-26 0 -45 5.16699 -57 15.5s-18 24.166 -18 41.499z" />
    <glyph glyph-name="multiply" unicode="&#xd7;" horiz-adv-x="527" 
d="M134 547l131 -130l130 130l79 -81l-130 -127l130 -129l-79 -82l-130 131l-132 -132l-79 81l131 131l-129 127z" />
    <glyph glyph-name="Oslash" unicode="&#xd8;" horiz-adv-x="670" 
d="M111 86c-24.667 32 -42.998 70.167 -54.998 114.5s-18 94.166 -18 149.499c0 116.667 25.667 206.5 77 269.5s124.666 94.5 219.999 94.5c30 0 57.667 -3.33301 83 -10s48.333 -16 69 -28l25 39l85 -50l-35 -56c23.333 -32 40.833 -69.833 52.5 -113.5
s17.5 -92.167 17.5 -145.5c0 -116.667 -25.833 -206.5 -77.5 -269.5s-124.834 -94.5 -219.501 -94.5c-29.333 0 -56 2.83301 -80 8.5s-46.333 13.834 -67 24.501l-21 -33l-86 53zM182.002 350c0 -24 1.33301 -46.667 4 -68s6.66699 -41 12 -59l219 342
c-23.333 18 -50.666 27 -81.999 27c-48.667 0 -86.334 -19.5 -113.001 -58.5s-40 -100.167 -40 -183.5zM488.002 350c0 22 -1.00098 43.168 -3.00098 63.501s-5.66699 39.166 -11 56.499l-215 -340c22 -14.667 47.333 -22 76 -22c48.667 0 86.334 19 113.001 57
s40 99.667 40 185z" />
    <glyph glyph-name="Ugrave" unicode="&#xd9;" horiz-adv-x="627" 
d="M440 700h130.001v-452c0 -45.333 -6 -84.333 -18 -117s-28.667 -59.667 -50 -81s-47.333 -37 -78 -47s-64.334 -15 -101.001 -15c-177.333 0 -266 81 -266 243v469h137v-442c0 -27.333 2.5 -50.5 7.5 -69.5s12.833 -34.333 23.5 -46s24 -20 40 -25s34.667 -7.5 56 -7.5
c42 0 72.333 11.667 91 35s28 61 28 113v442zM395.001 752h-105l-158 88v30h159z" />
    <glyph glyph-name="Uacute" unicode="&#xda;" horiz-adv-x="627" 
d="M440 700h130.001v-452c0 -45.333 -6 -84.333 -18 -117s-28.667 -59.667 -50 -81s-47.333 -37 -78 -47s-64.334 -15 -101.001 -15c-177.333 0 -266 81 -266 243v469h137v-442c0 -27.333 2.5 -50.5 7.5 -69.5s12.833 -34.333 23.5 -46s24 -20 40 -25s34.667 -7.5 56 -7.5
c42 0 72.333 11.667 91 35s28 61 28 113v442zM365.001 870h159v-30l-160 -88h-103z" />
    <glyph glyph-name="Ucircumflex" unicode="&#xdb;" horiz-adv-x="627" 
d="M440 700h130.001v-452c0 -45.333 -6 -84.333 -18 -117s-28.667 -59.667 -50 -81s-47.333 -37 -78 -47s-64.334 -15 -101.001 -15c-177.333 0 -266 81 -266 243v469h137v-442c0 -27.333 2.5 -50.5 7.5 -69.5s12.833 -34.333 23.5 -46s24 -20 40 -25s34.667 -7.5 56 -7.5
c42 0 72.333 11.667 91 35s28 61 28 113v442zM273.001 870h96l127 -93v-39h-99l-57 41l-20 34l-21 -33l-62 -42h-97v40z" />
    <glyph glyph-name="Udieresis" unicode="&#xdc;" horiz-adv-x="627" 
d="M440 700h130.001v-452c0 -45.333 -6 -84.333 -18 -117s-28.667 -59.667 -50 -81s-47.333 -37 -78 -47s-64.334 -15 -101.001 -15c-177.333 0 -266 81 -266 243v469h137v-442c0 -27.333 2.5 -50.5 7.5 -69.5s12.833 -34.333 23.5 -46s24 -20 40 -25s34.667 -7.5 56 -7.5
c42 0 72.333 11.667 91 35s28 61 28 113v442zM133.001 798c0 17.333 6 31.333 18 42s31.333 16 58 16c26 0 45 -5.33301 57 -16s18 -24.667 18 -42s-6 -31.166 -18 -41.499s-31 -15.5 -57 -15.5c-26.667 0 -46 5.16699 -58 15.5s-18 24.166 -18 41.499zM347.001 798
c0 17.333 6 31.333 18 42s31 16 57 16c26.667 0 46 -5.33301 58 -16s18 -24.667 18 -42s-6 -31.166 -18 -41.499s-31.333 -15.5 -58 -15.5c-26 0 -45 5.16699 -57 15.5s-18 24.166 -18 41.499z" />
    <glyph glyph-name="Yacute" unicode="&#xdd;" horiz-adv-x="592" 
d="M228 260l-230 440h163l128 -263l14 -74h5l15 76l124 261h147l-229 -439v-261h-137v260zM326 870h159v-30l-160 -88h-103z" />
    <glyph glyph-name="Thorn" unicode="&#xde;" horiz-adv-x="572" 
d="M60 700l137 -0.00195312v-72c9.33301 0.666992 18.666 1.16699 27.999 1.5s18.666 0.5 27.999 0.5c34.667 0 69.5 -2.83301 104.5 -8.5s66.5 -17 94.5 -34s50.833 -40.667 68.5 -71s26.5 -69.833 26.5 -118.5c0 -44 -7.66699 -81.167 -23 -111.5
s-35.666 -55.166 -60.999 -74.499s-54.166 -33.333 -86.499 -42s-65.833 -13 -100.5 -13h-16c-7.33301 0 -15 0.166992 -23 0.5s-15.833 0.833008 -23.5 1.5s-13.167 1.33398 -16.5 2.00098v-161h-137v700zM264 511.998c-13.333 0 -26 -0.499023 -38 -1.49902
s-21.667 -2.16699 -29 -3.5v-227c2.66699 -0.666992 6.66699 -1.33398 12 -2.00098s11 -1.16699 17 -1.5s11.833 -0.5 17.5 -0.5h12.5c18 0 35.833 1.66699 53.5 5s33.5 9.5 47.5 18.5s25.167 21.5 33.5 37.5s12.5 37 12.5 63c0 22 -4 40.167 -12 54.5
s-18.5 25.833 -31.5 34.5s-27.833 14.667 -44.5 18s-33.667 5 -51 5z" />
    <glyph glyph-name="germandbls" unicode="&#xdf;" horiz-adv-x="630" 
d="M81 390l-68.998 0.00390625v110h69c0 38.667 5.33301 71.167 16 97.5s25.5 47.666 44.5 63.999s41.667 28.166 68 35.499s55.166 11 86.499 11c34 0 64.5 -3.83301 91.5 -11.5s50 -18.5 69 -32.5s33.667 -30.833 44 -50.5s15.5 -41.5 15.5 -65.5
c0 -26 -5.83301 -47 -17.5 -63s-24.667 -29.667 -39 -41l-39 -32c-11.667 -10 -17.5 -22.333 -17.5 -37c0 -12 4.83301 -21.667 14.5 -29s22 -14.166 37 -20.499l48 -20c17 -7 33 -16.167 48 -27.5s27.333 -25.833 37 -43.5s14.5 -40.167 14.5 -67.5
c0 -23.333 -3.66699 -45.833 -11 -67.5s-18.833 -41 -34.5 -58s-35.334 -30.5 -59.001 -40.5s-51.5 -15 -83.5 -15c-31.333 0 -60.166 3.83301 -86.499 11.5s-48.833 17.167 -67.5 28.5l35 97c15.333 -8.66699 30.666 -16.334 45.999 -23.001s36 -10 62 -10
c20 0 36.5 6.83301 49.5 20.5s19.5 30.167 19.5 49.5c0 14 -4.83301 25.333 -14.5 34s-22 16.5 -37 23.5s-31 13.833 -48 20.5s-33 15.167 -48 25.5s-27.333 23.166 -37 38.499s-14.5 35 -14.5 59c0 28.667 5.83301 51 17.5 67s24.667 29.5 39 40.5l39 30.5
c11.667 9.33301 17.5 22 17.5 38c0 8.66699 -2.33301 16.834 -7 24.501s-11 14.167 -19 19.5s-17 9.66602 -27 12.999s-20 5 -30 5c-32 0 -55.5 -7.83301 -70.5 -23.5s-22.5 -44.834 -22.5 -87.501v-488h-129v390z" />
    <glyph glyph-name="agrave" unicode="&#xe0;" horiz-adv-x="496" 
d="M54 471c26.667 12 58.3291 21.5 94.9961 28.5s75 10.5 115 10.5c34.667 0 63.667 -4.16699 87 -12.5s41.833 -20.166 55.5 -35.499s23.334 -33.666 29.001 -54.999s8.5 -45.333 8.5 -72c0 -29.333 -1 -58.833 -3 -88.5s-3.16699 -58.834 -3.5 -87.501
s0.5 -56.5 2.5 -83.5s7 -52.5 15 -76.5h-106l-21 69h-5c-13.333 -20.667 -31.833 -38.5 -55.5 -53.5s-54.167 -22.5 -91.5 -22.5c-23.333 0 -44.333 3.5 -63 10.5s-34.667 17 -48 30s-23.666 28.333 -30.999 46s-11 37.5 -11 59.5c0 30.667 6.83301 56.5 20.5 77.5
s33.334 38 59.001 51s56.334 22 92.001 27s75.5 6.5 119.5 4.5c4.66699 37.333 2 64.166 -8 80.499s-32.333 24.5 -67 24.5c-26 0 -53.5 -2.66699 -82.5 -8s-52.833 -12.333 -71.5 -21zM218.995 99c26 0 46.6689 5.83398 62.002 17.501s26.666 24.167 33.999 37.5v65
c-20.667 2 -40.5 2.33301 -59.5 1s-35.833 -4.33301 -50.5 -9s-26.334 -11.334 -35.001 -20.001s-13 -19.667 -13 -33c0 -18.667 5.5 -33.167 16.5 -43.5s26.167 -15.5 45.5 -15.5zM310.997 566.001h-72l-124 124v30h136z" />
    <glyph glyph-name="aacute" unicode="&#xe1;" horiz-adv-x="496" 
d="M54 471c26.667 12 58.3291 21.5 94.9961 28.5s75 10.5 115 10.5c34.667 0 63.667 -4.16699 87 -12.5s41.833 -20.166 55.5 -35.499s23.334 -33.666 29.001 -54.999s8.5 -45.333 8.5 -72c0 -29.333 -1 -58.833 -3 -88.5s-3.16699 -58.834 -3.5 -87.501
s0.5 -56.5 2.5 -83.5s7 -52.5 15 -76.5h-106l-21 69h-5c-13.333 -20.667 -31.833 -38.5 -55.5 -53.5s-54.167 -22.5 -91.5 -22.5c-23.333 0 -44.333 3.5 -63 10.5s-34.667 17 -48 30s-23.666 28.333 -30.999 46s-11 37.5 -11 59.5c0 30.667 6.83301 56.5 20.5 77.5
s33.334 38 59.001 51s56.334 22 92.001 27s75.5 6.5 119.5 4.5c4.66699 37.333 2 64.166 -8 80.499s-32.333 24.5 -67 24.5c-26 0 -53.5 -2.66699 -82.5 -8s-52.833 -12.333 -71.5 -21zM218.995 99c26 0 46.6689 5.83398 62.002 17.501s26.666 24.167 33.999 37.5v65
c-20.667 2 -40.5 2.33301 -59.5 1s-35.833 -4.33301 -50.5 -9s-26.334 -11.334 -35.001 -20.001s-13 -19.667 -13 -33c0 -18.667 5.5 -33.167 16.5 -43.5s26.167 -15.5 45.5 -15.5zM236.997 720.001h132v-30l-111 -124h-74z" />
    <glyph glyph-name="acircumflex" unicode="&#xe2;" horiz-adv-x="496" 
d="M54 471c26.667 12 58.3291 21.5 94.9961 28.5s75 10.5 115 10.5c34.667 0 63.667 -4.16699 87 -12.5s41.833 -20.166 55.5 -35.499s23.334 -33.666 29.001 -54.999s8.5 -45.333 8.5 -72c0 -29.333 -1 -58.833 -3 -88.5s-3.16699 -58.834 -3.5 -87.501
s0.5 -56.5 2.5 -83.5s7 -52.5 15 -76.5h-106l-21 69h-5c-13.333 -20.667 -31.833 -38.5 -55.5 -53.5s-54.167 -22.5 -91.5 -22.5c-23.333 0 -44.333 3.5 -63 10.5s-34.667 17 -48 30s-23.666 28.333 -30.999 46s-11 37.5 -11 59.5c0 30.667 6.83301 56.5 20.5 77.5
s33.334 38 59.001 51s56.334 22 92.001 27s75.5 6.5 119.5 4.5c4.66699 37.333 2 64.166 -8 80.499s-32.333 24.5 -67 24.5c-26 0 -53.5 -2.66699 -82.5 -8s-52.833 -12.333 -71.5 -21zM218.995 99c26 0 46.6689 5.83398 62.002 17.501s26.666 24.167 33.999 37.5v65
c-20.667 2 -40.5 2.33301 -59.5 1s-35.833 -4.33301 -50.5 -9s-26.334 -11.334 -35.001 -20.001s-13 -19.667 -13 -33c0 -18.667 5.5 -33.167 16.5 -43.5s26.167 -15.5 45.5 -15.5zM215.997 732.001h86l111 -182h-103l-39 66l-17 49l-17 -49l-45 -66h-99z" />
    <glyph glyph-name="atilde" unicode="&#xe3;" horiz-adv-x="496" 
d="M54 471c26.667 12 58.3291 21.5 94.9961 28.5s75 10.5 115 10.5c34.667 0 63.667 -4.16699 87 -12.5s41.833 -20.166 55.5 -35.499s23.334 -33.666 29.001 -54.999s8.5 -45.333 8.5 -72c0 -29.333 -1 -58.833 -3 -88.5s-3.16699 -58.834 -3.5 -87.501
s0.5 -56.5 2.5 -83.5s7 -52.5 15 -76.5h-106l-21 69h-5c-13.333 -20.667 -31.833 -38.5 -55.5 -53.5s-54.167 -22.5 -91.5 -22.5c-23.333 0 -44.333 3.5 -63 10.5s-34.667 17 -48 30s-23.666 28.333 -30.999 46s-11 37.5 -11 59.5c0 30.667 6.83301 56.5 20.5 77.5
s33.334 38 59.001 51s56.334 22 92.001 27s75.5 6.5 119.5 4.5c4.66699 37.333 2 64.166 -8 80.499s-32.333 24.5 -67 24.5c-26 0 -53.5 -2.66699 -82.5 -8s-52.833 -12.333 -71.5 -21zM218.995 99c26 0 46.6689 5.83398 62.002 17.501s26.666 24.167 33.999 37.5v65
c-20.667 2 -40.5 2.33301 -59.5 1s-35.833 -4.33301 -50.5 -9s-26.334 -11.334 -35.001 -20.001s-13 -19.667 -13 -33c0 -18.667 5.5 -33.167 16.5 -43.5s26.167 -15.5 45.5 -15.5zM85.9971 658.001c20.667 24.667 39.8311 41.6689 57.498 51.002s34.5 14 50.5 14
c13.333 0 26.166 -2.33301 38.499 -7s24.5 -9.66699 36.5 -15l35 -15c11.333 -4.66699 23 -7 35 -7c9.33301 0 18.833 2 28.5 6s19.834 11 30.501 21l20 -70c-19.333 -21.333 -37.166 -36 -53.499 -44s-32.166 -12 -47.499 -12c-13.333 0 -26.333 2.16699 -39 6.5
s-25 9.16602 -37 14.499s-24 10.166 -36 14.499s-24 6.5 -36 6.5c-10 0 -20.333 -2.16699 -31 -6.5s-21.667 -11.833 -33 -22.5z" />
    <glyph glyph-name="adieresis" unicode="&#xe4;" horiz-adv-x="496" 
d="M54 471c26.667 12 58.3291 21.5 94.9961 28.5s75 10.5 115 10.5c34.667 0 63.667 -4.16699 87 -12.5s41.833 -20.166 55.5 -35.499s23.334 -33.666 29.001 -54.999s8.5 -45.333 8.5 -72c0 -29.333 -1 -58.833 -3 -88.5s-3.16699 -58.834 -3.5 -87.501
s0.5 -56.5 2.5 -83.5s7 -52.5 15 -76.5h-106l-21 69h-5c-13.333 -20.667 -31.833 -38.5 -55.5 -53.5s-54.167 -22.5 -91.5 -22.5c-23.333 0 -44.333 3.5 -63 10.5s-34.667 17 -48 30s-23.666 28.333 -30.999 46s-11 37.5 -11 59.5c0 30.667 6.83301 56.5 20.5 77.5
s33.334 38 59.001 51s56.334 22 92.001 27s75.5 6.5 119.5 4.5c4.66699 37.333 2 64.166 -8 80.499s-32.333 24.5 -67 24.5c-26 0 -53.5 -2.66699 -82.5 -8s-52.833 -12.333 -71.5 -21zM218.995 99c26 0 46.6689 5.83398 62.002 17.501s26.666 24.167 33.999 37.5v65
c-20.667 2 -40.5 2.33301 -59.5 1s-35.833 -4.33301 -50.5 -9s-26.334 -11.334 -35.001 -20.001s-13 -19.667 -13 -33c0 -18.667 5.5 -33.167 16.5 -43.5s26.167 -15.5 45.5 -15.5zM74.9971 651.001c0 21.333 6.5 38.333 19.5 51s30.167 19 51.5 19
s38.166 -6.33301 50.499 -19s18.5 -29.667 18.5 -51c0 -20 -6.16699 -36.333 -18.5 -49s-29.166 -19 -50.499 -19s-38.5 6.33301 -51.5 19s-19.5 29 -19.5 49zM293.997 651.001c0 21.333 6.16699 38.333 18.5 51s29.166 19 50.499 19s38.5 -6.33301 51.5 -19
s19.5 -29.667 19.5 -51c0 -20 -6.5 -36.333 -19.5 -49s-30.167 -19 -51.5 -19s-38.166 6.33301 -50.499 19s-18.5 29 -18.5 49z" />
    <glyph glyph-name="aring" unicode="&#xe5;" horiz-adv-x="496" 
d="M54 471c26.667 12 58.3291 21.5 94.9961 28.5s75 10.5 115 10.5c34.667 0 63.667 -4.16699 87 -12.5s41.833 -20.166 55.5 -35.499s23.334 -33.666 29.001 -54.999s8.5 -45.333 8.5 -72c0 -29.333 -1 -58.833 -3 -88.5s-3.16699 -58.834 -3.5 -87.501
s0.5 -56.5 2.5 -83.5s7 -52.5 15 -76.5h-106l-21 69h-5c-13.333 -20.667 -31.833 -38.5 -55.5 -53.5s-54.167 -22.5 -91.5 -22.5c-23.333 0 -44.333 3.5 -63 10.5s-34.667 17 -48 30s-23.666 28.333 -30.999 46s-11 37.5 -11 59.5c0 30.667 6.83301 56.5 20.5 77.5
s33.334 38 59.001 51s56.334 22 92.001 27s75.5 6.5 119.5 4.5c4.66699 37.333 2 64.166 -8 80.499s-32.333 24.5 -67 24.5c-26 0 -53.5 -2.66699 -82.5 -8s-52.833 -12.333 -71.5 -21zM218.995 99c26 0 46.6689 5.83398 62.002 17.501s26.666 24.167 33.999 37.5v65
c-20.667 2 -40.5 2.33301 -59.5 1s-35.833 -4.33301 -50.5 -9s-26.334 -11.334 -35.001 -20.001s-13 -19.667 -13 -33c0 -18.667 5.5 -33.167 16.5 -43.5s26.167 -15.5 45.5 -15.5zM143.997 647.001c0 28 9.5 50.999 28.5 68.999s46.5 27 82.5 27c34 0 61 -8.16699 81 -24.5
s30 -40.166 30 -71.499c0 -26 -9.83301 -48.167 -29.5 -66.5s-46.834 -27.5 -81.501 -27.5c-35.333 0 -62.666 8.5 -81.999 25.5s-29 39.833 -29 68.5zM215.997 647c0 -10.667 4.00195 -18.832 12.002 -24.499s17 -8.5 27 -8.5c11.333 0 20.666 2.66699 27.999 8
s11 13.666 11 24.999s-3.83301 19.833 -11.5 25.5s-16.834 8.5 -27.501 8.5c-10 0 -19 -2.66699 -27 -8s-12 -14 -12 -26z" />
    <glyph glyph-name="ae" unicode="&#xe6;" horiz-adv-x="785" 
d="M219 99c26 0 46.6689 5.83398 62.002 17.501s26.666 24.167 33.999 37.5v65c-20.667 2 -40.5 2.33301 -59.5 1s-35.833 -4.33301 -50.5 -9s-26.334 -11.334 -35.001 -20.001s-13 -19.667 -13 -33c0 -18.667 5.5 -33.167 16.5 -43.5s26.167 -15.5 45.5 -15.5z
M350.002 76.001c-18 -22.667 -40.1699 -42.333 -66.5029 -59s-62.166 -25 -107.499 -25c-23.333 0 -44.333 3.5 -63 10.5s-34.667 17 -48 30s-23.666 28.333 -30.999 46s-11 37.5 -11 59.5c0 30.667 6.83301 56.5 20.5 77.5s33.167 38 58.5 51s55.833 22 91.5 27
s75.5 6.5 119.5 4.5c4.66699 37.333 2.16699 64.166 -7.5 80.499s-31.834 24.5 -66.501 24.5c-26 0 -52.5 -3.5 -79.5 -10.5s-50.833 -15.5 -71.5 -25.5l-34 94c25.333 13.333 56.666 24.833 93.999 34.5s76 14.5 116 14.5c34.667 0 62.334 -4.5 83.001 -13.5
s37.667 -22.5 51 -40.5c16.667 18.667 38.334 33 65.001 43s55.667 15 87 15c25.333 0 50 -3.33301 74 -10s45.333 -17.667 64 -33s33.667 -36 45 -62s17 -58.333 17 -97c0 -14 -0.833008 -28.833 -2.5 -44.5s-4.16699 -32.5 -7.5 -50.5h-301
c2.66699 -42 13.834 -73.667 33.501 -95s51.5 -32 95.5 -32c27.333 0 51.833 4.16699 73.5 12.5s38.167 16.833 49.5 25.5l43 -85c-20 -16 -47.167 -29.5 -81.5 -40.5s-70.833 -16.5 -109.5 -16.5c-42.667 0 -80.167 7.83301 -112.5 23.5s-57.5 37.834 -75.5 66.501h-5z
M547.999 410.002c-34 0 -59.168 -10.167 -75.501 -30.5s-26.166 -47.5 -29.499 -81.5h187c2 36 -3.66699 63.667 -17 83s-35 29 -65 29z" />
    <glyph glyph-name="ccedilla" unicode="&#xe7;" horiz-adv-x="433" 
d="M411 31c-15.333 -11.333 -32.8311 -20.333 -52.498 -27s-40.5 -11.667 -62.5 -15l-18 -32c27.333 -2.66699 48.833 -9.83398 64.5 -21.501s23.5 -29.5 23.5 -53.5c0 -15.333 -3.83301 -28.666 -11.5 -39.999s-18.167 -20.833 -31.5 -28.5s-29 -13.5 -47 -17.5
s-37.333 -6 -58 -6s-42 2 -64 6l9 48c4.66699 -0.666992 9 -1 13 -1h11c25.333 0 41.666 3 48.999 9s11 13 11 21c0 18.667 -28.667 29.334 -86 32.001l50 84c-32.667 4 -60.334 13.167 -83.001 27.5s-41 32.666 -55 54.999s-24.167 48.666 -30.5 78.999
s-9.5 63.5 -9.5 99.5c0 84.667 19 149.834 57 195.501s93.333 68.5 166 68.5c36.667 0 66.167 -3 88.5 -9s42.5 -13.667 60.5 -23l-31 -106c-15.333 7.33301 -30.5 13 -45.5 17s-32.167 6 -51.5 6c-36 0 -63.333 -11.833 -82 -35.5s-28 -61.5 -28 -113.5
c0 -21.333 2.33301 -41 7 -59s11.667 -33.667 21 -47s21.5 -23.833 36.5 -31.5s32.5 -11.5 52.5 -11.5c22 0 40.667 2.83301 56 8.5s29 12.5 41 20.5z" />
    <glyph glyph-name="egrave" unicode="&#xe8;" horiz-adv-x="508" 
d="M457 43c-20 -16 -47.167 -29.5 -81.5 -40.5s-70.833 -16.5 -109.5 -16.5c-80.667 0 -139.667 23.5 -177 70.5s-56 111.5 -56 193.5c0 88 21 154 63 198s101 66 177 66c25.333 0 50 -3.33301 74 -10s45.333 -17.667 64 -33s33.667 -36 45 -62s17 -58.333 17 -97
c0 -14 -0.833008 -29 -2.5 -45s-4.16699 -32.667 -7.5 -50h-300c2 -42 12.833 -73.667 32.5 -95s51.5 -32 95.5 -32c27.333 0 51.833 4.16699 73.5 12.5s38.167 16.833 49.5 25.5zM271 410c-34 0 -59.168 -10.167 -75.501 -30.5s-26.166 -47.5 -29.499 -81.5h186
c2.66699 36 -2.83301 63.667 -16.5 83s-35.167 29 -64.5 29zM328.999 566h-72l-124 124v30h136z" />
    <glyph glyph-name="eacute" unicode="&#xe9;" horiz-adv-x="508" 
d="M457 43c-20 -16 -47.167 -29.5 -81.5 -40.5s-70.833 -16.5 -109.5 -16.5c-80.667 0 -139.667 23.5 -177 70.5s-56 111.5 -56 193.5c0 88 21 154 63 198s101 66 177 66c25.333 0 50 -3.33301 74 -10s45.333 -17.667 64 -33s33.667 -36 45 -62s17 -58.333 17 -97
c0 -14 -0.833008 -29 -2.5 -45s-4.16699 -32.667 -7.5 -50h-300c2 -42 12.833 -73.667 32.5 -95s51.5 -32 95.5 -32c27.333 0 51.833 4.16699 73.5 12.5s38.167 16.833 49.5 25.5zM271 410c-34 0 -59.168 -10.167 -75.501 -30.5s-26.166 -47.5 -29.499 -81.5h186
c2.66699 36 -2.83301 63.667 -16.5 83s-35.167 29 -64.5 29zM273.999 720h132v-30l-111 -124h-74z" />
    <glyph glyph-name="ecircumflex" unicode="&#xea;" horiz-adv-x="508" 
d="M457 43c-20 -16 -47.167 -29.5 -81.5 -40.5s-70.833 -16.5 -109.5 -16.5c-80.667 0 -139.667 23.5 -177 70.5s-56 111.5 -56 193.5c0 88 21 154 63 198s101 66 177 66c25.333 0 50 -3.33301 74 -10s45.333 -17.667 64 -33s33.667 -36 45 -62s17 -58.333 17 -97
c0 -14 -0.833008 -29 -2.5 -45s-4.16699 -32.667 -7.5 -50h-300c2 -42 12.833 -73.667 32.5 -95s51.5 -32 95.5 -32c27.333 0 51.833 4.16699 73.5 12.5s38.167 16.833 49.5 25.5zM271 410c-34 0 -59.168 -10.167 -75.501 -30.5s-26.166 -47.5 -29.499 -81.5h186
c2.66699 36 -2.83301 63.667 -16.5 83s-35.167 29 -64.5 29zM220.999 732h86l111 -182h-103l-39 66l-17 49l-17 -49l-45 -66h-99z" />
    <glyph glyph-name="edieresis" unicode="&#xeb;" horiz-adv-x="508" 
d="M457 43c-20 -16 -47.167 -29.5 -81.5 -40.5s-70.833 -16.5 -109.5 -16.5c-80.667 0 -139.667 23.5 -177 70.5s-56 111.5 -56 193.5c0 88 21 154 63 198s101 66 177 66c25.333 0 50 -3.33301 74 -10s45.333 -17.667 64 -33s33.667 -36 45 -62s17 -58.333 17 -97
c0 -14 -0.833008 -29 -2.5 -45s-4.16699 -32.667 -7.5 -50h-300c2 -42 12.833 -73.667 32.5 -95s51.5 -32 95.5 -32c27.333 0 51.833 4.16699 73.5 12.5s38.167 16.833 49.5 25.5zM271 410c-34 0 -59.168 -10.167 -75.501 -30.5s-26.166 -47.5 -29.499 -81.5h186
c2.66699 36 -2.83301 63.667 -16.5 83s-35.167 29 -64.5 29zM81.999 651c0 21.333 6.5 38.333 19.5 51s30.167 19 51.5 19s38.166 -6.33301 50.499 -19s18.5 -29.667 18.5 -51c0 -20 -6.16699 -36.333 -18.5 -49s-29.166 -19 -50.499 -19s-38.5 6.33301 -51.5 19
s-19.5 29 -19.5 49zM300.999 651c0 21.333 6.16699 38.333 18.5 51s29.166 19 50.499 19s38.5 -6.33301 51.5 -19s19.5 -29.667 19.5 -51c0 -20 -6.5 -36.333 -19.5 -49s-30.167 -19 -51.5 -19s-38.166 6.33301 -50.499 19s-18.5 29 -18.5 49z" />
    <glyph glyph-name="igrave" unicode="&#xec;" horiz-adv-x="269" 
d="M70 500h130v-500h-130v500zM194 566h-72l-124 124v30h136z" />
    <glyph glyph-name="iacute" unicode="&#xed;" horiz-adv-x="269" 
d="M70 500h130v-500h-130v500zM124 720h132v-30l-111 -124h-74z" />
    <glyph glyph-name="icircumflex" unicode="&#xee;" horiz-adv-x="269" 
d="M70 500h130v-500h-130v500zM93 732h86l111 -182h-103l-39 66l-17 49l-17 -49l-45 -66h-99z" />
    <glyph glyph-name="idieresis" unicode="&#xef;" horiz-adv-x="269" 
d="M70 500h130v-500h-130v500zM-45 651c0 21.333 6.5 38.333 19.5 51s30.167 19 51.5 19s38.166 -6.33301 50.499 -19s18.5 -29.667 18.5 -51c0 -20 -6.16699 -36.333 -18.5 -49s-29.166 -19 -50.499 -19s-38.5 6.33301 -51.5 19s-19.5 29 -19.5 49zM174 651
c0 21.333 6.16699 38.333 18.5 51s29.166 19 50.499 19s38.5 -6.33301 51.5 -19s19.5 -29.667 19.5 -51c0 -20 -6.5 -36.333 -19.5 -49s-30.167 -19 -51.5 -19s-38.166 6.33301 -50.499 19s-18.5 29 -18.5 49z" />
    <glyph glyph-name="eth" unicode="&#xf0;" horiz-adv-x="563" 
d="M163 243c0 -48 11 -84.333 33 -109s51.333 -37 88 -37c34.667 0 63 14.833 85 44.5s33 75.834 33 138.501c0 8.66699 -0.5 20 -1.5 34s-2.83301 25 -5.5 33c-10.667 15.333 -26.667 26.166 -48 32.499s-42 9.5 -62 9.5c-40 0 -70.333 -13.833 -91 -41.5
s-31 -62.5 -31 -104.5zM197 584l44.0029 30.002c-22.667 10 -45.667 17 -69 21l52 80c16.667 -4.66699 35.667 -11.334 57 -20.001c15.333 -6 31 -13.333 47 -22l53 36l42 -55l-33 -23c8 -6 15.667 -12.667 23 -20c21.333 -20 40.333 -44.5 57 -73.5
s30.167 -62.833 40.5 -101.5s15.5 -83.334 15.5 -134.001c0 -54 -6.16699 -100.833 -18.5 -140.5s-29.5 -72.5 -51.5 -98.5s-48.333 -45.333 -79 -58s-64.334 -19 -101.001 -19c-39.333 0 -74 6.33301 -104 19s-55 30.5 -75 53.5s-35 50.333 -45 82s-15 66.5 -15 104.5
c0 36 5.66699 69.333 17 100s27.166 57.5 47.499 80.5s44.833 41 73.5 54s60 19.5 94 19.5c25.333 0 48.833 -3.5 70.5 -10.5s39.167 -17.167 52.5 -30.5c-8 24 -19.333 46 -34 66c-14.667 19.333 -31.334 36.333 -50.001 51l-68 -46z" />
    <glyph glyph-name="ntilde" unicode="&#xf1;" horiz-adv-x="545" 
d="M363 0l0.00195312 283.998c0 40.667 -5.83301 70 -17.5 88s-31.5 27 -59.5 27c-24.667 0 -45.5 -7.16699 -62.5 -21.5s-29.167 -32.166 -36.5 -53.499v-324h-130v500h103l15 -66h4c15.333 21.333 35.666 40 60.999 56s58 24 98 24c24.667 0 46.667 -3.33301 66 -10
s35.666 -17.667 48.999 -33s23.333 -36.166 30 -62.499s10 -58.833 10 -97.5v-311h-130zM107.002 657.998c20.667 24.667 39.8311 41.6689 57.498 51.002s34.5 14 50.5 14c13.333 0 26.166 -2.33301 38.499 -7s24.5 -9.66699 36.5 -15l35 -15c11.333 -4.66699 23 -7 35 -7
c9.33301 0 18.833 2 28.5 6s19.834 11 30.501 21l20 -70c-19.333 -21.333 -37.166 -36 -53.499 -44s-32.166 -12 -47.499 -12c-13.333 0 -26.333 2.16699 -39 6.5s-25 9.16602 -37 14.499s-24 10.166 -36 14.499s-24 6.5 -36 6.5c-10 0 -20.333 -2.16699 -31 -6.5
s-21.667 -11.833 -33 -22.5z" />
    <glyph glyph-name="ograve" unicode="&#xf2;" horiz-adv-x="537" 
d="M33 250c0 84.667 20.6689 149.834 62.002 195.501s99.333 68.5 174 68.5c40 0 74.667 -6.33301 104 -19s53.666 -30.5 72.999 -53.5s33.833 -50.833 43.5 -83.5s14.5 -68.667 14.5 -108c0 -84.667 -20.5 -149.834 -61.5 -195.501s-98.833 -68.5 -173.5 -68.5
c-40 0 -74.667 6.33301 -104 19s-53.833 30.5 -73.5 53.5s-34.334 50.833 -44.001 83.5s-14.5 68.667 -14.5 108zM167.002 250c0 -22 2 -42.333 6 -61s10 -35 18 -49s18.5 -24.833 31.5 -32.5s28.5 -11.5 46.5 -11.5c34 0 59.333 12.333 76 37s25 63.667 25 117
c0 46 -7.66699 83.167 -23 111.5s-41.333 42.5 -78 42.5c-32 0 -57 -12 -75 -36s-27 -63.333 -27 -118zM331.002 566h-72l-124 124v30h136z" />
    <glyph glyph-name="oacute" unicode="&#xf3;" horiz-adv-x="537" 
d="M33 250c0 84.667 20.6689 149.834 62.002 195.501s99.333 68.5 174 68.5c40 0 74.667 -6.33301 104 -19s53.666 -30.5 72.999 -53.5s33.833 -50.833 43.5 -83.5s14.5 -68.667 14.5 -108c0 -84.667 -20.5 -149.834 -61.5 -195.501s-98.833 -68.5 -173.5 -68.5
c-40 0 -74.667 6.33301 -104 19s-53.833 30.5 -73.5 53.5s-34.334 50.833 -44.001 83.5s-14.5 68.667 -14.5 108zM167.002 250c0 -22 2 -42.333 6 -61s10 -35 18 -49s18.5 -24.833 31.5 -32.5s28.5 -11.5 46.5 -11.5c34 0 59.333 12.333 76 37s25 63.667 25 117
c0 46 -7.66699 83.167 -23 111.5s-41.333 42.5 -78 42.5c-32 0 -57 -12 -75 -36s-27 -63.333 -27 -118zM275.002 720h132v-30l-111 -124h-74z" />
    <glyph glyph-name="ocircumflex" unicode="&#xf4;" horiz-adv-x="537" 
d="M33 250c0 84.667 20.6689 149.834 62.002 195.501s99.333 68.5 174 68.5c40 0 74.667 -6.33301 104 -19s53.666 -30.5 72.999 -53.5s33.833 -50.833 43.5 -83.5s14.5 -68.667 14.5 -108c0 -84.667 -20.5 -149.834 -61.5 -195.501s-98.833 -68.5 -173.5 -68.5
c-40 0 -74.667 6.33301 -104 19s-53.833 30.5 -73.5 53.5s-34.334 50.833 -44.001 83.5s-14.5 68.667 -14.5 108zM167.002 250c0 -22 2 -42.333 6 -61s10 -35 18 -49s18.5 -24.833 31.5 -32.5s28.5 -11.5 46.5 -11.5c34 0 59.333 12.333 76 37s25 63.667 25 117
c0 46 -7.66699 83.167 -23 111.5s-41.333 42.5 -78 42.5c-32 0 -57 -12 -75 -36s-27 -63.333 -27 -118zM231.002 732h86l111 -182h-103l-39 66l-17 49l-17 -49l-45 -66h-99z" />
    <glyph glyph-name="otilde" unicode="&#xf5;" horiz-adv-x="537" 
d="M33 250c0 84.667 20.6689 149.834 62.002 195.501s99.333 68.5 174 68.5c40 0 74.667 -6.33301 104 -19s53.666 -30.5 72.999 -53.5s33.833 -50.833 43.5 -83.5s14.5 -68.667 14.5 -108c0 -84.667 -20.5 -149.834 -61.5 -195.501s-98.833 -68.5 -173.5 -68.5
c-40 0 -74.667 6.33301 -104 19s-53.833 30.5 -73.5 53.5s-34.334 50.833 -44.001 83.5s-14.5 68.667 -14.5 108zM167.002 250c0 -22 2 -42.333 6 -61s10 -35 18 -49s18.5 -24.833 31.5 -32.5s28.5 -11.5 46.5 -11.5c34 0 59.333 12.333 76 37s25 63.667 25 117
c0 46 -7.66699 83.167 -23 111.5s-41.333 42.5 -78 42.5c-32 0 -57 -12 -75 -36s-27 -63.333 -27 -118zM104.002 658c20.667 24.667 39.8311 41.6689 57.498 51.002s34.5 14 50.5 14c13.333 0 26.166 -2.33301 38.499 -7s24.5 -9.66699 36.5 -15l35 -15
c11.333 -4.66699 23 -7 35 -7c9.33301 0 18.833 2 28.5 6s19.834 11 30.501 21l20 -70c-19.333 -21.333 -37.166 -36 -53.499 -44s-32.166 -12 -47.499 -12c-13.333 0 -26.333 2.16699 -39 6.5s-25 9.16602 -37 14.499s-24 10.166 -36 14.499s-24 6.5 -36 6.5
c-10 0 -20.333 -2.16699 -31 -6.5s-21.667 -11.833 -33 -22.5z" />
    <glyph glyph-name="odieresis" unicode="&#xf6;" horiz-adv-x="537" 
d="M33 250c0 84.667 20.6689 149.834 62.002 195.501s99.333 68.5 174 68.5c40 0 74.667 -6.33301 104 -19s53.666 -30.5 72.999 -53.5s33.833 -50.833 43.5 -83.5s14.5 -68.667 14.5 -108c0 -84.667 -20.5 -149.834 -61.5 -195.501s-98.833 -68.5 -173.5 -68.5
c-40 0 -74.667 6.33301 -104 19s-53.833 30.5 -73.5 53.5s-34.334 50.833 -44.001 83.5s-14.5 68.667 -14.5 108zM167.002 250c0 -22 2 -42.333 6 -61s10 -35 18 -49s18.5 -24.833 31.5 -32.5s28.5 -11.5 46.5 -11.5c34 0 59.333 12.333 76 37s25 63.667 25 117
c0 46 -7.66699 83.167 -23 111.5s-41.333 42.5 -78 42.5c-32 0 -57 -12 -75 -36s-27 -63.333 -27 -118zM88.002 651c0 21.333 6.5 38.333 19.5 51s30.167 19 51.5 19s38.166 -6.33301 50.499 -19s18.5 -29.667 18.5 -51c0 -20 -6.16699 -36.333 -18.5 -49
s-29.166 -19 -50.499 -19s-38.5 6.33301 -51.5 19s-19.5 29 -19.5 49zM307.002 651c0 21.333 6.16699 38.333 18.5 51s29.166 19 50.499 19s38.5 -6.33301 51.5 -19s19.5 -29.667 19.5 -51c0 -20 -6.5 -36.333 -19.5 -49s-30.167 -19 -51.5 -19s-38.166 6.33301 -50.499 19
s-18.5 29 -18.5 49z" />
    <glyph glyph-name="divide" unicode="&#xf7;" horiz-adv-x="527" 
d="M43 394h442v-112h-442v112zM184 532c0 23.333 7.33301 41.833 22 55.5s34 20.5 58 20.5c25.333 0 45.333 -6.83301 60 -20.5s22 -32.167 22 -55.5s-7.33301 -42 -22 -56s-34.667 -21 -60 -21c-24 0 -43.333 7 -58 21s-22 32.667 -22 56zM184 145
c0 23.333 7.33301 41.833 22 55.5s34 20.5 58 20.5c25.333 0 45.333 -6.83301 60 -20.5s22 -32.167 22 -55.5s-7.33301 -42 -22 -56s-34.667 -21 -60 -21c-24 0 -43.333 7 -58 21s-22 32.667 -22 56z" />
    <glyph glyph-name="oslash" unicode="&#xf8;" horiz-adv-x="536" 
d="M33 250c0 84.667 20.5 149.835 61.5 195.502s98.833 68.5 173.5 68.5c21.333 0 41 -1.83301 59 -5.5s34.667 -9.16699 50 -16.5l24 34l80 -59l-27 -38c16.667 -22.667 29 -49.167 37 -79.5s12 -63.5 12 -99.5c0 -84.667 -20.5 -149.834 -61.5 -195.501
s-98.833 -68.5 -173.5 -68.5c-22.667 0 -43.5 2.16699 -62.5 6.5s-36.5 10.166 -52.5 17.499l-25 -34l-83 60l31 43c-14.667 22 -25.5 47.5 -32.5 76.5s-10.5 60.5 -10.5 94.5zM369 250.001c0 24.667 -2.66797 48.333 -8.00098 71l-149 -207
c14.667 -12 33.334 -18 56.001 -18c34 0 59.333 12.333 76 37s25 63.667 25 117zM166.999 250c0 -23.333 2 -45 6 -65l147 204c-14 10 -31.333 15 -52 15c-32 0 -56.833 -12 -74.5 -36s-26.5 -63.333 -26.5 -118z" />
    <glyph glyph-name="ugrave" unicode="&#xf9;" horiz-adv-x="538" 
d="M182 500l-0.00195312 -284.002c0 -40.667 4.83301 -70 14.5 -88s28.5 -27 56.5 -27c24.667 0 45.167 7.33301 61.5 22s28.5 32.667 36.5 54v323h130v-348c0 -27.333 1.33301 -54.166 4 -80.499s6.66699 -50.166 12 -71.499h-98l-23 74h-4
c-15.333 -25.333 -36.666 -46.333 -63.999 -63s-59.666 -25 -96.999 -25c-25.333 0 -48 3.33301 -68 10s-36.667 17.667 -50 33s-23.5 36 -30.5 62s-10.5 58.667 -10.5 98v311h130zM317.998 565.998h-72l-124 124v30h136z" />
    <glyph glyph-name="uacute" unicode="&#xfa;" horiz-adv-x="538" 
d="M182 500l-0.00195312 -284.002c0 -40.667 4.83301 -70 14.5 -88s28.5 -27 56.5 -27c24.667 0 45.167 7.33301 61.5 22s28.5 32.667 36.5 54v323h130v-348c0 -27.333 1.33301 -54.166 4 -80.499s6.66699 -50.166 12 -71.499h-98l-23 74h-4
c-15.333 -25.333 -36.666 -46.333 -63.999 -63s-59.666 -25 -96.999 -25c-25.333 0 -48 3.33301 -68 10s-36.667 17.667 -50 33s-23.5 36 -30.5 62s-10.5 58.667 -10.5 98v311h130zM260.998 719.998h132v-30l-111 -124h-74z" />
    <glyph glyph-name="ucircumflex" unicode="&#xfb;" horiz-adv-x="538" 
d="M182 500l-0.00195312 -284.002c0 -40.667 4.83301 -70 14.5 -88s28.5 -27 56.5 -27c24.667 0 45.167 7.33301 61.5 22s28.5 32.667 36.5 54v323h130v-348c0 -27.333 1.33301 -54.166 4 -80.499s6.66699 -50.166 12 -71.499h-98l-23 74h-4
c-15.333 -25.333 -36.666 -46.333 -63.999 -63s-59.666 -25 -96.999 -25c-25.333 0 -48 3.33301 -68 10s-36.667 17.667 -50 33s-23.5 36 -30.5 62s-10.5 58.667 -10.5 98v311h130zM231.998 731.998h86l111 -182h-103l-39 66l-17 49l-17 -49l-45 -66h-99z" />
    <glyph glyph-name="udieresis" unicode="&#xfc;" horiz-adv-x="538" 
d="M182 500l-0.00195312 -284.002c0 -40.667 4.83301 -70 14.5 -88s28.5 -27 56.5 -27c24.667 0 45.167 7.33301 61.5 22s28.5 32.667 36.5 54v323h130v-348c0 -27.333 1.33301 -54.166 4 -80.499s6.66699 -50.166 12 -71.499h-98l-23 74h-4
c-15.333 -25.333 -36.666 -46.333 -63.999 -63s-59.666 -25 -96.999 -25c-25.333 0 -48 3.33301 -68 10s-36.667 17.667 -50 33s-23.5 36 -30.5 62s-10.5 58.667 -10.5 98v311h130zM87.998 650.998c0 21.333 6.5 38.333 19.5 51s30.167 19 51.5 19
s38.166 -6.33301 50.499 -19s18.5 -29.667 18.5 -51c0 -20 -6.16699 -36.333 -18.5 -49s-29.166 -19 -50.499 -19s-38.5 6.33301 -51.5 19s-19.5 29 -19.5 49zM306.998 650.998c0 21.333 6.16699 38.333 18.5 51s29.166 19 50.499 19s38.5 -6.33301 51.5 -19
s19.5 -29.667 19.5 -51c0 -20 -6.5 -36.333 -19.5 -49s-30.167 -19 -51.5 -19s-38.166 6.33301 -50.499 19s-18.5 29 -18.5 49z" />
    <glyph glyph-name="yacute" unicode="&#xfd;" horiz-adv-x="478" 
d="M239 219l18.0039 -78h6l13 79l76 280h134l-152 -451c-12.667 -37.333 -24.834 -71.5 -36.501 -102.5s-24.5 -57.833 -38.5 -80.5s-29.5 -40.167 -46.5 -52.5s-37.167 -18.5 -60.5 -18.5c-34.667 0 -62.334 5.66699 -83.001 17l24 104c10 -4 20 -6 30 -6
c15.333 0 30.166 6.5 44.499 19.5s25.166 36.5 32.499 70.5l-209 500h156zM254.004 720h132v-30l-111 -124h-74z" />
    <glyph glyph-name="thorn" unicode="&#xfe;" horiz-adv-x="540" 
d="M57 700l129.999 0.000976562v-243h4c14 17.333 30.833 31.166 50.5 41.499s45.5 15.5 77.5 15.5c62.667 0 109.667 -19.833 141 -59.5s47 -103.5 47 -191.5c0 -42.667 -5 -81.167 -15 -115.5s-24.833 -63.5 -44.5 -87.5s-43.667 -42.333 -72 -55s-60.833 -19 -97.5 -19
c-20.667 0 -37.667 1.5 -51 4.5s-26.666 7.83301 -39.999 14.5v-205h-130v900zM279.999 404.001c-24 0 -43.499 -6.33398 -58.499 -19.001s-26.5 -31.667 -34.5 -57v-208c9.33301 -7.33301 19.5 -13.166 30.5 -17.499s25.5 -6.5 43.5 -6.5c37.333 0 65.333 13.167 84 39.5
s28 69.833 28 130.5c0 44 -7.33301 78 -22 102s-38.334 36 -71.001 36z" />
    <glyph glyph-name="ydieresis" unicode="&#xff;" horiz-adv-x="478" 
d="M239 219l18.0039 -78h6l13 79l76 280h134l-152 -451c-12.667 -37.333 -24.834 -71.5 -36.501 -102.5s-24.5 -57.833 -38.5 -80.5s-29.5 -40.167 -46.5 -52.5s-37.167 -18.5 -60.5 -18.5c-34.667 0 -62.334 5.66699 -83.001 17l24 104c10 -4 20 -6 30 -6
c15.333 0 30.166 6.5 44.499 19.5s25.166 36.5 32.499 70.5l-209 500h156zM66.0039 651c0 21.333 6.5 38.333 19.5 51s30.167 19 51.5 19s38.166 -6.33301 50.499 -19s18.5 -29.667 18.5 -51c0 -20 -6.16699 -36.333 -18.5 -49s-29.166 -19 -50.499 -19
s-38.5 6.33301 -51.5 19s-19.5 29 -19.5 49zM285.004 651c0 21.333 6.16699 38.333 18.5 51s29.166 19 50.499 19s38.5 -6.33301 51.5 -19s19.5 -29.667 19.5 -51c0 -20 -6.5 -36.333 -19.5 -49s-30.167 -19 -51.5 -19s-38.166 6.33301 -50.499 19s-18.5 29 -18.5 49z" />
    <glyph glyph-name="Amacron" unicode="&#x100;" horiz-adv-x="605" 
d="M405 155h-215l-53 -155h-137l252 705h101l252 -705h-144zM225 265h150l-52 156l-21 110h-5l-21 -111zM129 856h343v-89h-343v89z" />
    <glyph glyph-name="amacron" unicode="&#x101;" horiz-adv-x="496" 
d="M54 471c26.667 12 58.3291 21.5 94.9961 28.5s75 10.5 115 10.5c34.667 0 63.667 -4.16699 87 -12.5s41.833 -20.166 55.5 -35.499s23.334 -33.666 29.001 -54.999s8.5 -45.333 8.5 -72c0 -29.333 -1 -58.833 -3 -88.5s-3.16699 -58.834 -3.5 -87.501
s0.5 -56.5 2.5 -83.5s7 -52.5 15 -76.5h-106l-21 69h-5c-13.333 -20.667 -31.833 -38.5 -55.5 -53.5s-54.167 -22.5 -91.5 -22.5c-23.333 0 -44.333 3.5 -63 10.5s-34.667 17 -48 30s-23.666 28.333 -30.999 46s-11 37.5 -11 59.5c0 30.667 6.83301 56.5 20.5 77.5
s33.334 38 59.001 51s56.334 22 92.001 27s75.5 6.5 119.5 4.5c4.66699 37.333 2 64.166 -8 80.499s-32.333 24.5 -67 24.5c-26 0 -53.5 -2.66699 -82.5 -8s-52.833 -12.333 -71.5 -21zM218.995 99c26 0 46.6689 5.83398 62.002 17.501s26.666 24.167 33.999 37.5v65
c-20.667 2 -40.5 2.33301 -59.5 1s-35.833 -4.33301 -50.5 -9s-26.334 -11.334 -35.001 -20.001s-13 -19.667 -13 -33c0 -18.667 5.5 -33.167 16.5 -43.5s26.167 -15.5 45.5 -15.5zM90.9971 658.001h323v-92h-323v92z" />
    <glyph glyph-name="Abreve" unicode="&#x102;" horiz-adv-x="605" 
d="M405 155h-215l-53 -155h-137l252 705h101l252 -705h-144zM225 265h150l-52 156l-21 110h-5l-21 -111zM164 875c13.333 -17.333 32.668 -30.667 58.001 -40s53.666 -14 84.999 -14c32 0 59.5 5 82.5 15s41.167 23 54.5 39l49 -32c-8 -19.333 -18.667 -36 -32 -50
s-28.333 -25.667 -45 -35s-34.5 -16.333 -53.5 -21s-37.833 -7 -56.5 -7c-18 0 -36.5 2 -55.5 6s-37.167 10.167 -54.5 18.5s-33.333 19.333 -48 33s-26.667 30.5 -36 50.5z" />
    <glyph glyph-name="abreve" unicode="&#x103;" horiz-adv-x="496" 
d="M54 471c26.667 12 58.3291 21.5 94.9961 28.5s75 10.5 115 10.5c34.667 0 63.667 -4.16699 87 -12.5s41.833 -20.166 55.5 -35.499s23.334 -33.666 29.001 -54.999s8.5 -45.333 8.5 -72c0 -29.333 -1 -58.833 -3 -88.5s-3.16699 -58.834 -3.5 -87.501
s0.5 -56.5 2.5 -83.5s7 -52.5 15 -76.5h-106l-21 69h-5c-13.333 -20.667 -31.833 -38.5 -55.5 -53.5s-54.167 -22.5 -91.5 -22.5c-23.333 0 -44.333 3.5 -63 10.5s-34.667 17 -48 30s-23.666 28.333 -30.999 46s-11 37.5 -11 59.5c0 30.667 6.83301 56.5 20.5 77.5
s33.334 38 59.001 51s56.334 22 92.001 27s75.5 6.5 119.5 4.5c4.66699 37.333 2 64.166 -8 80.499s-32.333 24.5 -67 24.5c-26 0 -53.5 -2.66699 -82.5 -8s-52.833 -12.333 -71.5 -21zM218.995 99c26 0 46.6689 5.83398 62.002 17.501s26.666 24.167 33.999 37.5v65
c-20.667 2 -40.5 2.33301 -59.5 1s-35.833 -4.33301 -50.5 -9s-26.334 -11.334 -35.001 -20.001s-13 -19.667 -13 -33c0 -18.667 5.5 -33.167 16.5 -43.5s26.167 -15.5 45.5 -15.5zM142.997 720.001c11.333 -20 27.168 -34.833 47.501 -44.5s41.833 -14.5 64.5 -14.5
s43.5 5 62.5 15s33.5 24.667 43.5 44l60 -27c-2 -16 -7.5 -31.833 -16.5 -47.5s-20.833 -29.5 -35.5 -41.5s-31.834 -21.667 -51.501 -29s-40.834 -11 -63.501 -11c-44 0 -81.667 11.167 -113 33.5s-51.666 52.5 -60.999 90.5z" />
    <glyph glyph-name="Aogonek" unicode="&#x104;" horiz-adv-x="605" 
d="M405 155l-215 0.000976562l-53 -155h-137l252 705h101l252 -705h-21c-38.667 -14.667 -58 -39 -58 -73c0 -17.333 7.33301 -30.166 22 -38.499s35.334 -5.83301 62.001 7.5l19 -62c-10 -8 -25.833 -15.833 -47.5 -23.5s-44.167 -11.5 -67.5 -11.5
c-37.333 0 -65.833 8.33301 -85.5 25s-29.5 38.667 -29.5 66c0 25.333 7.66699 47.166 23 65.499s36.666 33.166 63.999 44.499h-25zM225 265.001h150l-52 156l-21 110h-5l-21 -111z" />
    <glyph glyph-name="aogonek" unicode="&#x105;" horiz-adv-x="496" 
d="M54 466c25.333 14 55.165 24.832 89.498 32.499s74.5 11.5 120.5 11.5c34.667 0 63.667 -4.16699 87 -12.5s41.833 -20.166 55.5 -35.499s23.334 -33.666 29.001 -54.999s8.5 -45.333 8.5 -72c0 -29.333 -1 -58.833 -3 -88.5s-3.16699 -58.834 -3.5 -87.501
s0.5 -56.5 2.5 -83.5s7 -52.5 15 -76.5h-23c-37.333 -16 -56 -40 -56 -72c0 -17.333 7.33301 -30.166 22 -38.499s35.334 -5.83301 62.001 7.5l19 -62c-10 -8 -25.833 -15.833 -47.5 -23.5s-44.167 -11.5 -67.5 -11.5c-37.333 0 -65.833 8.33301 -85.5 25
s-29.5 38.667 -29.5 66c0 26.667 8.83301 49.5 26.5 68.5s41.5 34.167 71.5 45.5l-19 64h-5c-13.333 -20.667 -31.833 -38.5 -55.5 -53.5s-54.167 -22.5 -91.5 -22.5c-23.333 0 -44.333 3.5 -63 10.5s-34.667 17 -48 30s-23.666 28.333 -30.999 46s-11 37.5 -11 59.5
c0 30.667 6.83301 56.5 20.5 77.5s33.167 38 58.5 51s55.833 22 91.5 27s75.5 6.5 119.5 4.5c4.66699 37.333 2.16699 64.166 -7.5 80.499s-31.834 24.5 -66.501 24.5c-26 0 -52.5 -2.83301 -79.5 -8.5s-50.833 -13.167 -71.5 -22.5zM218.999 98.999
c26 0 46.6689 5.83398 62.002 17.501s26.666 24.167 33.999 37.5v65c-20.667 2 -40.5 2.33301 -59.5 1s-35.833 -4.33301 -50.5 -9s-26.334 -11.334 -35.001 -20.001s-13 -19.667 -13 -33c0 -18.667 5.5 -33.167 16.5 -43.5s26.167 -15.5 45.5 -15.5z" />
    <glyph glyph-name="Cacute" unicode="&#x106;" horiz-adv-x="559" 
d="M534 29c-21.333 -15.333 -48.4961 -26.3311 -81.4961 -32.998s-66.833 -10 -101.5 -10c-42 0 -81.833 6.5 -119.5 19.5s-70.834 34 -99.501 63s-51.5 66.667 -68.5 113s-25.5 102.5 -25.5 168.5c0 68.667 9.5 126.167 28.5 172.5s43.667 83.666 74 111.999
s64.166 48.666 101.499 60.999s74.666 18.5 111.999 18.5c40 0 73.833 -2.66699 101.5 -8s50.5 -11.666 68.5 -18.999l-27 -116c-15.333 7.33301 -33.5 12.666 -54.5 15.999s-46.5 5 -76.5 5c-55.333 0 -99.833 -19.667 -133.5 -59s-50.5 -100.333 -50.5 -183
c0 -36 4 -68.833 12 -98.5s20.167 -55 36.5 -76s36.666 -37.333 60.999 -49s52.5 -17.5 84.5 -17.5c30 0 55.333 3 76 9s38.667 13.667 54 23zM376.004 870.002h159v-30l-160 -88h-103z" />
    <glyph glyph-name="cacute" unicode="&#x107;" horiz-adv-x="433" 
d="M411 31c-20 -14.667 -44.167 -25.834 -72.5 -33.501s-57.5 -11.5 -87.5 -11.5c-40 0 -73.833 6.33301 -101.5 19s-50.167 30.5 -67.5 53.5s-29.833 50.833 -37.5 83.5s-11.5 68.667 -11.5 108c0 84.667 19 149.834 57 195.501s93.333 68.5 166 68.5
c36.667 0 66.167 -3 88.5 -9s42.5 -13.667 60.5 -23l-31 -106c-15.333 7.33301 -30.5 13 -45.5 17s-32.167 6 -51.5 6c-36 0 -63.333 -11.833 -82 -35.5s-28 -61.5 -28 -113.5c0 -21.333 2.33301 -41 7 -59s11.667 -33.667 21 -47s21.5 -23.833 36.5 -31.5
s32.5 -11.5 52.5 -11.5c22 0 40.667 2.83301 56 8.5s29 12.5 41 20.5zM250 720h132v-30l-111 -124h-74z" />
    <glyph glyph-name="Ccircumflex" unicode="&#x108;" horiz-adv-x="559" 
d="M534 29c-21.333 -15.333 -48.4961 -26.3311 -81.4961 -32.998s-66.833 -10 -101.5 -10c-42 0 -81.833 6.5 -119.5 19.5s-70.834 34 -99.501 63s-51.5 66.667 -68.5 113s-25.5 102.5 -25.5 168.5c0 68.667 9.5 126.167 28.5 172.5s43.667 83.666 74 111.999
s64.166 48.666 101.499 60.999s74.666 18.5 111.999 18.5c40 0 73.833 -2.66699 101.5 -8s50.5 -11.666 68.5 -18.999l-27 -116c-15.333 7.33301 -33.5 12.666 -54.5 15.999s-46.5 5 -76.5 5c-55.333 0 -99.833 -19.667 -133.5 -59s-50.5 -100.333 -50.5 -183
c0 -36 4 -68.833 12 -98.5s20.167 -55 36.5 -76s36.666 -37.333 60.999 -49s52.5 -17.5 84.5 -17.5c30 0 55.333 3 76 9s38.667 13.667 54 23zM288.004 870.002h96l127 -93v-39h-99l-57 41l-20 34l-21 -33l-62 -42h-97v40z" />
    <glyph glyph-name="ccircumflex" unicode="&#x109;" horiz-adv-x="433" 
d="M411 31c-20 -14.667 -44.167 -25.834 -72.5 -33.501s-57.5 -11.5 -87.5 -11.5c-40 0 -73.833 6.33301 -101.5 19s-50.167 30.5 -67.5 53.5s-29.833 50.833 -37.5 83.5s-11.5 68.667 -11.5 108c0 84.667 19 149.834 57 195.501s93.333 68.5 166 68.5
c36.667 0 66.167 -3 88.5 -9s42.5 -13.667 60.5 -23l-31 -106c-15.333 7.33301 -30.5 13 -45.5 17s-32.167 6 -51.5 6c-36 0 -63.333 -11.833 -82 -35.5s-28 -61.5 -28 -113.5c0 -21.333 2.33301 -41 7 -59s11.667 -33.667 21 -47s21.5 -23.833 36.5 -31.5
s32.5 -11.5 52.5 -11.5c22 0 40.667 2.83301 56 8.5s29 12.5 41 20.5zM204 732h86l111 -182h-103l-39 66l-17 49l-17 -49l-45 -66h-99z" />
    <glyph glyph-name="Ccaron" unicode="&#x10c;" horiz-adv-x="559" 
d="M534 29c-21.333 -15.333 -48.4961 -26.3311 -81.4961 -32.998s-66.833 -10 -101.5 -10c-42 0 -81.833 6.5 -119.5 19.5s-70.834 34 -99.501 63s-51.5 66.667 -68.5 113s-25.5 102.5 -25.5 168.5c0 68.667 9.5 126.167 28.5 172.5s43.667 83.666 74 111.999
s64.166 48.666 101.499 60.999s74.666 18.5 111.999 18.5c40 0 73.833 -2.66699 101.5 -8s50.5 -11.666 68.5 -18.999l-27 -116c-15.333 7.33301 -33.5 12.666 -54.5 15.999s-46.5 5 -76.5 5c-55.333 0 -99.833 -19.667 -133.5 -59s-50.5 -100.333 -50.5 -183
c0 -36 4 -68.833 12 -98.5s20.167 -55 36.5 -76s36.666 -37.333 60.999 -49s52.5 -17.5 84.5 -17.5c30 0 55.333 3 76 9s38.667 13.667 54 23zM386.004 737.002h-94l-127 94v39h105l53 -45l19 -30l21 29l56 46h100v-40z" />
    <glyph glyph-name="ccaron" unicode="&#x10d;" horiz-adv-x="433" 
d="M411 31c-20 -14.667 -44.167 -25.834 -72.5 -33.501s-57.5 -11.5 -87.5 -11.5c-40 0 -73.833 6.33301 -101.5 19s-50.167 30.5 -67.5 53.5s-29.833 50.833 -37.5 83.5s-11.5 68.667 -11.5 108c0 84.667 19 149.834 57 195.501s93.333 68.5 166 68.5
c36.667 0 66.167 -3 88.5 -9s42.5 -13.667 60.5 -23l-31 -106c-15.333 7.33301 -30.5 13 -45.5 17s-32.167 6 -51.5 6c-36 0 -63.333 -11.833 -82 -35.5s-28 -61.5 -28 -113.5c0 -21.333 2.33301 -41 7 -59s11.667 -33.667 21 -47s21.5 -23.833 36.5 -31.5
s32.5 -11.5 52.5 -11.5c22 0 40.667 2.83301 56 8.5s29 12.5 41 20.5zM286 550h-91l-115 182h110l39 -66l16 -49l18 49l45 66h101z" />
    <glyph glyph-name="Dcaron" unicode="&#x10e;" horiz-adv-x="647" 
d="M60 700c14 2 29.832 3.66504 47.499 4.99805s35.834 2.33301 54.501 3s36.834 1.16699 54.501 1.5s33.5 0.5 47.5 0.5c62 0 115 -8.66699 159 -26s79.667 -41.666 107 -72.999s47.333 -68.666 60 -111.999s19 -91 19 -143c0 -47.333 -6 -93 -18 -137s-32 -83 -60 -117
s-64.833 -61.333 -110.5 -82s-102.167 -31 -169.5 -31c-10.667 0 -24.834 0.333008 -42.501 1s-36 1.5 -55 2.5l-54.5 3c-17.333 1 -30.333 2.16699 -39 3.5v701zM274.999 587.998c-14.667 0 -29.501 -0.335938 -44.501 -1.00293s-26.167 -1.66699 -33.5 -3v-469
c2.66699 -0.666992 7.16699 -1.16699 13.5 -1.5s13.166 -0.666016 20.499 -0.999023l21 -1c6.66699 -0.333008 11.667 -0.5 15 -0.5c38.667 0 70.834 6.83301 96.501 20.5s46 31.834 61 54.501s25.5 48.834 31.5 78.501s9 60.167 9 91.5c0 27.333 -2.66699 54.833 -8 82.5
s-15.166 52.5 -29.499 74.5s-33.833 40 -58.5 54s-56 21 -94 21zM327.998 736.995h-94l-127 94v39h105l53 -45l19 -30l21 29l56 46h100v-40z" />
    <glyph glyph-name="dcaron" unicode="&#x10f;" horiz-adv-x="639" 
d="M482 176c0 -28 0.333984 -56.001 1.00098 -84.001s3.66699 -59 9 -93h-93l-18 65h-4c-13.333 -23.333 -32.5 -42.166 -57.5 -56.499s-54.5 -21.5 -88.5 -21.5c-62.667 0 -111.334 20.667 -146.001 62s-52 106 -52 194c0 85.333 19.333 151.666 58 198.999
s95.334 71 170.001 71c20.667 0 37.667 -1.16699 51 -3.5s26.666 -6.16602 39.999 -11.499v203h130v-524zM261.001 95.999c25.333 0 45.332 6.16797 59.999 18.501s25 30.166 31 53.499v212c-9.33301 7.33301 -19.666 12.833 -30.999 16.5s-26 5.5 -44 5.5
c-36.667 0 -64.167 -12.333 -82.5 -37s-27.5 -67 -27.5 -127c0 -42.667 7.5 -77 22.5 -103s38.833 -39 71.5 -39zM655 700c-1.33301 -19.333 -5.33301 -39.5 -12 -60.5s-14.5 -41 -23.5 -60s-18.5 -36 -28.5 -51s-19 -25.833 -27 -32.5l-58 31c11.333 24 20 51.167 26 81.5
s9 60.833 9 91.5h114z" />
    <glyph glyph-name="Dcroat" unicode="&#x110;" horiz-adv-x="669" 
d="M-6 401l87.999 -0.00195312v299c14 2 29.833 3.66699 47.5 5s35.834 2.33301 54.501 3s36.834 1.16699 54.501 1.5s33.5 0.5 47.5 0.5c62 0 115 -8.66699 159 -26s79.667 -41.666 107 -72.999s47.333 -68.666 60 -111.999s19 -91 19 -143c0 -47.333 -6 -93 -18 -137
s-32 -83 -60 -117s-64.833 -61.333 -110.5 -82s-102.167 -31 -169.5 -31c-10.667 0 -24.834 0.333008 -42.501 1s-36 1.5 -55 2.5l-54.5 3c-17.333 1 -30.333 2.16699 -39 3.5v322h-88v80zM296.999 587.998c-14.667 0 -29.501 -0.335938 -44.501 -1.00293
s-26.167 -1.66699 -33.5 -3v-183h140v-80h-140v-207c2.66699 -0.666992 7.16699 -1.16699 13.5 -1.5s13.166 -0.666016 20.499 -0.999023s14.333 -0.5 21 -0.5h15c38.667 0 70.834 6.83301 96.501 20.5s46 31.834 61 54.501s25.5 48.834 31.5 78.501s9 60.167 9 91.5
c0 27.333 -2.66699 54.833 -8 82.5s-15.166 52.5 -29.499 74.5s-33.833 40 -58.5 54s-56 21 -94 21z" />
    <glyph glyph-name="dcroat" unicode="&#x111;" horiz-adv-x="550" 
d="M482 641l76.001 -0.000976562v-80h-76v-385c0 -28 0.333008 -56 1 -84s3.66699 -59 9 -93h-93l-18 65h-4c-13.333 -23.333 -32.5 -42.166 -57.5 -56.499s-54.5 -21.5 -88.5 -21.5c-62.667 0 -111.334 20.667 -146.001 62s-52 106 -52 194
c0 85.333 19.333 151.666 58 198.999s95.334 71 170.001 71c20.667 0 37.667 -1.16699 51 -3.5s26.666 -6.16602 39.999 -11.499v64h-148v80h148v59h130v-59zM261.001 95.999c25.333 0 45.332 6.16797 59.999 18.501s25 30.166 31 53.499v212
c-9.33301 7.33301 -19.666 12.833 -30.999 16.5s-26 5.5 -44 5.5c-36.667 0 -64.167 -12.333 -82.5 -37s-27.5 -67 -27.5 -127c0 -42.667 7.5 -77 22.5 -103s38.833 -39 71.5 -39z" />
    <glyph glyph-name="Emacron" unicode="&#x112;" horiz-adv-x="522" 
d="M60 700h415v-122h-278v-163h253v-122h-253v-171h283v-122h-420v700zM95 856h343v-89h-343v89z" />
    <glyph glyph-name="emacron" unicode="&#x113;" horiz-adv-x="508" 
d="M457 43c-20 -16 -47.167 -29.5 -81.5 -40.5s-70.833 -16.5 -109.5 -16.5c-80.667 0 -139.667 23.5 -177 70.5s-56 111.5 -56 193.5c0 88 21 154 63 198s101 66 177 66c25.333 0 50 -3.33301 74 -10s45.333 -17.667 64 -33s33.667 -36 45 -62s17 -58.333 17 -97
c0 -14 -0.833008 -29 -2.5 -45s-4.16699 -32.667 -7.5 -50h-300c2 -42 12.833 -73.667 32.5 -95s51.5 -32 95.5 -32c27.333 0 51.833 4.16699 73.5 12.5s38.167 16.833 49.5 25.5zM271 410c-34 0 -59.168 -10.167 -75.501 -30.5s-26.166 -47.5 -29.499 -81.5h186
c2.66699 36 -2.83301 63.667 -16.5 83s-35.167 29 -64.5 29zM96.999 658h323v-92h-323v92z" />
    <glyph glyph-name="Edotaccent" unicode="&#x116;" horiz-adv-x="522" 
d="M60 700h415v-122h-278v-163h253v-122h-253v-171h283v-122h-420v700zM191 799c0 16.667 7.16699 31 21.5 43s35.833 18 64.5 18s50.667 -6 66 -18s23 -26.333 23 -43c0 -17.333 -7.66699 -32 -23 -44s-37.333 -18 -66 -18s-50.167 6 -64.5 18s-21.5 26.667 -21.5 44z" />
    <glyph glyph-name="edotaccent" unicode="&#x117;" horiz-adv-x="508" 
d="M457 43c-20 -16 -47.167 -29.5 -81.5 -40.5s-70.833 -16.5 -109.5 -16.5c-80.667 0 -139.667 23.5 -177 70.5s-56 111.5 -56 193.5c0 88 21 154 63 198s101 66 177 66c25.333 0 50 -3.33301 74 -10s45.333 -17.667 64 -33s33.667 -36 45 -62s17 -58.333 17 -97
c0 -14 -0.833008 -29 -2.5 -45s-4.16699 -32.667 -7.5 -50h-300c2 -42 12.833 -73.667 32.5 -95s51.5 -32 95.5 -32c27.333 0 51.833 4.16699 73.5 12.5s38.167 16.833 49.5 25.5zM271 410c-34 0 -59.168 -10.167 -75.501 -30.5s-26.166 -47.5 -29.499 -81.5h186
c2.66699 36 -2.83301 63.667 -16.5 83s-35.167 29 -64.5 29zM185.999 641c0 19.333 7.16699 35.833 21.5 49.5s34.166 20.5 59.499 20.5s45.833 -6.83301 61.5 -20.5s23.5 -30.167 23.5 -49.5s-7.83301 -35.5 -23.5 -48.5s-36.167 -19.5 -61.5 -19.5
s-45.166 6.5 -59.499 19.5s-21.5 29.167 -21.5 48.5z" />
    <glyph glyph-name="Eogonek" unicode="&#x118;" horiz-adv-x="522" 
d="M60 700l415.002 0.00195312v-122h-278v-163h253v-122h-253v-171h283v-122h-27c-38.667 -14.667 -58 -39 -58 -73c0 -12 3.66699 -22.167 11 -30.5s17.666 -12.5 30.999 -12.5c12 0 26 4 42 12l19 -62c-10 -8 -25.833 -15.833 -47.5 -23.5s-44.167 -11.5 -67.5 -11.5
c-37.333 0 -65.833 8.33301 -85.5 25s-29.5 38.667 -29.5 66c0 25.333 7.66699 47.166 23 65.499s36.666 33.166 63.999 44.499h-295v700z" />
    <glyph glyph-name="eogonek" unicode="&#x119;" horiz-adv-x="508" 
d="M457 43c-16.667 -13.333 -38.666 -24.998 -65.999 -34.998c-32 -20.667 -48 -46 -48 -76c0 -8.66699 2 -16.5 6 -23.5s9.5 -12.5 16.5 -16.5s15.667 -5.83301 26 -5.5s22.166 3.83301 35.499 10.5l19 -62c-10 -8 -25.667 -16 -47 -24s-43.666 -12 -66.999 -12
c-38 0 -66.833 9.16699 -86.5 27.5s-29.5 41.166 -29.5 68.499c0 18.667 4 35.667 12 51s19.333 28.666 34 39.999c-78.667 0.666992 -136.334 24 -173.001 70c-37.333 47.333 -56 112 -56 194c0 88 21 154 63 198s101 66 177 66c25.333 0 50 -3.33301 74 -10
s45.333 -17.667 64 -33s33.667 -36 45 -62s17 -58.333 17 -97c0 -14 -0.833008 -29 -2.5 -45s-4.16699 -32.667 -7.5 -50h-300c2 -42 12.833 -73.667 32.5 -95s51.5 -32 95.5 -32c27.333 0 51.833 4.16699 73.5 12.5s38.167 16.833 49.5 25.5zM271.001 410.002
c-34 0 -59.168 -10.167 -75.501 -30.5s-26.166 -47.5 -29.499 -81.5h186c2.66699 36 -2.83301 63.667 -16.5 83s-35.167 29 -64.5 29z" />
    <glyph glyph-name="Ecaron" unicode="&#x11a;" horiz-adv-x="522" 
d="M60 700h415v-122h-278v-163h253v-122h-253v-171h283v-122h-420v700zM308 737h-94l-127 94v39h105l53 -45l19 -30l21 29l56 46h100v-40z" />
    <glyph glyph-name="ecaron" unicode="&#x11b;" horiz-adv-x="508" 
d="M457 43c-20 -16 -47.167 -29.5 -81.5 -40.5s-70.833 -16.5 -109.5 -16.5c-80.667 0 -139.667 23.5 -177 70.5s-56 111.5 -56 193.5c0 88 21 154 63 198s101 66 177 66c25.333 0 50 -3.33301 74 -10s45.333 -17.667 64 -33s33.667 -36 45 -62s17 -58.333 17 -97
c0 -14 -0.833008 -29 -2.5 -45s-4.16699 -32.667 -7.5 -50h-300c2 -42 12.833 -73.667 32.5 -95s51.5 -32 95.5 -32c27.333 0 51.833 4.16699 73.5 12.5s38.167 16.833 49.5 25.5zM271 410c-34 0 -59.168 -10.167 -75.501 -30.5s-26.166 -47.5 -29.499 -81.5h186
c2.66699 36 -2.83301 63.667 -16.5 83s-35.167 29 -64.5 29zM303.999 550h-91l-115 182h110l39 -66l16 -49l18 49l45 66h101z" />
    <glyph glyph-name="Gcircumflex" unicode="&#x11c;" horiz-adv-x="609" 
d="M307 365l261.003 0.000976562v-312c-28 -23.333 -61.5 -40.333 -100.5 -51s-77.5 -16 -115.5 -16c-44.667 0 -86.167 7 -124.5 21s-71.5 35.833 -99.5 65.5s-50 67.5 -66 113.5s-24 100.667 -24 164c0 66 9.5 122.167 28.5 168.5s44 84 75 113s65.833 50 104.5 63
s78 19.5 118 19.5s75.167 -3 105.5 -9s54.5 -12.333 72.5 -19l-28 -115c-16.667 6.66699 -35.334 11.834 -56.001 15.501s-47 5.5 -79 5.5c-28.667 0 -55 -4.33301 -79 -13s-44.833 -22.834 -62.5 -42.501s-31.334 -44.834 -41.001 -75.501s-14.5 -68 -14.5 -112
c0 -42 4.66699 -78.167 14 -108.5s22.333 -55.333 39 -75s36.167 -34.167 58.5 -43.5s46.166 -14 71.499 -14c17.333 0 34.333 2.16699 51 6.5s30.667 10.833 42 19.5v132l-151 16v83zM303.003 870.001h96l127 -93v-39h-99l-57 41l-20 34l-21 -33l-62 -42h-97v40z" />
    <glyph glyph-name="gcircumflex" unicode="&#x11d;" horiz-adv-x="536" 
d="M480 0c0 -72.667 -19.666 -126.167 -58.999 -160.5s-94.333 -51.5 -165 -51.5c-48 0 -85.833 3.33301 -113.5 10s-48.5 13.667 -62.5 21l27 103c15.333 -6 33.166 -12 53.499 -18s45.5 -9 75.5 -9c45.333 0 76.166 9.83301 92.499 29.5s24.5 47.167 24.5 82.5v32h-4
c-23.333 -31.333 -64.666 -47 -123.999 -47c-64.667 0 -112.834 20 -144.501 60s-47.5 102.667 -47.5 188c0 89.333 21.333 157 64 203s104.667 69 186 69c42.667 0 80.834 -3 114.501 -9s61.167 -13 82.5 -21v-482zM260.001 96c25.333 0 44.834 5.66699 58.501 17
s24.167 28.333 31.5 51v225c-20.667 8.66699 -46.334 13 -77.001 13c-33.333 0 -59.333 -12.5 -78 -37.5s-28 -64.833 -28 -119.5c0 -48.667 8 -85.667 24 -111s39 -38 69 -38zM238.002 732h86l111 -182h-103l-39 66l-17 49l-17 -49l-45 -66h-99z" />
    <glyph glyph-name="Gbreve" unicode="&#x11e;" horiz-adv-x="609" 
d="M307 365l261.003 0.000976562v-312c-28 -23.333 -61.5 -40.333 -100.5 -51s-77.5 -16 -115.5 -16c-44.667 0 -86.167 7 -124.5 21s-71.5 35.833 -99.5 65.5s-50 67.5 -66 113.5s-24 100.667 -24 164c0 66 9.5 122.167 28.5 168.5s44 84 75 113s65.833 50 104.5 63
s78 19.5 118 19.5s75.167 -3 105.5 -9s54.5 -12.333 72.5 -19l-28 -115c-16.667 6.66699 -35.334 11.834 -56.001 15.501s-47 5.5 -79 5.5c-28.667 0 -55 -4.33301 -79 -13s-44.833 -22.834 -62.5 -42.501s-31.334 -44.834 -41.001 -75.501s-14.5 -68 -14.5 -112
c0 -42 4.66699 -78.167 14 -108.5s22.333 -55.333 39 -75s36.167 -34.167 58.5 -43.5s46.166 -14 71.499 -14c17.333 0 34.333 2.16699 51 6.5s30.667 10.833 42 19.5v132l-151 16v83zM196.003 875.001c13.333 -17.333 32.668 -30.667 58.001 -40s53.666 -14 84.999 -14
c32 0 59.5 5 82.5 15s41.167 23 54.5 39l49 -32c-8 -19.333 -18.667 -36 -32 -50s-28.333 -25.667 -45 -35s-34.5 -16.333 -53.5 -21s-37.833 -7 -56.5 -7c-18 0 -36.5 2 -55.5 6s-37.167 10.167 -54.5 18.5s-33.333 19.333 -48 33s-26.667 30.5 -36 50.5z" />
    <glyph glyph-name="gbreve" unicode="&#x11f;" horiz-adv-x="536" 
d="M480 0c0 -72.667 -19.666 -126.167 -58.999 -160.5s-94.333 -51.5 -165 -51.5c-48 0 -85.833 3.33301 -113.5 10s-48.5 13.667 -62.5 21l27 103c15.333 -6 33.166 -12 53.499 -18s45.5 -9 75.5 -9c45.333 0 76.166 9.83301 92.499 29.5s24.5 47.167 24.5 82.5v32h-4
c-23.333 -31.333 -64.666 -47 -123.999 -47c-64.667 0 -112.834 20 -144.501 60s-47.5 102.667 -47.5 188c0 89.333 21.333 157 64 203s104.667 69 186 69c42.667 0 80.834 -3 114.501 -9s61.167 -13 82.5 -21v-482zM260.001 96c25.333 0 44.834 5.66699 58.501 17
s24.167 28.333 31.5 51v225c-20.667 8.66699 -46.334 13 -77.001 13c-33.333 0 -59.333 -12.5 -78 -37.5s-28 -64.833 -28 -119.5c0 -48.667 8 -85.667 24 -111s39 -38 69 -38zM158.002 720c11.333 -20 27.168 -34.833 47.501 -44.5s41.833 -14.5 64.5 -14.5s43.5 5 62.5 15
s33.5 24.667 43.5 44l60 -27c-2 -16 -7.5 -31.833 -16.5 -47.5s-20.833 -29.5 -35.5 -41.5s-31.834 -21.667 -51.501 -29s-40.834 -11 -63.501 -11c-44 0 -81.667 11.167 -113 33.5s-51.666 52.5 -60.999 90.5z" />
    <glyph glyph-name="Gcommaaccent" unicode="&#x122;" horiz-adv-x="609" 
d="M307 365l261.003 0.000976562v-312c-28 -23.333 -61.5 -40.333 -100.5 -51s-77.5 -16 -115.5 -16c-44.667 0 -86.167 7 -124.5 21s-71.5 35.833 -99.5 65.5s-50 67.5 -66 113.5s-24 100.667 -24 164c0 66 9.5 122.167 28.5 168.5s44 84 75 113s65.833 50 104.5 63
s78 19.5 118 19.5s75.167 -3 105.5 -9s54.5 -12.333 72.5 -19l-28 -115c-16.667 6.66699 -35.334 11.834 -56.001 15.501s-47 5.5 -79 5.5c-28.667 0 -55 -4.33301 -79 -13s-44.833 -22.834 -62.5 -42.501s-31.334 -44.834 -41.001 -75.501s-14.5 -68 -14.5 -112
c0 -42 4.66699 -78.167 14 -108.5s22.333 -55.333 39 -75s36.167 -34.167 58.5 -43.5s46.166 -14 71.499 -14c17.333 0 34.333 2.16699 51 6.5s30.667 10.833 42 19.5v132l-151 16v83zM278.003 -104.999c0 19.333 6.50098 34.6689 19.501 46.002s29.167 17 48.5 17
c23.333 0 42.333 -7.66699 57 -23s22 -37 22 -65c0 -22 -3.66699 -41.333 -11 -58s-16.333 -30.834 -27 -42.501s-22 -21 -34 -28s-22.333 -11.833 -31 -14.5l-34 54c9.33301 4.66699 18.666 11.167 27.999 19.5s14.666 19.5 15.999 33.5
c-13.333 -0.666992 -25.666 4.16602 -36.999 14.499s-17 25.833 -17 46.5z" />
    <glyph glyph-name="gcommaaccent" unicode="&#x123;" horiz-adv-x="536" 
d="M480 0c0 -72.667 -19.666 -126.167 -58.999 -160.5s-94.333 -51.5 -165 -51.5c-48 0 -85.833 3.33301 -113.5 10s-48.5 13.667 -62.5 21l27 103c15.333 -6 33.166 -12 53.499 -18s45.5 -9 75.5 -9c45.333 0 76.166 9.83301 92.499 29.5s24.5 47.167 24.5 82.5v32h-4
c-23.333 -31.333 -64.666 -47 -123.999 -47c-64.667 0 -112.834 20 -144.501 60s-47.5 102.667 -47.5 188c0 89.333 21.333 157 64 203s104.667 69 186 69c42.667 0 80.834 -3 114.501 -9s61.167 -13 82.5 -21v-482zM260.001 96c25.333 0 44.834 5.66699 58.501 17
s24.167 28.333 31.5 51v225c-20.667 8.66699 -46.334 13 -77.001 13c-33.333 0 -59.333 -12.5 -78 -37.5s-28 -64.833 -28 -119.5c0 -48.667 8 -85.667 24 -111s39 -38 69 -38zM359.006 613.993c0 -19.332 -6.5 -34.665 -19.499 -45.998s-29.165 -16.999 -48.4971 -16.999
c-23.332 0 -42.3311 7.66602 -56.9961 22.999c-14.666 15.332 -21.999 36.9971 -21.999 64.9961c0 21.999 3.66602 41.3311 10.999 57.9961c7.33301 16.666 16.333 30.832 26.999 42.498c10.666 11.665 21.998 20.998 33.9971 27.998
c11.999 6.99902 22.332 11.832 30.998 14.499l33.998 -53.9971c-9.33301 -4.66602 -18.666 -11.165 -27.999 -19.498s-14.666 -19.499 -15.999 -33.498c13.333 0.666992 25.666 -4.16602 36.999 -14.499c11.333 -10.332 16.999 -25.8311 16.999 -46.4971z" />
    <glyph glyph-name="Hcircumflex" unicode="&#x124;" horiz-adv-x="651" 
d="M453 293h-256v-293h-137v700h137v-285h256v285h137v-700h-137v293zM278 870h96l127 -93v-39h-99l-57 41l-20 34l-21 -33l-62 -42h-97v40z" />
    <glyph glyph-name="hcircumflex" unicode="&#x125;" horiz-adv-x="545" 
d="M363 0l0.000976562 283.999c0 40.667 -5.66699 70 -17 88s-32 27 -62 27c-22 0 -42.167 -7.5 -60.5 -22.5s-30.5 -34.167 -36.5 -57.5v-319h-130v700h130v-256h4c16 21.333 35.667 38.333 59 51s53 19 89 19c25.333 0 47.666 -3.33301 66.999 -10s35.5 -17.667 48.5 -33
s22.667 -36.166 29 -62.499s9.5 -58.833 9.5 -97.5v-311h-130zM88.001 869.999h96l127 -93v-39h-99l-57 41l-20 34l-21 -33l-62 -42h-97v40z" />
    <glyph glyph-name="Hbar" unicode="&#x126;" horiz-adv-x="683" 
d="M2 598h75v102h137v-102h256v102h137v-102h74v-82h-74v-516h-137v293h-256v-293h-137v516h-75v82zM470 415v101h-256v-101h256z" />
    <glyph glyph-name="hbar" unicode="&#x127;" horiz-adv-x="556" 
d="M-6 641l74.001 -0.000976562v59h130v-59h161v-80h-161v-117h4c16 21.333 35.667 38.333 59 51s53 19 89 19c25.333 0 47.666 -3.33301 66.999 -10s35.5 -17.667 48.5 -33s22.667 -36.166 29 -62.499s9.5 -58.833 9.5 -97.5v-311h-130v284c0 40.667 -5.66699 70 -17 88
s-32 27 -62 27c-22 0 -42.167 -7.5 -60.5 -22.5s-30.5 -34.167 -36.5 -57.5v-319h-130v561h-74v80z" />
    <glyph glyph-name="Imacron" unicode="&#x12a;" horiz-adv-x="285" 
d="M74 700h137v-700h-137v700zM-25 856h343v-89h-343v89z" />
    <glyph glyph-name="imacron" unicode="&#x12b;" horiz-adv-x="269" 
d="M70 500h130v-500h-130v500zM-27 658h323v-92h-323v92z" />
    <glyph glyph-name="Iogonek" unicode="&#x12e;" horiz-adv-x="285" 
d="M74 700l137.002 0.00195312v-700h-14c-15.333 -8 -27.333 -18 -36 -30s-12.667 -26.333 -12 -43c0 -12 3.66699 -22.167 11 -30.5s17.666 -12.5 30.999 -12.5c11.333 0 25 4 41 12l20 -62c-10 -8 -25.833 -16 -47.5 -24s-44.167 -12 -67.5 -12
c-38 0 -66.667 8.5 -86 25.5s-29 39.167 -29 66.5c0 25.333 7.66699 47.166 23 65.499s36.666 33.166 63.999 44.499h-35v700z" />
    <glyph glyph-name="iogonek" unicode="&#x12f;" horiz-adv-x="270" 
d="M70 500l130.001 0.00195312v-500h-13c-15.333 -9.33301 -27 -20 -35 -32s-12 -25.667 -12 -41c0.666992 -12 4.66699 -22.167 12 -30.5s17.666 -12.5 30.999 -12.5c11.333 0 25 4 41 12l19 -62c-10 -8 -25.667 -16 -47 -24s-43.666 -12 -66.999 -12
c-38 0 -66.833 8.5 -86.5 25.5s-29.5 39.167 -29.5 66.5c0 25.333 7.66699 47.166 23 65.499s36.666 33.166 63.999 44.499h-30v500zM51.001 641.002c0 19.333 7.16699 35.833 21.5 49.5s34.166 20.5 59.499 20.5s45.833 -6.83301 61.5 -20.5s23.5 -30.167 23.5 -49.5
s-7.83301 -35.5 -23.5 -48.5s-36.167 -19.5 -61.5 -19.5s-45.166 6.5 -59.499 19.5s-21.5 29.167 -21.5 48.5z" />
    <glyph glyph-name="Idotaccent" unicode="&#x130;" horiz-adv-x="285" 
d="M74 700h137v-700h-137v700zM57 799c0 16.667 7.16699 31 21.5 43s35.833 18 64.5 18s50.667 -6 66 -18s23 -26.333 23 -43c0 -17.333 -7.66699 -32 -23 -44s-37.333 -18 -66 -18s-50.167 6 -64.5 18s-21.5 26.667 -21.5 44z" />
    <glyph glyph-name="dotlessi" unicode="&#x131;" horiz-adv-x="269" 
d="M70 500h130v-500h-130v500z" />
    <glyph glyph-name="Jcircumflex" unicode="&#x134;" horiz-adv-x="334" 
d="M131 700h137.001v-512c0 -26.667 -3 -52 -9 -76s-15.833 -45.167 -29.5 -63.5s-31.167 -33 -52.5 -44s-47.333 -16.5 -78 -16.5c-19.333 0 -40.333 2 -63 6s-42.334 9.66699 -59.001 17l30 112c17.333 -8.66699 37 -13 59 -13c28 0 45.833 10.333 53.5 31
s11.5 48 11.5 82v477zM154.001 870h96l127 -93v-39h-99l-57 41l-20 34l-21 -33l-62 -42h-97v40z" />
    <glyph glyph-name="jcircumflex" unicode="&#x135;" horiz-adv-x="268" 
d="M69 500h130v-521c0 -60.667 -12 -107 -36 -139s-62.333 -48 -115 -48c-20 0 -41.333 2.33301 -64 7v109c2.66699 0 5 -0.166992 7 -0.5s4 -0.5 6 -0.5c30 0 49.5 9.66699 58.5 29s13.5 46 13.5 80v484zM97 732h86l111 -182h-103l-39 66l-17 49l-17 -49l-45 -66h-99z" />
    <glyph glyph-name="Kcommaaccent" unicode="&#x136;" horiz-adv-x="620" 
d="M233 299h-36v-299h-137v700h137v-310l32 14l193 296h156l-204 -294l-54 -38l56 -39l233 -329h-169zM221 -105c0 19.333 6.50098 34.6689 19.501 46.002s29.167 17 48.5 17c23.333 0 42.333 -7.66699 57 -23s22 -37 22 -65c0 -22 -3.66699 -41.333 -11 -58
s-16.333 -30.834 -27 -42.501s-22 -21 -34 -28s-22.333 -11.833 -31 -14.5l-34 54c9.33301 4.66699 18.666 11.167 27.999 19.5s14.666 19.5 15.999 33.5c-13.333 -0.666992 -25.666 4.16602 -36.999 14.499s-17 25.833 -17 46.5z" />
    <glyph glyph-name="kcommaaccent" unicode="&#x137;" horiz-adv-x="491" 
d="M222 207h-35v-207h-130v700h130v-413l30 14l114 199h143l-120 -190l-51 -38l55 -39l135 -233h-149zM179 -105c0 19.333 6.50098 34.6689 19.501 46.002s29.167 17 48.5 17c23.333 0 42.333 -7.66699 57 -23s22 -37 22 -65c0 -22 -3.66699 -41.333 -11 -58
s-16.333 -30.834 -27 -42.501s-22 -21 -34 -28s-22.333 -11.833 -31 -14.5l-34 54c9.33301 4.66699 18.666 11.167 27.999 19.5s14.666 19.5 15.999 33.5c-13.333 -0.666992 -25.666 4.16602 -36.999 14.499s-17 25.833 -17 46.5z" />
    <glyph glyph-name="Lacute" unicode="&#x139;" horiz-adv-x="514" 
d="M503 0h-443v700h137v-578h306v-122zM208 870h159v-30l-160 -88h-103z" />
    <glyph glyph-name="lacute" unicode="&#x13a;" horiz-adv-x="294" 
d="M191 168c0 -23.333 3 -40.335 9 -51.002s15.667 -16 29 -16c8 0 15.833 0.666992 23.5 2s17.167 4.33301 28.5 9l14 -102c-10.667 -5.33301 -27 -10.666 -49 -15.999s-44.667 -8 -68 -8c-38 0 -67 8.83301 -87 26.5s-30 46.834 -30 87.501v600h130v-532zM174 869.998h159
v-30l-160 -88h-103z" />
    <glyph glyph-name="Lcommaaccent" unicode="&#x13b;" horiz-adv-x="514" 
d="M503 0h-443v700h137v-578h306v-122zM181 -105c0 19.333 6.50098 34.6689 19.501 46.002s29.167 17 48.5 17c23.333 0 42.333 -7.66699 57 -23s22 -37 22 -65c0 -22 -3.66699 -41.333 -11 -58s-16.333 -30.834 -27 -42.501s-22 -21 -34 -28s-22.333 -11.833 -31 -14.5
l-34 54c9.33301 4.66699 18.666 11.167 27.999 19.5s14.666 19.5 15.999 33.5c-13.333 -0.666992 -25.666 4.16602 -36.999 14.499s-17 25.833 -17 46.5z" />
    <glyph glyph-name="lcommaaccent" unicode="&#x13c;" horiz-adv-x="294" 
d="M191 168c0 -23.333 3 -40.335 9 -51.002s15.667 -16 29 -16c8 0 15.833 0.666992 23.5 2s17.167 4.33301 28.5 9l14 -102c-10.667 -5.33301 -27 -10.666 -49 -15.999s-44.667 -8 -68 -8c-38 0 -67 8.83301 -87 26.5s-30 46.834 -30 87.501v600h130v-532zM95 -105.002
c0 19.333 6.50098 34.6689 19.501 46.002s29.167 17 48.5 17c23.333 0 42.333 -7.66699 57 -23s22 -37 22 -65c0 -22 -3.66699 -41.333 -11 -58s-16.333 -30.834 -27 -42.501s-22 -21 -34 -28s-22.333 -11.833 -31 -14.5l-34 54c9.33301 4.66699 18.666 11.167 27.999 19.5
s14.666 19.5 15.999 33.5c-13.333 -0.666992 -25.666 4.16602 -36.999 14.499s-17 25.833 -17 46.5z" />
    <glyph glyph-name="Lcaron" unicode="&#x13d;" horiz-adv-x="514" 
d="M503 0h-443v700h137v-578h306v-122zM463 700c-1.33301 -19.333 -5.33301 -39.5 -12 -60.5s-14.5 -41 -23.5 -60s-18.5 -36 -28.5 -51s-19 -25.833 -27 -32.5l-58 31c11.333 24 20 51.167 26 81.5s9 60.833 9 91.5h114z" />
    <glyph glyph-name="lcaron" unicode="&#x13e;" horiz-adv-x="294" 
d="M191 168c0 -23.333 3 -40.335 9 -51.002s15.667 -16 29 -16c8 0 15.833 0.666992 23.5 2s17.167 4.33301 28.5 9l14 -102c-10.667 -5.33301 -27 -10.666 -49 -15.999s-44.667 -8 -68 -8c-38 0 -67 8.83301 -87 26.5s-30 46.834 -30 87.501v600h130v-532zM366 699.998
c-1.33301 -19.333 -5.33301 -39.5 -12 -60.5s-14.5 -41 -23.5 -60s-18.5 -36 -28.5 -51s-19 -25.833 -27 -32.5l-58 31c11.333 24 20 51.167 26 81.5s9 60.833 9 91.5h114z" />
    <glyph glyph-name="Lslash" unicode="&#x141;" horiz-adv-x="525" 
d="M3 318l68 45v337h137v-245l100 67v-125l-100 -66v-209h306v-122h-443v241l-68 -44v121z" />
    <glyph glyph-name="lslash" unicode="&#x142;" horiz-adv-x="319" 
d="M6 307l79 52.998v340h130v-253l96 64v-125l-96 -63v-155c0 -23.333 3 -40.333 9 -51s15.667 -16 29 -16c8 0 15.833 0.666992 23.5 2s17.167 4.33301 28.5 9l14 -102c-10.667 -5.33301 -27 -10.666 -49 -15.999s-44.667 -8 -68 -8c-38 0 -67 8.83301 -87 26.5
s-30 46.834 -30 87.501v138l-79 -52v121z" />
    <glyph glyph-name="Nacute" unicode="&#x143;" horiz-adv-x="657" 
d="M234 365l-55 110h-5l16 -110v-365h-130v705h100l265 -373l53 -107h5l-16 107v368h130v-705h-100zM366 870h159v-30l-160 -88h-103z" />
    <glyph glyph-name="nacute" unicode="&#x144;" horiz-adv-x="545" 
d="M363 0l0.00195312 283.998c0 40.667 -5.83301 70 -17.5 88s-31.5 27 -59.5 27c-24.667 0 -45.5 -7.16699 -62.5 -21.5s-29.167 -32.166 -36.5 -53.499v-324h-130v500h103l15 -66h4c15.333 21.333 35.666 40 60.999 56s58 24 98 24c24.667 0 46.667 -3.33301 66 -10
s35.666 -17.667 48.999 -33s23.333 -36.166 30 -62.499s10 -58.833 10 -97.5v-311h-130zM277.002 719.998h132v-30l-111 -124h-74z" />
    <glyph glyph-name="Ncommaaccent" unicode="&#x145;" horiz-adv-x="657" 
d="M234 365l-55 110h-5l16 -110v-365h-130v705h100l265 -373l53 -107h5l-16 107v368h130v-705h-100zM254 -105c0 19.333 6.50098 34.6689 19.501 46.002s29.167 17 48.5 17c23.333 0 42.333 -7.66699 57 -23s22 -37 22 -65c0 -22 -3.66699 -41.333 -11 -58
s-16.333 -30.834 -27 -42.501s-22 -21 -34 -28s-22.333 -11.833 -31 -14.5l-34 54c9.33301 4.66699 18.666 11.167 27.999 19.5s14.666 19.5 15.999 33.5c-13.333 -0.666992 -25.666 4.16602 -36.999 14.499s-17 25.833 -17 46.5z" />
    <glyph glyph-name="ncommaaccent" unicode="&#x146;" horiz-adv-x="545" 
d="M363 0l0.00195312 283.998c0 40.667 -5.83301 70 -17.5 88s-31.5 27 -59.5 27c-24.667 0 -45.5 -7.16699 -62.5 -21.5s-29.167 -32.166 -36.5 -53.499v-324h-130v500h103l15 -66h4c15.333 21.333 35.666 40 60.999 56s58 24 98 24c24.667 0 46.667 -3.33301 66 -10
s35.666 -17.667 48.999 -33s23.333 -36.166 30 -62.499s10 -58.833 10 -97.5v-311h-130zM198.002 -105.002c0 19.333 6.50098 34.6689 19.501 46.002s29.167 17 48.5 17c23.333 0 42.333 -7.66699 57 -23s22 -37 22 -65c0 -22 -3.66699 -41.333 -11 -58
s-16.333 -30.834 -27 -42.501s-22 -21 -34 -28s-22.333 -11.833 -31 -14.5l-34 54c9.33301 4.66699 18.666 11.167 27.999 19.5s14.666 19.5 15.999 33.5c-13.333 -0.666992 -25.666 4.16602 -36.999 14.499s-17 25.833 -17 46.5z" />
    <glyph glyph-name="Ncaron" unicode="&#x147;" horiz-adv-x="657" 
d="M234 365l-55 110h-5l16 -110v-365h-130v705h100l265 -373l53 -107h5l-16 107v368h130v-705h-100zM377 737h-94l-127 94v39h105l53 -45l19 -30l21 29l56 46h100v-40z" />
    <glyph glyph-name="ncaron" unicode="&#x148;" horiz-adv-x="545" 
d="M363 0l0.00195312 283.998c0 40.667 -5.83301 70 -17.5 88s-31.5 27 -59.5 27c-24.667 0 -45.5 -7.16699 -62.5 -21.5s-29.167 -32.166 -36.5 -53.499v-324h-130v500h103l15 -66h4c15.333 21.333 35.666 40 60.999 56s58 24 98 24c24.667 0 46.667 -3.33301 66 -10
s35.666 -17.667 48.999 -33s23.333 -36.166 30 -62.499s10 -58.833 10 -97.5v-311h-130zM318.002 549.998h-91l-115 182h110l39 -66l16 -49l18 49l45 66h101z" />
    <glyph glyph-name="Omacron" unicode="&#x14c;" horiz-adv-x="670" 
d="M38 350c0 116.667 25.668 206.5 77.001 269.5s124.666 94.5 219.999 94.5c50 0 93.667 -8.66699 131 -26s68.333 -42 93 -74s43 -70.333 55 -115s18 -94.334 18 -149.001c0 -116.667 -25.833 -206.5 -77.5 -269.5s-124.834 -94.5 -219.501 -94.5
c-50.667 0 -94.667 8.66699 -132 26s-68.166 42 -92.499 74s-42.5 70.333 -54.5 115s-18 94.334 -18 149.001zM182.001 350c0 -35.333 3.00098 -67.833 9.00098 -97.5s15.167 -55.167 27.5 -76.5s28.166 -38 47.499 -50s42.333 -18 69 -18c48.667 0 86.334 19 113.001 57
s40 99.667 40 185c0 34 -2.83301 65.667 -8.5 95s-14.5 55 -26.5 77s-27.667 39.167 -47 51.5s-43 18.5 -71 18.5c-48.667 0 -86.334 -19.5 -113.001 -58.5s-40 -100.167 -40 -183.5zM167.002 856h343v-89h-343v89z" />
    <glyph glyph-name="omacron" unicode="&#x14d;" horiz-adv-x="537" 
d="M33 250c0 84.667 20.6689 149.834 62.002 195.501s99.333 68.5 174 68.5c40 0 74.667 -6.33301 104 -19s53.666 -30.5 72.999 -53.5s33.833 -50.833 43.5 -83.5s14.5 -68.667 14.5 -108c0 -84.667 -20.5 -149.834 -61.5 -195.501s-98.833 -68.5 -173.5 -68.5
c-40 0 -74.667 6.33301 -104 19s-53.833 30.5 -73.5 53.5s-34.334 50.833 -44.001 83.5s-14.5 68.667 -14.5 108zM167.002 250c0 -22 2 -42.333 6 -61s10 -35 18 -49s18.5 -24.833 31.5 -32.5s28.5 -11.5 46.5 -11.5c34 0 59.333 12.333 76 37s25 63.667 25 117
c0 46 -7.66699 83.167 -23 111.5s-41.333 42.5 -78 42.5c-32 0 -57 -12 -75 -36s-27 -63.333 -27 -118zM107.002 658h323v-92h-323v92z" />
    <glyph glyph-name="Ohungarumlaut" unicode="&#x150;" horiz-adv-x="670" 
d="M38 350c0 116.667 25.668 206.5 77.001 269.5s124.666 94.5 219.999 94.5c50 0 93.667 -8.66699 131 -26s68.333 -42 93 -74s43 -70.333 55 -115s18 -94.334 18 -149.001c0 -116.667 -25.833 -206.5 -77.5 -269.5s-124.834 -94.5 -219.501 -94.5
c-50.667 0 -94.667 8.66699 -132 26s-68.166 42 -92.499 74s-42.5 70.333 -54.5 115s-18 94.334 -18 149.001zM182.001 350c0 -35.333 3.00098 -67.833 9.00098 -97.5s15.167 -55.167 27.5 -76.5s28.166 -38 47.499 -50s42.333 -18 69 -18c48.667 0 86.334 19 113.001 57
s40 99.667 40 185c0 34 -2.83301 65.667 -8.5 95s-14.5 55 -26.5 77s-27.667 39.167 -47 51.5s-43 18.5 -71 18.5c-48.667 0 -86.334 -19.5 -113.001 -58.5s-40 -100.167 -40 -183.5zM250.002 850h134v-16l-100 -93h-93zM448.002 850h140v-16l-143 -93h-94z" />
    <glyph glyph-name="ohungarumlaut" unicode="&#x151;" horiz-adv-x="537" 
d="M33 250c0 84.667 20.6689 149.834 62.002 195.501s99.333 68.5 174 68.5c40 0 74.667 -6.33301 104 -19s53.666 -30.5 72.999 -53.5s33.833 -50.833 43.5 -83.5s14.5 -68.667 14.5 -108c0 -84.667 -20.5 -149.834 -61.5 -195.501s-98.833 -68.5 -173.5 -68.5
c-40 0 -74.667 6.33301 -104 19s-53.833 30.5 -73.5 53.5s-34.334 50.833 -44.001 83.5s-14.5 68.667 -14.5 108zM167.002 250c0 -22 2 -42.333 6 -61s10 -35 18 -49s18.5 -24.833 31.5 -32.5s28.5 -11.5 46.5 -11.5c34 0 59.333 12.333 76 37s25 63.667 25 117
c0 46 -7.66699 83.167 -23 111.5s-41.333 42.5 -78 42.5c-32 0 -57 -12 -75 -36s-27 -63.333 -27 -118zM180.002 700h119v-16l-76 -113h-78zM358.002 700h126v-16l-118 -113h-81z" />
    <glyph glyph-name="OE" unicode="&#x152;" horiz-adv-x="915" 
d="M453 567c-14 7.33301 -30.999 13.333 -50.999 18s-42.333 7 -67 7c-48.667 0 -86.334 -19.5 -113.001 -58.5s-40 -100.167 -40 -183.5c0 -35.333 3 -67.833 9 -97.5s15.5 -55.167 28.5 -76.5s29.5 -38 49.5 -50s44.333 -18 73 -18c19.333 0 37.833 1.16699 55.5 3.5
s36.167 7.5 55.5 15.5v440zM453.001 0c-12.667 -4.66699 -30.168 -8.16797 -52.501 -10.501s-44.166 -3.5 -65.499 -3.5c-50.667 0 -94.667 8.66699 -132 26s-68.166 42 -92.499 74s-42.5 70.333 -54.5 115s-18 94.334 -18 149.001c0 116.667 25.667 206.5 77 269.5
s124.666 94.5 219.999 94.5c26 0 48.5 -1.5 67.5 -4.5s35.833 -6.16699 50.5 -9.5h415v-122h-278v-163h253v-122h-253v-171h283v-122h-420z" />
    <glyph glyph-name="oe" unicode="&#x153;" horiz-adv-x="841" 
d="M167 250c0 -22 2 -42.333 6 -61s10 -35 18 -49s18.5 -24.833 31.5 -32.5s28.5 -11.5 46.5 -11.5c34 0 59.333 12.333 76 37s25 63.667 25 117c0 46 -7.66699 83.167 -23 111.5s-41.333 42.5 -78 42.5c-32 0 -57 -12 -75 -36s-27 -63.333 -27 -118zM431 60
c-16.667 -22 -38.166 -39.833 -64.499 -53.5s-58.833 -20.5 -97.5 -20.5c-40 0 -74.667 6.33301 -104 19s-53.833 30.5 -73.5 53.5s-34.334 50.833 -44.001 83.5s-14.5 68.667 -14.5 108c0 84.667 20.667 149.834 62 195.501s99.333 68.5 174 68.5
c44 0 79.333 -7.5 106 -22.5s47.667 -31.5 63 -49.5c15.333 19.333 36.5 36.166 63.5 50.499s61.833 21.5 104.5 21.5c25.333 0 50 -3.33301 74 -10s45.333 -17.667 64 -33s33.667 -36 45 -62s17 -58.333 17 -97c0 -14 -0.833008 -29 -2.5 -45s-4.16699 -32.667 -7.5 -50
h-301c2 -42 13 -73.667 33 -95s52 -32 96 -32c27.333 0 51.833 4.16699 73.5 12.5s38.167 16.833 49.5 25.5l43 -85c-20 -16 -47.167 -29.5 -81.5 -40.5s-70.833 -16.5 -109.5 -16.5c-74 0 -130 24.667 -168 74zM604.001 410c-34 0 -59.168 -10.1699 -75.501 -30.5029
s-26.166 -47.5 -29.499 -81.5h186c0 2.66699 0.166992 5.33398 0.5 8.00098s0.5 5.33398 0.5 8.00098c0 30.667 -6.83301 54.334 -20.5 71.001s-34.167 25 -61.5 25z" />
    <glyph glyph-name="Racute" unicode="&#x154;" horiz-adv-x="602" 
d="M60 693c15.333 2.66699 31.8311 5.16992 49.498 7.50293s35.334 4.16602 53.001 5.49902s34.834 2.33301 51.501 3s32 1 46 1c32.667 0 64.834 -3 96.501 -9s60 -16.333 85 -31s45 -34.834 60 -60.501s22.5 -57.834 22.5 -96.501c0 -57.333 -13.333 -104 -40 -140
s-62.334 -61 -107.001 -75l49 -31l160 -267h-158l-159 274l-72 13v-287h-137v693zM269.998 588.003c-14 0 -27.833 -0.333008 -41.5 -1s-24.167 -2 -31.5 -4v-203h58c38 0 68.333 8.66699 91 26s34 46 34 86c0 30 -9.33301 53.5 -28 70.5s-46 25.5 -82 25.5z
M291.998 870.003h159v-30l-160 -88h-103z" />
    <glyph glyph-name="racute" unicode="&#x155;" horiz-adv-x="351" 
d="M333 378c-20.667 7.33301 -39.332 10.999 -55.999 10.999c-23.333 0 -42.833 -6.16699 -58.5 -18.5s-26.167 -28.166 -31.5 -47.499v-323h-130v500h101l15 -66h4c11.333 24.667 26.666 43.667 45.999 57s42 20 68 20c17.333 0 37 -3.66699 59 -11zM172.002 719.999h132
v-30l-111 -124h-74z" />
    <glyph glyph-name="Rcommaaccent" unicode="&#x156;" horiz-adv-x="602" 
d="M60 693c15.333 2.66699 31.8311 5.16992 49.498 7.50293s35.334 4.16602 53.001 5.49902s34.834 2.33301 51.501 3s32 1 46 1c32.667 0 64.834 -3 96.501 -9s60 -16.333 85 -31s45 -34.834 60 -60.501s22.5 -57.834 22.5 -96.501c0 -57.333 -13.333 -104 -40 -140
s-62.334 -61 -107.001 -75l49 -31l160 -267h-158l-159 274l-72 13v-287h-137v693zM269.998 588.003c-14 0 -27.833 -0.333008 -41.5 -1s-24.167 -2 -31.5 -4v-203h58c38 0 68.333 8.66699 91 26s34 46 34 86c0 30 -9.33301 53.5 -28 70.5s-46 25.5 -82 25.5z
M227.998 -104.997c0 19.333 6.50098 34.6689 19.501 46.002s29.167 17 48.5 17c23.333 0 42.333 -7.66699 57 -23s22 -37 22 -65c0 -22 -3.66699 -41.333 -11 -58s-16.333 -30.834 -27 -42.501s-22 -21 -34 -28s-22.333 -11.833 -31 -14.5l-34 54
c9.33301 4.66699 18.666 11.167 27.999 19.5s14.666 19.5 15.999 33.5c-13.333 -0.666992 -25.666 4.16602 -36.999 14.499s-17 25.833 -17 46.5z" />
    <glyph glyph-name="rcommaaccent" unicode="&#x157;" horiz-adv-x="351" 
d="M333 378c-20.667 7.33301 -39.332 10.999 -55.999 10.999c-23.333 0 -42.833 -6.16699 -58.5 -18.5s-26.167 -28.166 -31.5 -47.499v-323h-130v500h101l15 -66h4c11.333 24.667 26.666 43.667 45.999 57s42 20 68 20c17.333 0 37 -3.66699 59 -11zM85.002 -105.001
c0 19.333 6.50098 34.6689 19.501 46.002s29.167 17 48.5 17c23.333 0 42.333 -7.66699 57 -23s22 -37 22 -65c0 -22 -3.66699 -41.333 -11 -58s-16.333 -30.834 -27 -42.501s-22 -21 -34 -28s-22.333 -11.833 -31 -14.5l-34 54c9.33301 4.66699 18.666 11.167 27.999 19.5
s14.666 19.5 15.999 33.5c-13.333 -0.666992 -25.666 4.16602 -36.999 14.499s-17 25.833 -17 46.5z" />
    <glyph glyph-name="Rcaron" unicode="&#x158;" horiz-adv-x="602" 
d="M60 693c15.333 2.66699 31.8311 5.16992 49.498 7.50293s35.334 4.16602 53.001 5.49902s34.834 2.33301 51.501 3s32 1 46 1c32.667 0 64.834 -3 96.501 -9s60 -16.333 85 -31s45 -34.834 60 -60.501s22.5 -57.834 22.5 -96.501c0 -57.333 -13.333 -104 -40 -140
s-62.334 -61 -107.001 -75l49 -31l160 -267h-158l-159 274l-72 13v-287h-137v693zM269.998 588.003c-14 0 -27.833 -0.333008 -41.5 -1s-24.167 -2 -31.5 -4v-203h58c38 0 68.333 8.66699 91 26s34 46 34 86c0 30 -9.33301 53.5 -28 70.5s-46 25.5 -82 25.5z
M302.998 737.003h-94l-127 94v39h105l53 -45l19 -30l21 29l56 46h100v-40z" />
    <glyph glyph-name="rcaron" unicode="&#x159;" horiz-adv-x="351" 
d="M333 378c-20.667 7.33301 -39.332 10.999 -55.999 10.999c-23.333 0 -42.833 -6.16699 -58.5 -18.5s-26.167 -28.166 -31.5 -47.499v-323h-130v500h101l15 -66h4c11.333 24.667 26.666 43.667 45.999 57s42 20 68 20c17.333 0 37 -3.66699 59 -11zM239.002 549.999h-91
l-115 182h110l39 -66l16 -49l18 49l45 66h101z" />
    <glyph glyph-name="Sacute" unicode="&#x15a;" horiz-adv-x="530" 
d="M362 188c0 21.333 -7.83496 38.668 -23.502 52.001s-35.334 25.5 -59.001 36.5s-49.334 22.333 -77.001 34s-53.334 26 -77.001 43s-43.334 38.167 -59.001 63.5s-23.5 57.666 -23.5 96.999c0 34 5.66699 63.5 17 88.5s27.5 45.833 48.5 62.5s45.833 29 74.5 37
s60.667 12 96 12c40.667 0 79 -3.5 115 -10.5s65.667 -17.167 89 -30.5l-43 -115c-14.667 9.33301 -36.667 17.833 -66 25.5s-61 11.5 -95 11.5c-32 0 -56.5 -6.33301 -73.5 -19s-25.5 -29.667 -25.5 -51c0 -20 7.83301 -36.667 23.5 -50s35.334 -25.666 59.001 -36.999
s49.334 -23 77.001 -35s53.334 -26.5 77.001 -43.5s43.334 -38 59.001 -63s23.5 -56.167 23.5 -93.5s-6.16699 -69.5 -18.5 -96.5s-29.666 -49.5 -51.999 -67.5s-49.333 -31.333 -81 -40s-66.5 -13 -104.5 -13c-50 0 -94 4.66699 -132 14s-66 18.666 -84 27.999l44 117
c7.33301 -4 16.833 -8.33301 28.5 -13s24.834 -9 39.501 -13s30.167 -7.33301 46.5 -10s33.166 -4 50.499 -4c40.667 0 71.834 6.83301 93.501 20.5s32.5 34.5 32.5 62.5zM301.998 870.002h159v-30l-160 -88h-103z" />
    <glyph glyph-name="sacute" unicode="&#x15b;" horiz-adv-x="422" 
d="M264 138c0 13.333 -5.66602 24.001 -16.999 32.001s-25.333 15.333 -42 22s-35 13.5 -55 20.5s-38.333 16.667 -55 29s-30.667 28 -42 47s-17 43.5 -17 73.5c0 49.333 14.667 87 44 113s71.666 39 126.999 39c38 0 72.333 -4 103 -12s54.667 -17 72 -27l-29 -94
c-15.333 6 -34.666 12.333 -57.999 19s-47 10 -71 10c-38.667 0 -58 -15 -58 -45c0 -12 5.66699 -21.667 17 -29s25.333 -14.166 42 -20.499l55 -20.5c20 -7.33301 38.333 -16.833 55 -28.5s30.667 -26.834 42 -45.501s17 -42.667 17 -72
c0 -50.667 -16.167 -90.5 -48.5 -119.5s-80.833 -43.5 -145.5 -43.5c-35.333 0 -68.5 4.5 -99.5 13.5s-56.167 19.5 -75.5 31.5l36 97c15.333 -8.66699 35.666 -17.167 60.999 -25.5s51.333 -12.5 78 -12.5c19.333 0 34.833 3.66699 46.5 11s17.5 19.666 17.5 36.999z
M208.001 720.001h132v-30l-111 -124h-74z" />
    <glyph glyph-name="Scircumflex" unicode="&#x15c;" horiz-adv-x="530" 
d="M362 188c0 21.333 -7.83496 38.668 -23.502 52.001s-35.334 25.5 -59.001 36.5s-49.334 22.333 -77.001 34s-53.334 26 -77.001 43s-43.334 38.167 -59.001 63.5s-23.5 57.666 -23.5 96.999c0 34 5.66699 63.5 17 88.5s27.5 45.833 48.5 62.5s45.833 29 74.5 37
s60.667 12 96 12c40.667 0 79 -3.5 115 -10.5s65.667 -17.167 89 -30.5l-43 -115c-14.667 9.33301 -36.667 17.833 -66 25.5s-61 11.5 -95 11.5c-32 0 -56.5 -6.33301 -73.5 -19s-25.5 -29.667 -25.5 -51c0 -20 7.83301 -36.667 23.5 -50s35.334 -25.666 59.001 -36.999
s49.334 -23 77.001 -35s53.334 -26.5 77.001 -43.5s43.334 -38 59.001 -63s23.5 -56.167 23.5 -93.5s-6.16699 -69.5 -18.5 -96.5s-29.666 -49.5 -51.999 -67.5s-49.333 -31.333 -81 -40s-66.5 -13 -104.5 -13c-50 0 -94 4.66699 -132 14s-66 18.666 -84 27.999l44 117
c7.33301 -4 16.833 -8.33301 28.5 -13s24.834 -9 39.501 -13s30.167 -7.33301 46.5 -10s33.166 -4 50.499 -4c40.667 0 71.834 6.83301 93.501 20.5s32.5 34.5 32.5 62.5zM229.998 870.002h96l127 -93v-39h-99l-57 41l-20 34l-21 -33l-62 -42h-97v40z" />
    <glyph glyph-name="scircumflex" unicode="&#x15d;" horiz-adv-x="422" 
d="M264 138c0 13.333 -5.66602 24.001 -16.999 32.001s-25.333 15.333 -42 22s-35 13.5 -55 20.5s-38.333 16.667 -55 29s-30.667 28 -42 47s-17 43.5 -17 73.5c0 49.333 14.667 87 44 113s71.666 39 126.999 39c38 0 72.333 -4 103 -12s54.667 -17 72 -27l-29 -94
c-15.333 6 -34.666 12.333 -57.999 19s-47 10 -71 10c-38.667 0 -58 -15 -58 -45c0 -12 5.66699 -21.667 17 -29s25.333 -14.166 42 -20.499l55 -20.5c20 -7.33301 38.333 -16.833 55 -28.5s30.667 -26.834 42 -45.501s17 -42.667 17 -72
c0 -50.667 -16.167 -90.5 -48.5 -119.5s-80.833 -43.5 -145.5 -43.5c-35.333 0 -68.5 4.5 -99.5 13.5s-56.167 19.5 -75.5 31.5l36 97c15.333 -8.66699 35.666 -17.167 60.999 -25.5s51.333 -12.5 78 -12.5c19.333 0 34.833 3.66699 46.5 11s17.5 19.666 17.5 36.999z
M177.001 732.001h86l111 -182h-103l-39 66l-17 49l-17 -49l-45 -66h-99z" />
    <glyph glyph-name="Scedilla" unicode="&#x15e;" horiz-adv-x="530" 
d="M362 188c0 21.333 -7.83203 38.667 -23.499 52s-35.334 25.5 -59.001 36.5s-49.334 22.333 -77.001 34s-53.334 26 -77.001 43s-43.334 38.167 -59.001 63.5s-23.5 57.666 -23.5 96.999c0 34 5.66699 63.5 17 88.5s27.5 45.833 48.5 62.5s45.833 29 74.5 37
s60.667 12 96 12c40.667 0 79 -3.5 115 -10.5s65.667 -17.167 89 -30.5l-43 -115c-14.667 9.33301 -36.667 17.833 -66 25.5s-61 11.5 -95 11.5c-32 0 -56.5 -6.33301 -73.5 -19s-25.5 -29.667 -25.5 -51c0 -20 7.83301 -36.667 23.5 -50s35.334 -25.666 59.001 -36.999
s49.334 -23 77.001 -35s53.334 -26.5 77.001 -43.5s43.334 -38 59.001 -63s23.5 -56.167 23.5 -93.5c0 -63.333 -17.167 -112.333 -51.5 -147s-80.833 -56.334 -139.5 -65.001l-18 -34c27.333 -2.66699 48.833 -9.83398 64.5 -21.501s23.5 -29.5 23.5 -53.5
c0 -15.333 -3.83301 -28.666 -11.5 -39.999s-18.167 -20.833 -31.5 -28.5s-29 -13.5 -47 -17.5s-37.333 -6 -58 -6s-42 2 -64 6l9 48c4.66699 -0.666992 9 -1 13 -1h11c25.333 0 41.666 3 48.999 9s11 13 11 21c0 18.667 -28.667 29.334 -86 32.001l48 81
c-45.333 1.33301 -84.833 6.33301 -118.5 15s-58.834 17.667 -75.501 27l44 117c7.33301 -4 16.833 -8.33301 28.5 -13s24.834 -9 39.501 -13s30.167 -7.33301 46.5 -10s33.166 -4 50.499 -4c40.667 0 71.834 6.83301 93.501 20.5s32.5 34.5 32.5 62.5z" />
    <glyph glyph-name="scedilla" unicode="&#x15f;" horiz-adv-x="422" 
d="M264 138c0 13.333 -5.66602 23.999 -16.999 31.999s-25.333 15.333 -42 22s-35 13.5 -55 20.5s-38.333 16.667 -55 29s-30.667 28 -42 47s-17 43.5 -17 73.5c0 49.333 14.667 87 44 113s71.666 39 126.999 39c38 0 72.333 -4 103 -12s54.667 -17 72 -27l-29 -94
c-15.333 6 -34.666 12.333 -57.999 19s-47 10 -71 10c-38.667 0 -58 -15 -58 -45c0 -12 5.66699 -21.667 17 -29s25.333 -14.166 42 -20.499l55 -20.5c20 -7.33301 38.333 -16.833 55 -28.5s30.667 -26.834 42 -45.501s17 -42.667 17 -72
c0 -42.667 -11.667 -77.834 -35 -105.501s-58 -45.167 -104 -52.5l-18 -34c27.333 -2.66699 48.833 -9.83398 64.5 -21.501s23.5 -29.5 23.5 -53.5c0 -15.333 -3.83301 -28.666 -11.5 -39.999s-18.167 -20.833 -31.5 -28.5s-29 -13.5 -47 -17.5s-37.333 -6 -58 -6
s-42 2 -64 6l9 48c4.66699 -0.666992 9 -1 13 -1h11c25.333 0 41.666 3 48.999 9s11 13 11 21c0 18.667 -28.667 29.334 -86 32.001l49 83c-29.333 2.66699 -56.666 7.83398 -81.999 15.501s-46 16.834 -62 27.501l36 97c15.333 -8.66699 35.666 -17.167 60.999 -25.5
s51.333 -12.5 78 -12.5c19.333 0 34.833 3.66699 46.5 11s17.5 19.666 17.5 36.999z" />
    <glyph glyph-name="Scaron" unicode="&#x160;" horiz-adv-x="530" 
d="M362 188c0 21.333 -7.83496 38.668 -23.502 52.001s-35.334 25.5 -59.001 36.5s-49.334 22.333 -77.001 34s-53.334 26 -77.001 43s-43.334 38.167 -59.001 63.5s-23.5 57.666 -23.5 96.999c0 34 5.66699 63.5 17 88.5s27.5 45.833 48.5 62.5s45.833 29 74.5 37
s60.667 12 96 12c40.667 0 79 -3.5 115 -10.5s65.667 -17.167 89 -30.5l-43 -115c-14.667 9.33301 -36.667 17.833 -66 25.5s-61 11.5 -95 11.5c-32 0 -56.5 -6.33301 -73.5 -19s-25.5 -29.667 -25.5 -51c0 -20 7.83301 -36.667 23.5 -50s35.334 -25.666 59.001 -36.999
s49.334 -23 77.001 -35s53.334 -26.5 77.001 -43.5s43.334 -38 59.001 -63s23.5 -56.167 23.5 -93.5s-6.16699 -69.5 -18.5 -96.5s-29.666 -49.5 -51.999 -67.5s-49.333 -31.333 -81 -40s-66.5 -13 -104.5 -13c-50 0 -94 4.66699 -132 14s-66 18.666 -84 27.999l44 117
c7.33301 -4 16.833 -8.33301 28.5 -13s24.834 -9 39.501 -13s30.167 -7.33301 46.5 -10s33.166 -4 50.499 -4c40.667 0 71.834 6.83301 93.501 20.5s32.5 34.5 32.5 62.5zM327.998 737.002h-94l-127 94v39h105l53 -45l19 -30l21 29l56 46h100v-40z" />
    <glyph glyph-name="scaron" unicode="&#x161;" horiz-adv-x="422" 
d="M264 138c0 13.333 -5.66602 24.001 -16.999 32.001s-25.333 15.333 -42 22s-35 13.5 -55 20.5s-38.333 16.667 -55 29s-30.667 28 -42 47s-17 43.5 -17 73.5c0 49.333 14.667 87 44 113s71.666 39 126.999 39c38 0 72.333 -4 103 -12s54.667 -17 72 -27l-29 -94
c-15.333 6 -34.666 12.333 -57.999 19s-47 10 -71 10c-38.667 0 -58 -15 -58 -45c0 -12 5.66699 -21.667 17 -29s25.333 -14.166 42 -20.499l55 -20.5c20 -7.33301 38.333 -16.833 55 -28.5s30.667 -26.834 42 -45.501s17 -42.667 17 -72
c0 -50.667 -16.167 -90.5 -48.5 -119.5s-80.833 -43.5 -145.5 -43.5c-35.333 0 -68.5 4.5 -99.5 13.5s-56.167 19.5 -75.5 31.5l36 97c15.333 -8.66699 35.666 -17.167 60.999 -25.5s51.333 -12.5 78 -12.5c19.333 0 34.833 3.66699 46.5 11s17.5 19.666 17.5 36.999z
M253.001 550.001h-91l-115 182h110l39 -66l16 -49l18 49l45 66h101z" />
    <glyph glyph-name="Tcedilla" unicode="&#x162;" horiz-adv-x="568" 
d="M216 0l0.000976562 577.999h-205v122h546v-122h-204v-578h-27l-24 -43c27.333 -2.66699 48.833 -9.83398 64.5 -21.501s23.5 -29.5 23.5 -53.5c0 -15.333 -3.83301 -28.666 -11.5 -39.999s-18.167 -20.833 -31.5 -28.5s-29 -13.5 -47 -17.5s-37.333 -6 -58 -6
s-42 2 -64 6l9 48c4.66699 -0.666992 9 -1 13 -1h11c25.333 0 41.666 3 48.999 9s11 13 11 21c0 18.667 -28.667 29.334 -86 32.001l57 95h-26z" />
    <glyph glyph-name="tcedilla" unicode="&#x163;" horiz-adv-x="349" 
d="M5 500l69.0029 -0.000976562v94l130 37v-131h122v-110h-122v-192c0 -34.667 3.5 -59.667 10.5 -75s20.167 -23 39.5 -23c13.333 0 24.833 1.33301 34.5 4s20.5 6.66699 32.5 12l23 -99c-12.667 -6 -26.334 -11 -41.001 -15s-30.667 -7.66699 -48 -11l-18 -34
c27.333 -2.66699 48.833 -9.83398 64.5 -21.501s23.5 -29.5 23.5 -53.5c0 -15.333 -3.83301 -28.666 -11.5 -39.999s-18.167 -20.833 -31.5 -28.5s-29 -13.5 -47 -17.5s-37.333 -6 -58 -6s-42 2 -64 6l9 48c4.66699 -0.666992 9 -1 13 -1h11c25.333 0 41.666 3 48.999 9
s11 13 11 21c0 18.667 -28.667 29.334 -86 32.001l50 84c-32.667 6 -56.834 20.833 -72.501 44.5s-23.5 58.5 -23.5 104.5v252h-69v110z" />
    <glyph glyph-name="Tcaron" unicode="&#x164;" horiz-adv-x="568" 
d="M557 578h-204v-578h-137v578h-205v122h546v-122zM327 737h-94l-127 94v39h105l53 -45l19 -30l21 29l56 46h100v-40z" />
    <glyph glyph-name="tcaron" unicode="&#x165;" horiz-adv-x="360" 
d="M5 500h69v94l130 37v-131h122v-110h-122v-192c0 -34.667 3.5 -59.5 10.5 -74.5s20.167 -22.5 39.5 -22.5c13.333 0 24.833 1.33301 34.5 4s20.5 6.66699 32.5 12l23 -100c-18 -8.66699 -39 -16 -63 -22s-48.333 -9 -73 -9c-46 0 -79.833 11.833 -101.5 35.5
s-32.5 62.5 -32.5 116.5v252h-69v110zM375 723c-1.33301 -19.333 -5.33301 -39.5 -12 -60.5s-14.5 -41 -23.5 -60s-18.5 -36 -28.5 -51s-19 -25.833 -27 -32.5l-58 31c11.333 24 20 51.167 26 81.5s9 60.833 9 91.5h114z" />
    <glyph glyph-name="Umacron" unicode="&#x16a;" horiz-adv-x="627" 
d="M440 700h130.001v-452c0 -45.333 -6 -84.333 -18 -117s-28.667 -59.667 -50 -81s-47.333 -37 -78 -47s-64.334 -15 -101.001 -15c-177.333 0 -266 81 -266 243v469h137v-442c0 -27.333 2.5 -50.5 7.5 -69.5s12.833 -34.333 23.5 -46s24 -20 40 -25s34.667 -7.5 56 -7.5
c42 0 72.333 11.667 91 35s28 61 28 113v442zM145.001 856h343v-89h-343v89z" />
    <glyph glyph-name="umacron" unicode="&#x16b;" horiz-adv-x="538" 
d="M182 500l-0.00195312 -284.002c0 -40.667 4.83301 -70 14.5 -88s28.5 -27 56.5 -27c24.667 0 45.167 7.33301 61.5 22s28.5 32.667 36.5 54v323h130v-348c0 -27.333 1.33301 -54.166 4 -80.499s6.66699 -50.166 12 -71.499h-98l-23 74h-4
c-15.333 -25.333 -36.666 -46.333 -63.999 -63s-59.666 -25 -96.999 -25c-25.333 0 -48 3.33301 -68 10s-36.667 17.667 -50 33s-23.5 36 -30.5 62s-10.5 58.667 -10.5 98v311h130zM105.998 657.998h323v-92h-323v92z" />
    <glyph glyph-name="Ubreve" unicode="&#x16c;" horiz-adv-x="627" 
d="M440 700h130.001v-452c0 -45.333 -6 -84.333 -18 -117s-28.667 -59.667 -50 -81s-47.333 -37 -78 -47s-64.334 -15 -101.001 -15c-177.333 0 -266 81 -266 243v469h137v-442c0 -27.333 2.5 -50.5 7.5 -69.5s12.833 -34.333 23.5 -46s24 -20 40 -25s34.667 -7.5 56 -7.5
c42 0 72.333 11.667 91 35s28 61 28 113v442zM173.001 875c13.333 -17.333 32.668 -30.667 58.001 -40s53.666 -14 84.999 -14c32 0 59.5 5 82.5 15s41.167 23 54.5 39l49 -32c-8 -19.333 -18.667 -36 -32 -50s-28.333 -25.667 -45 -35s-34.5 -16.333 -53.5 -21
s-37.833 -7 -56.5 -7c-18 0 -36.5 2 -55.5 6s-37.167 10.167 -54.5 18.5s-33.333 19.333 -48 33s-26.667 30.5 -36 50.5z" />
    <glyph glyph-name="ubreve" unicode="&#x16d;" horiz-adv-x="538" 
d="M182 500l-0.00195312 -284.002c0 -40.667 4.83301 -70 14.5 -88s28.5 -27 56.5 -27c24.667 0 45.167 7.33301 61.5 22s28.5 32.667 36.5 54v323h130v-348c0 -27.333 1.33301 -54.166 4 -80.499s6.66699 -50.166 12 -71.499h-98l-23 74h-4
c-15.333 -25.333 -36.666 -46.333 -63.999 -63s-59.666 -25 -96.999 -25c-25.333 0 -48 3.33301 -68 10s-36.667 17.667 -50 33s-23.5 36 -30.5 62s-10.5 58.667 -10.5 98v311h130zM158.998 719.998c11.333 -20 27.168 -34.833 47.501 -44.5s41.833 -14.5 64.5 -14.5
s43.5 5 62.5 15s33.5 24.667 43.5 44l60 -27c-2 -16 -7.5 -31.833 -16.5 -47.5s-20.833 -29.5 -35.5 -41.5s-31.834 -21.667 -51.501 -29s-40.834 -11 -63.501 -11c-44 0 -81.667 11.167 -113 33.5s-51.666 52.5 -60.999 90.5z" />
    <glyph glyph-name="Uring" unicode="&#x16e;" horiz-adv-x="627" 
d="M440 700h130.001v-452c0 -45.333 -6 -84.333 -18 -117s-28.667 -59.667 -50 -81s-47.333 -37 -78 -47s-64.334 -15 -101.001 -15c-177.333 0 -266 81 -266 243v469h137v-442c0 -27.333 2.5 -50.5 7.5 -69.5s12.833 -34.333 23.5 -46s24 -20 40 -25s34.667 -7.5 56 -7.5
c42 0 72.333 11.667 91 35s28 61 28 113v442zM192.001 772c0 12 2.00098 23.5029 6.00098 34.5029s10.833 20.667 20.5 29s22.667 14.833 39 19.5s37.166 7 62.499 7c46.667 0 79.667 -8 99 -24s29 -38 29 -66c0 -12 -2.16699 -23.333 -6.5 -34s-11.5 -19.834 -21.5 -27.501
s-23.167 -13.834 -39.5 -18.501s-36.5 -7 -60.5 -7c-47.333 0 -80.5 8.16699 -99.5 24.5s-28.5 37.166 -28.5 62.499zM276.002 772.003c0 -20.667 14.666 -30.999 43.999 -30.999c16.667 0 28.334 2.66699 35.001 8s10 13 10 23c0 11.333 -3.5 19.666 -10.5 24.999
s-18.5 8 -34.5 8c-29.333 0 -44 -11 -44 -33z" />
    <glyph glyph-name="uring" unicode="&#x16f;" horiz-adv-x="538" 
d="M182 500l-0.00195312 -284.002c0 -40.667 4.83301 -70 14.5 -88s28.5 -27 56.5 -27c24.667 0 45.167 7.33301 61.5 22s28.5 32.667 36.5 54v323h130v-348c0 -27.333 1.33301 -54.166 4 -80.499s6.66699 -50.166 12 -71.499h-98l-23 74h-4
c-15.333 -25.333 -36.666 -46.333 -63.999 -63s-59.666 -25 -96.999 -25c-25.333 0 -48 3.33301 -68 10s-36.667 17.667 -50 33s-23.5 36 -30.5 62s-10.5 58.667 -10.5 98v311h130zM154.998 646.998c0 28 9.5 50.999 28.5 68.999s46.5 27 82.5 27c34 0 61 -8.16699 81 -24.5
s30 -40.166 30 -71.499c0 -26 -9.83301 -48.167 -29.5 -66.5s-46.834 -27.5 -81.501 -27.5c-35.333 0 -62.666 8.5 -81.999 25.5s-29 39.833 -29 68.5zM226.998 646.997c0 -10.667 4.00195 -18.832 12.002 -24.499s17 -8.5 27 -8.5c11.333 0 20.666 2.66699 27.999 8
s11 13.666 11 24.999s-3.83301 19.833 -11.5 25.5s-16.834 8.5 -27.501 8.5c-10 0 -19 -2.66699 -27 -8s-12 -14 -12 -26z" />
    <glyph glyph-name="Uhungarumlaut" unicode="&#x170;" horiz-adv-x="627" 
d="M440 700h130.001v-452c0 -45.333 -6 -84.333 -18 -117s-28.667 -59.667 -50 -81s-47.333 -37 -78 -47s-64.334 -15 -101.001 -15c-177.333 0 -266 81 -266 243v469h137v-442c0 -27.333 2.5 -50.5 7.5 -69.5s12.833 -34.333 23.5 -46s24 -20 40 -25s34.667 -7.5 56 -7.5
c42 0 72.333 11.667 91 35s28 61 28 113v442zM225.001 850h134v-16l-100 -93h-93zM423.001 850h140v-16l-143 -93h-94z" />
    <glyph glyph-name="uhungarumlaut" unicode="&#x171;" horiz-adv-x="538" 
d="M182 500l-0.00195312 -284.002c0 -40.667 4.83301 -70 14.5 -88s28.5 -27 56.5 -27c24.667 0 45.167 7.33301 61.5 22s28.5 32.667 36.5 54v323h130v-348c0 -27.333 1.33301 -54.166 4 -80.499s6.66699 -50.166 12 -71.499h-98l-23 74h-4
c-15.333 -25.333 -36.666 -46.333 -63.999 -63s-59.666 -25 -96.999 -25c-25.333 0 -48 3.33301 -68 10s-36.667 17.667 -50 33s-23.5 36 -30.5 62s-10.5 58.667 -10.5 98v311h130zM165.998 699.998h119v-16l-76 -113h-78zM343.998 699.998h126v-16l-118 -113h-81z" />
    <glyph glyph-name="Uogonek" unicode="&#x172;" horiz-adv-x="627" 
d="M440 700l130.002 0.000976562v-452c0 -45.333 -6 -84.333 -18 -117s-28.667 -59.667 -50 -81c-20 -20 -44.333 -35 -73 -45c-30 -20.667 -45 -45 -45 -73c0 -8.66699 1.83301 -16.5 5.5 -23.5s9.16699 -12.5 16.5 -16.5s16.166 -5.83301 26.499 -5.5
s22.166 3.83301 35.499 10.5l19 -62c-10 -8 -25.833 -16 -47.5 -24s-44.167 -12 -67.5 -12c-37.333 0 -65.833 9.16699 -85.5 27.5s-29.5 41.166 -29.5 68.499c0 36.667 17.667 67.667 53 93c-168.667 4 -253 85 -253 243v469h137v-442c0 -27.333 2.5 -50.5 7.5 -69.5
s12.833 -34.333 23.5 -46s24 -20 40 -25s34.667 -7.5 56 -7.5c42 0 72.333 11.667 91 35s28 61 28 113v442z" />
    <glyph glyph-name="uogonek" unicode="&#x173;" horiz-adv-x="538" 
d="M182 500l-0.00292969 -284.002c0 -40.667 4.83301 -70 14.5 -88s28.5 -27 56.5 -27c24.667 0 45.167 7.33301 61.5 22s28.5 32.667 36.5 54v323h130v-348c0 -27.333 1.33301 -54.166 4 -80.499s6.66699 -50.166 12 -71.499h-18
c-19.333 -6.66699 -33.5 -16.167 -42.5 -28.5s-13.5 -26.833 -13.5 -43.5c0.666992 -17.333 8.16699 -30.166 22.5 -38.499s34.833 -5.83301 61.5 7.5l19 -62c-10 -8 -25.667 -16 -47 -24s-43.666 -12 -66.999 -12c-38 0 -66.833 8.5 -86.5 25.5s-29.5 39.167 -29.5 66.5
s9 50.666 27 69.999s42.667 34.333 74 45l-21 68h-4c-15.333 -25.333 -36.666 -46.333 -63.999 -63s-59.666 -25 -96.999 -25c-25.333 0 -48 3.33301 -68 10s-36.667 17.667 -50 33s-23.5 36 -30.5 62s-10.5 58.667 -10.5 98v311h130z" />
    <glyph glyph-name="Ydieresis" unicode="&#x178;" horiz-adv-x="592" 
d="M228 260l-230 440h163l128 -263l14 -74h5l15 76l124 261h147l-229 -439v-261h-137v260zM116 798c0 17.333 6 31.333 18 42s31.333 16 58 16c26 0 45 -5.33301 57 -16s18 -24.667 18 -42s-6 -31.166 -18 -41.499s-31 -15.5 -57 -15.5c-26.667 0 -46 5.16699 -58 15.5
s-18 24.166 -18 41.499zM330 798c0 17.333 6 31.333 18 42s31 16 57 16c26.667 0 46 -5.33301 58 -16s18 -24.667 18 -42s-6 -31.166 -18 -41.499s-31.333 -15.5 -58 -15.5c-26 0 -45 5.16699 -57 15.5s-18 24.166 -18 41.499z" />
    <glyph glyph-name="Zacute" unicode="&#x179;" horiz-adv-x="539" 
d="M27 122l296 414l52 42h-348v122h485v-122l-298 -418l-51 -38h349v-122h-485v122zM298 870h159v-30l-160 -88h-103z" />
    <glyph glyph-name="zacute" unicode="&#x17a;" horiz-adv-x="458" 
d="M31 110l197 237l51 43h-248v110h392v-110l-195 -241l-50 -39h245v-110h-392v110zM222 720h132v-30l-111 -124h-74z" />
    <glyph glyph-name="Zdotaccent" unicode="&#x17b;" horiz-adv-x="539" 
d="M27 122l296 414l52 42h-348v122h485v-122l-298 -418l-51 -38h349v-122h-485v122zM186 799c0 16.667 7.16699 31 21.5 43s35.833 18 64.5 18s50.667 -6 66 -18s23 -26.333 23 -43c0 -17.333 -7.66699 -32 -23 -44s-37.333 -18 -66 -18s-50.167 6 -64.5 18
s-21.5 26.667 -21.5 44z" />
    <glyph glyph-name="zdotaccent" unicode="&#x17c;" horiz-adv-x="458" 
d="M31 110l197 237l51 43h-248v110h392v-110l-195 -241l-50 -39h245v-110h-392v110zM151 641c0 19.333 7.16699 35.833 21.5 49.5s34.166 20.5 59.499 20.5s45.833 -6.83301 61.5 -20.5s23.5 -30.167 23.5 -49.5s-7.83301 -35.5 -23.5 -48.5s-36.167 -19.5 -61.5 -19.5
s-45.166 6.5 -59.499 19.5s-21.5 29.167 -21.5 48.5z" />
    <glyph glyph-name="Zcaron" unicode="&#x17d;" horiz-adv-x="539" 
d="M27 122l296 414l52 42h-348v122h485v-122l-298 -418l-51 -38h349v-122h-485v122zM309 737h-94l-127 94v39h105l53 -45l19 -30l21 29l56 46h100v-40z" />
    <glyph glyph-name="zcaron" unicode="&#x17e;" horiz-adv-x="458" 
d="M31 110l197 237l51 43h-248v110h392v-110l-195 -241l-50 -39h245v-110h-392v110zM269 550h-91l-115 182h110l39 -66l16 -49l18 49l45 66h101z" />
    <glyph glyph-name="longs" unicode="&#x17f;" horiz-adv-x="249" 
d="M12 500h68.998v28c0 63.333 13.333 109.166 40 137.499s65.334 42.5 116.001 42.5c30 0 55.333 -2.16699 76 -6.5s40 -10.166 58 -17.499l-26 -101c-15.333 5.33301 -28.666 9.16602 -39.999 11.499s-23.666 3.5 -36.999 3.5s-23.833 -2 -31.5 -6
s-13.334 -10.167 -17.001 -18.5s-6 -18.666 -7 -30.999s-1.5 -26.5 -1.5 -42.5v-500h-130v390h-69v110z" />
    <glyph glyph-name="florin" unicode="&#x192;" 
d="M342 390l-71 -423.998c-4 -24.667 -9.83301 -47.5 -17.5 -68.5s-18.334 -39.333 -32.001 -55s-30.667 -28 -51 -37s-45.166 -13.5 -74.499 -13.5c-9.33301 0 -20.833 0.666992 -34.5 2s-27.5 3 -41.5 5s-27.5 4.5 -40.5 7.5s-23.5 6.16699 -31.5 9.5l21 105
c15.333 -6.66699 30 -11.5 44 -14.5s30.333 -4.5 49 -4.5c24 0 42.667 8.16699 56 24.5s23 43.5 29 81.5l61 382h-78v110h96l11 67c4 24.667 9.5 46.167 16.5 64.5s16.667 33.666 29 45.999s28.166 21.5 47.499 27.5s43.333 9 72 9c10.667 0 22.834 -0.833008 36.501 -2.5
s27.5 -4 41.5 -7s27.667 -6.33301 41 -10s25 -7.83398 35 -12.501l-32 -97c-32.667 12.667 -64.334 19 -95.001 19c-21.333 0 -36.166 -5.16699 -44.499 -15.5s-14.5 -28.833 -18.5 -55.5l-5 -33h119v-110h-138z" />
    <glyph glyph-name="uni01F4" unicode="&#x1f4;" horiz-adv-x="609" 
d="M307 365l261.003 0.000976562v-312c-28 -23.333 -61.5 -40.333 -100.5 -51s-77.5 -16 -115.5 -16c-44.667 0 -86.167 7 -124.5 21s-71.5 35.833 -99.5 65.5s-50 67.5 -66 113.5s-24 100.667 -24 164c0 66 9.5 122.167 28.5 168.5s44 84 75 113s65.833 50 104.5 63
s78 19.5 118 19.5s75.167 -3 105.5 -9s54.5 -12.333 72.5 -19l-28 -115c-16.667 6.66699 -35.334 11.834 -56.001 15.501s-47 5.5 -79 5.5c-28.667 0 -55 -4.33301 -79 -13s-44.833 -22.834 -62.5 -42.501s-31.334 -44.834 -41.001 -75.501s-14.5 -68 -14.5 -112
c0 -42 4.66699 -78.167 14 -108.5s22.333 -55.333 39 -75s36.167 -34.167 58.5 -43.5s46.166 -14 71.499 -14c17.333 0 34.333 2.16699 51 6.5s30.667 10.833 42 19.5v132l-151 16v83zM391.003 870.001h159v-30l-160 -88h-103z" />
    <glyph glyph-name="uni01F5" unicode="&#x1f5;" horiz-adv-x="536" 
d="M480 0c0 -72.667 -19.666 -126.167 -58.999 -160.5s-94.333 -51.5 -165 -51.5c-48 0 -85.833 3.33301 -113.5 10s-48.5 13.667 -62.5 21l27 103c15.333 -6 33.166 -12 53.499 -18s45.5 -9 75.5 -9c45.333 0 76.166 9.83301 92.499 29.5s24.5 47.167 24.5 82.5v32h-4
c-23.333 -31.333 -64.666 -47 -123.999 -47c-64.667 0 -112.834 20 -144.501 60s-47.5 102.667 -47.5 188c0 89.333 21.333 157 64 203s104.667 69 186 69c42.667 0 80.834 -3 114.501 -9s61.167 -13 82.5 -21v-482zM260.001 96c25.333 0 44.834 5.66699 58.501 17
s24.167 28.333 31.5 51v225c-20.667 8.66699 -46.334 13 -77.001 13c-33.333 0 -59.333 -12.5 -78 -37.5s-28 -64.833 -28 -119.5c0 -48.667 8 -85.667 24 -111s39 -38 69 -38zM278.002 720h132v-30l-111 -124h-74z" />
    <glyph glyph-name="Scommaaccent" unicode="&#x218;" horiz-adv-x="530" 
d="M362 188c0 21.333 -7.83496 38.668 -23.502 52.001s-35.334 25.5 -59.001 36.5s-49.334 22.333 -77.001 34s-53.334 26 -77.001 43s-43.334 38.167 -59.001 63.5s-23.5 57.666 -23.5 96.999c0 34 5.66699 63.5 17 88.5s27.5 45.833 48.5 62.5s45.833 29 74.5 37
s60.667 12 96 12c40.667 0 79 -3.5 115 -10.5s65.667 -17.167 89 -30.5l-43 -115c-14.667 9.33301 -36.667 17.833 -66 25.5s-61 11.5 -95 11.5c-32 0 -56.5 -6.33301 -73.5 -19s-25.5 -29.667 -25.5 -51c0 -20 7.83301 -36.667 23.5 -50s35.334 -25.666 59.001 -36.999
s49.334 -23 77.001 -35s53.334 -26.5 77.001 -43.5s43.334 -38 59.001 -63s23.5 -56.167 23.5 -93.5s-6.16699 -69.5 -18.5 -96.5s-29.666 -49.5 -51.999 -67.5s-49.333 -31.333 -81 -40s-66.5 -13 -104.5 -13c-50 0 -94 4.66699 -132 14s-66 18.666 -84 27.999l44 117
c7.33301 -4 16.833 -8.33301 28.5 -13s24.834 -9 39.501 -13s30.167 -7.33301 46.5 -10s33.166 -4 50.499 -4c40.667 0 71.834 6.83301 93.501 20.5s32.5 34.5 32.5 62.5zM184.998 -104.998c0 19.333 6.50098 34.6689 19.501 46.002s29.167 17 48.5 17
c23.333 0 42.333 -7.66699 57 -23s22 -37 22 -65c0 -22 -3.66699 -41.333 -11 -58s-16.333 -30.834 -27 -42.501s-22 -21 -34 -28s-22.333 -11.833 -31 -14.5l-34 54c9.33301 4.66699 18.666 11.167 27.999 19.5s14.666 19.5 15.999 33.5
c-13.333 -0.666992 -25.666 4.16602 -36.999 14.499s-17 25.833 -17 46.5z" />
    <glyph glyph-name="scommaaccent" unicode="&#x219;" horiz-adv-x="422" 
d="M264 138c0 13.333 -5.66602 24.001 -16.999 32.001s-25.333 15.333 -42 22s-35 13.5 -55 20.5s-38.333 16.667 -55 29s-30.667 28 -42 47s-17 43.5 -17 73.5c0 49.333 14.667 87 44 113s71.666 39 126.999 39c38 0 72.333 -4 103 -12s54.667 -17 72 -27l-29 -94
c-15.333 6 -34.666 12.333 -57.999 19s-47 10 -71 10c-38.667 0 -58 -15 -58 -45c0 -12 5.66699 -21.667 17 -29s25.333 -14.166 42 -20.499l55 -20.5c20 -7.33301 38.333 -16.833 55 -28.5s30.667 -26.834 42 -45.501s17 -42.667 17 -72
c0 -50.667 -16.167 -90.5 -48.5 -119.5s-80.833 -43.5 -145.5 -43.5c-35.333 0 -68.5 4.5 -99.5 13.5s-56.167 19.5 -75.5 31.5l36 97c15.333 -8.66699 35.666 -17.167 60.999 -25.5s51.333 -12.5 78 -12.5c19.333 0 34.833 3.66699 46.5 11s17.5 19.666 17.5 36.999z
M141.001 -104.999c0 19.333 6.50098 34.6689 19.501 46.002s29.167 17 48.5 17c23.333 0 42.333 -7.66699 57 -23s22 -37 22 -65c0 -22 -3.66699 -41.333 -11 -58s-16.333 -30.834 -27 -42.501s-22 -21 -34 -28s-22.333 -11.833 -31 -14.5l-34 54
c9.33301 4.66699 18.666 11.167 27.999 19.5s14.666 19.5 15.999 33.5c-13.333 -0.666992 -25.666 4.16602 -36.999 14.499s-17 25.833 -17 46.5z" />
    <glyph glyph-name="Tcommaaccent" unicode="&#x21a;" horiz-adv-x="568" 
d="M557 578h-204v-578h-137v578h-205v122h546v-122zM205 -105c0 19.333 6.50098 34.6689 19.501 46.002s29.167 17 48.5 17c23.333 0 42.333 -7.66699 57 -23s22 -37 22 -65c0 -22 -3.66699 -41.333 -11 -58s-16.333 -30.834 -27 -42.501s-22 -21 -34 -28
s-22.333 -11.833 -31 -14.5l-34 54c9.33301 4.66699 18.666 11.167 27.999 19.5s14.666 19.5 15.999 33.5c-13.333 -0.666992 -25.666 4.16602 -36.999 14.499s-17 25.833 -17 46.5z" />
    <glyph glyph-name="tcommaaccent" unicode="&#x21b;" horiz-adv-x="349" 
d="M5 500h69v94l130 37v-131h122v-110h-122v-192c0 -34.667 3.5 -59.5 10.5 -74.5s20.167 -22.5 39.5 -22.5c13.333 0 24.833 1.33301 34.5 4s20.5 6.66699 32.5 12l23 -100c-18 -8.66699 -39 -16 -63 -22s-48.333 -9 -73 -9c-46 0 -79.833 11.833 -101.5 35.5
s-32.5 62.5 -32.5 116.5v252h-69v110zM109 -105c0 19.333 6.50098 34.6689 19.501 46.002s29.167 17 48.5 17c23.333 0 42.333 -7.66699 57 -23s22 -37 22 -65c0 -22 -3.66699 -41.333 -11 -58s-16.333 -30.834 -27 -42.501s-22 -21 -34 -28s-22.333 -11.833 -31 -14.5
l-34 54c9.33301 4.66699 18.666 11.167 27.999 19.5s14.666 19.5 15.999 33.5c-13.333 -0.666992 -25.666 4.16602 -36.999 14.499s-17 25.833 -17 46.5z" />
    <glyph glyph-name="uni0237" unicode="&#x237;" horiz-adv-x="268" 
d="M69 500h130v-521c0 -60.667 -12 -107 -36 -139s-62.333 -48 -115 -48c-20 0 -41.333 2.33301 -64 7v109c2.66699 0 5 -0.166992 7 -0.5s4 -0.5 6 -0.5c30 0 49.5 9.66699 58.5 29s13.5 46 13.5 80v484z" />
    <glyph glyph-name="afii57929" unicode="&#x2bc;" horiz-adv-x="223" 
d="M38 643c0 19.333 6.50195 35.001 19.502 47.001s29.5 18 49.5 18c24 0 43 -8 57 -24s21 -37 21 -63c0 -26.667 -4.16699 -49.334 -12.5 -68.001s-18.333 -34.167 -30 -46.5s-24 -21.833 -37 -28.5s-23.833 -11.667 -32.5 -15l-33 55c13.333 6 25.166 13.833 35.499 23.5
s16.166 22.167 17.499 37.5c-13.333 -0.666992 -25.833 4.5 -37.5 15.5s-17.5 27.167 -17.5 48.5z" />
    <glyph glyph-name="circumflex" unicode="&#x2c6;" horiz-adv-x="440" 
d="M183 732h86l111 -182h-103l-39 66l-17 49l-17 -49l-45 -66h-99z" />
    <glyph glyph-name="caron" unicode="&#x2c7;" horiz-adv-x="449" 
d="M266 550h-91l-115 182h110l39 -66l16 -49l18 49l45 66h101z" />
    <glyph glyph-name="breve" unicode="&#x2d8;" horiz-adv-x="461" 
d="M123 720c11.333 -20 27.168 -34.833 47.501 -44.5s41.833 -14.5 64.5 -14.5s43.5 5 62.5 15s33.5 24.667 43.5 44l60 -27c-2 -16 -7.5 -31.833 -16.5 -47.5s-20.833 -29.5 -35.5 -41.5s-31.834 -21.667 -51.501 -29s-40.834 -11 -63.501 -11
c-44 0 -81.667 11.167 -113 33.5s-51.666 52.5 -60.999 90.5z" />
    <glyph glyph-name="dotaccent" unicode="&#x2d9;" horiz-adv-x="286" 
d="M60 641c0 19.333 7.16699 35.833 21.5 49.5s34.166 20.5 59.499 20.5s45.833 -6.83301 61.5 -20.5s23.5 -30.167 23.5 -49.5s-7.83301 -35.5 -23.5 -48.5s-36.167 -19.5 -61.5 -19.5s-45.166 6.5 -59.499 19.5s-21.5 29.167 -21.5 48.5z" />
    <glyph glyph-name="ring" unicode="&#x2da;" horiz-adv-x="342" 
d="M60 647c0 28 9.5 50.999 28.5 68.999s46.5 27 82.5 27c34 0 61 -8.16699 81 -24.5s30 -40.166 30 -71.499c0 -26 -9.83301 -48.167 -29.5 -66.5s-46.834 -27.5 -81.501 -27.5c-35.333 0 -62.666 8.5 -81.999 25.5s-29 39.833 -29 68.5zM132 646.999
c0 -10.667 4.00195 -18.832 12.002 -24.499s17 -8.5 27 -8.5c11.333 0 20.666 2.66699 27.999 8s11 13.666 11 24.999s-3.83301 19.833 -11.5 25.5s-16.834 8.5 -27.501 8.5c-10 0 -19 -2.66699 -27 -8s-12 -14 -12 -26z" />
    <glyph glyph-name="ogonek" unicode="&#x2db;" horiz-adv-x="350" 
d="M263 10c-50.667 -14.667 -75.999 -40.998 -75.999 -78.998c0 -12 3.66699 -22.167 11 -30.5s17.666 -12.5 30.999 -12.5c12 0 26 4 42 12l19 -62c-10 -8 -25.833 -15.833 -47.5 -23.5s-44.167 -11.5 -67.5 -11.5c-37.333 0 -65.833 8.33301 -85.5 25
s-29.5 38.667 -29.5 66s9.16699 50.666 27.5 69.999s43.5 34.666 75.5 45.999h100z" />
    <glyph glyph-name="tilde" unicode="&#x2dc;" horiz-adv-x="452" 
d="M60 658c20.667 24.667 39.8311 41.6689 57.498 51.002s34.5 14 50.5 14c13.333 0 26.166 -2.33301 38.499 -7s24.5 -9.66699 36.5 -15l35 -15c11.333 -4.66699 23 -7 35 -7c9.33301 0 18.833 2 28.5 6s19.834 11 30.501 21l20 -70
c-19.333 -21.333 -37.166 -36 -53.499 -44s-32.166 -12 -47.499 -12c-13.333 0 -26.333 2.16699 -39 6.5s-25 9.16602 -37 14.499s-24 10.166 -36 14.499s-24 6.5 -36 6.5c-10 0 -20.333 -2.16699 -31 -6.5s-21.667 -11.833 -33 -22.5z" />
    <glyph glyph-name="hungarumlaut" unicode="&#x2dd;" horiz-adv-x="459" 
d="M95 700h119v-16l-76 -113h-78zM273 700h126v-16l-118 -113h-81z" />
    <glyph glyph-name="acutecomb" unicode="&#x301;" horiz-adv-x="0" 
d="M-252 720h132v-30l-111 -124h-74z" />
    <glyph glyph-name="uni0394" unicode="&#x394;" horiz-adv-x="585" 
d="M12 0v71l241 634h79l243 -634v-71h-563zM158 116h270l-112 298l-23 100h-5l-24 -101z" />
    <glyph glyph-name="uni0394" unicode="&#x2206;" horiz-adv-x="585" 
d="M12 0v71l241 634h79l243 -634v-71h-563zM158 116h270l-112 298l-23 100h-5l-24 -101z" />
    <glyph glyph-name="uni03A9" unicode="&#x3a9;" horiz-adv-x="778" 
d="M58 110l105.004 0.00195312l85 -13v28l-46 9c-20 9.33301 -38.667 21.666 -56 36.999s-32.5 34 -45.5 56s-23.167 47.167 -30.5 75.5s-11 59.833 -11 94.5c0 48.667 7.83301 92.5 23.5 131.5s38 72.167 67 99.5s63.833 48.5 104.5 63.5s85.667 22.5 135 22.5
c52 0 98.5 -7.83301 139.5 -23.5s75.5 -37.5 103.5 -65.5s49.5 -61.667 64.5 -101s22.5 -83 22.5 -131c0 -34.667 -4 -65.834 -12 -93.501s-18.5 -52.167 -31.5 -73.5s-28 -39.5 -45 -54.5s-34.5 -27.167 -52.5 -36.5l-49 -10v-28l85 13h106v-110h-300v203
c17.333 2.66699 35.166 8.33398 53.499 17.001s35 20.5 50 35.5s27.333 33.667 37 56s14.5 49.166 14.5 80.499c0 24.667 -3.33301 49 -10 73s-17.334 45.5 -32.001 64.5s-33.834 34.167 -57.501 45.5s-52.834 17 -87.501 17c-59.333 0 -105 -17 -137 -51
s-48 -84.667 -48 -152c0 -30 4.66699 -56.167 14 -78.5s21.333 -41 36 -56s31.167 -26.667 49.5 -35s36.5 -13.833 54.5 -16.5v-203h-299v110z" />
    <glyph glyph-name="uni03A9" unicode="&#x2126;" horiz-adv-x="778" 
d="M58 110l105.004 0.00195312l85 -13v28l-46 9c-20 9.33301 -38.667 21.666 -56 36.999s-32.5 34 -45.5 56s-23.167 47.167 -30.5 75.5s-11 59.833 -11 94.5c0 48.667 7.83301 92.5 23.5 131.5s38 72.167 67 99.5s63.833 48.5 104.5 63.5s85.667 22.5 135 22.5
c52 0 98.5 -7.83301 139.5 -23.5s75.5 -37.5 103.5 -65.5s49.5 -61.667 64.5 -101s22.5 -83 22.5 -131c0 -34.667 -4 -65.834 -12 -93.501s-18.5 -52.167 -31.5 -73.5s-28 -39.5 -45 -54.5s-34.5 -27.167 -52.5 -36.5l-49 -10v-28l85 13h106v-110h-300v203
c17.333 2.66699 35.166 8.33398 53.499 17.001s35 20.5 50 35.5s27.333 33.667 37 56s14.5 49.166 14.5 80.499c0 24.667 -3.33301 49 -10 73s-17.334 45.5 -32.001 64.5s-33.834 34.167 -57.501 45.5s-52.834 17 -87.501 17c-59.333 0 -105 -17 -137 -51
s-48 -84.667 -48 -152c0 -30 4.66699 -56.167 14 -78.5s21.333 -41 36 -56s31.167 -26.667 49.5 -35s36.5 -13.833 54.5 -16.5v-203h-299v110z" />
    <glyph glyph-name="pi" unicode="&#x3c0;" horiz-adv-x="696" 
d="M566 156c0 -18.667 3 -31.666 9 -38.999s13.667 -11 23 -11c6.66699 0 14.167 0.666992 22.5 2s15.5 2.66602 21.5 3.99902l20 -90c-13.333 -6 -30.5 -12.167 -51.5 -18.5s-46.5 -9.5 -76.5 -9.5c-37.333 0 -63 10 -77 30s-21 47.333 -21 82v284h-140v-390h-130v390h-14
c-12 0 -22.5 -3.33301 -31.5 -10s-17.5 -18 -25.5 -34l-76 48c12.667 34 31.5 60.167 56.5 78.5s55.167 27.5 90.5 27.5h483v-110h-83v-234z" />
    <glyph glyph-name="afii10023" unicode="&#x401;" horiz-adv-x="522" 
d="M60 700h415v-122h-278v-163h253v-122h-253v-171h283v-122h-420v700zM82 798c0 17.333 6 31.333 18 42s31.333 16 58 16c26 0 45 -5.33301 57 -16s18 -24.667 18 -42s-6 -31.166 -18 -41.499s-31 -15.5 -57 -15.5c-26.667 0 -46 5.16699 -58 15.5s-18 24.166 -18 41.499z
M296 798c0 17.333 6 31.333 18 42s31 16 57 16c26.667 0 46 -5.33301 58 -16s18 -24.667 18 -42s-6 -31.166 -18 -41.499s-31.333 -15.5 -58 -15.5c-26 0 -45 5.16699 -57 15.5s-18 24.166 -18 41.499z" />
    <glyph glyph-name="afii10051" unicode="&#x402;" horiz-adv-x="740" 
d="M353 0l-137 -0.000976562v578h-205v122h546v-122h-204v-143c10.667 4 27.334 8.66699 50.001 14s52 8 88 8c26 0 51.5 -3.33301 76.5 -10s47.5 -18.5 67.5 -35.5s36.167 -40 48.5 -69s18.5 -65.833 18.5 -110.5c0 -77.333 -19 -136.5 -57 -177.5
s-99.333 -61.5 -184 -61.5c-18.667 0 -32.5 0.333008 -41.5 1s-16.167 1.66699 -21.5 3v117c4.66699 -1.33301 12.5 -2.16602 23.5 -2.49902s22.167 -0.5 33.5 -0.5c33.333 0 58.833 9.66699 76.5 29s26.5 48 26.5 86c0 22.667 -3 41.167 -9 55.5s-14.333 25.5 -25 33.5
s-23.334 13.333 -38.001 16s-30.667 4 -48 4c-15.333 0 -31.5 -2 -48.5 -6s-29.167 -8 -36.5 -12v-317z" />
    <glyph glyph-name="afii10052" unicode="&#x403;" horiz-adv-x="458" 
d="M467 578h-270v-578h-137v700h407v-122zM292 870h159v-30l-160 -88h-103z" />
    <glyph glyph-name="afii10053" unicode="&#x404;" horiz-adv-x="577" 
d="M549 29c-10 -7.33301 -22.498 -13.8311 -37.498 -19.498s-31 -10.167 -48 -13.5s-34.5 -5.83301 -52.5 -7.5s-35.667 -2.5 -53 -2.5c-43.333 0 -84.333 6.5 -123 19.5s-72.5 34 -101.5 63s-52.167 66.667 -69.5 113s-26 102.5 -26 168.5
c0 68.667 9.66699 126.167 29 172.5s44.5 83.666 75.5 111.999s65.667 48.666 104 60.999s76.833 18.5 115.5 18.5c40 0 75 -2.66699 105 -8s54 -11.666 72 -18.999l-26 -119c-15.333 7.33301 -34.833 13.166 -58.5 17.499s-50.5 6.5 -80.5 6.5
c-23.333 0 -45.5 -3.5 -66.5 -10.5s-39.667 -17.833 -56 -32.5s-30.333 -33 -42 -55s-19.834 -48 -24.501 -78h275v-112h-278c7.33301 -59.333 28.166 -106.833 62.499 -142.5s80.833 -53.5 139.5 -53.5c30 0 56.667 3 80 9s42.333 13.333 57 22z" />
    <glyph glyph-name="afii10054" unicode="&#x405;" horiz-adv-x="530" 
d="M362 188c0 21.333 -7.83496 38.668 -23.502 52.001s-35.334 25.5 -59.001 36.5s-49.334 22.333 -77.001 34s-53.334 26 -77.001 43s-43.334 38.167 -59.001 63.5s-23.5 57.666 -23.5 96.999c0 34 5.66699 63.5 17 88.5s27.5 45.833 48.5 62.5s45.833 29 74.5 37
s60.667 12 96 12c40.667 0 79 -3.5 115 -10.5s65.667 -17.167 89 -30.5l-43 -115c-14.667 9.33301 -36.667 17.833 -66 25.5s-61 11.5 -95 11.5c-32 0 -56.5 -6.33301 -73.5 -19s-25.5 -29.667 -25.5 -51c0 -20 7.83301 -36.667 23.5 -50s35.334 -25.666 59.001 -36.999
s49.334 -23 77.001 -35s53.334 -26.5 77.001 -43.5s43.334 -38 59.001 -63s23.5 -56.167 23.5 -93.5s-6.16699 -69.5 -18.5 -96.5s-29.666 -49.5 -51.999 -67.5s-49.333 -31.333 -81 -40s-66.5 -13 -104.5 -13c-50 0 -94 4.66699 -132 14s-66 18.666 -84 27.999l44 117
c7.33301 -4 16.833 -8.33301 28.5 -13s24.834 -9 39.501 -13s30.167 -7.33301 46.5 -10s33.166 -4 50.499 -4c40.667 0 71.834 6.83301 93.501 20.5s32.5 34.5 32.5 62.5z" />
    <glyph glyph-name="afii10055" unicode="&#x406;" horiz-adv-x="285" 
d="M74 700h137v-700h-137v700z" />
    <glyph glyph-name="afii10056" unicode="&#x407;" horiz-adv-x="296" 
d="M19 792c0 20.667 5.16699 36.5 15.5 47.5s25.166 16.5 44.499 16.5c18.667 0 33.167 -5.5 43.5 -16.5s15.5 -26.833 15.5 -47.5c0 -20 -5.16699 -35.333 -15.5 -46s-24.833 -16 -43.5 -16c-19.333 0 -34.166 5.33301 -44.499 16s-15.5 26 -15.5 46zM159 792
c0 20.667 5.16699 36.5 15.5 47.5s24.833 16.5 43.5 16.5c19.333 0 34.166 -5.5 44.499 -16.5s15.5 -26.833 15.5 -47.5c0 -20 -5.16699 -35.333 -15.5 -46s-25.166 -16 -44.499 -16c-18.667 0 -33.167 5.33301 -43.5 16s-15.5 26 -15.5 46zM79 700h137v-700h-137v700z" />
    <glyph glyph-name="afii10057" unicode="&#x408;" horiz-adv-x="334" 
d="M131 700h137.001v-512c0 -26.667 -3 -52 -9 -76s-15.833 -45.167 -29.5 -63.5s-31.167 -33 -52.5 -44s-47.333 -16.5 -78 -16.5c-19.333 0 -40.333 2 -63 6s-42.334 9.66699 -59.001 17l30 112c17.333 -8.66699 37 -13 59 -13c28 0 45.833 10.333 53.5 31
s11.5 48 11.5 82v477z" />
    <glyph glyph-name="afii10058" unicode="&#x409;" horiz-adv-x="935" 
d="M426 578h-148.999c-2.66699 -63.333 -5.66699 -121 -9 -173s-7.83301 -98.833 -13.5 -140.5s-13.167 -78.5 -22.5 -110.5s-21.333 -59.667 -36 -83c-9.33301 -15.333 -19.833 -28 -31.5 -38s-23.834 -18 -36.501 -24s-25.167 -10.167 -37.5 -12.5
s-23.833 -3.5 -34.5 -3.5c-15.333 0 -28.166 1.16699 -38.499 3.5s-20.5 5.83301 -30.5 10.5l15 118c4 -1.33301 8 -2.33301 12 -3s8 -1 12 -1c10.667 0 21.167 2.66699 31.5 8s19.166 14.333 26.499 27c10 14.667 18.667 36.167 26 64.5s13.833 64.5 19.5 108.5
s10.167 96.5 13.5 157.5s5.66602 132.167 6.99902 213.5h413v-251c3.33301 0.666992 8.83301 1.5 16.5 2.5s16 1.83301 25 2.5l27.5 2c9.33301 0.666992 18 1 26 1c32.667 0 64.334 -3.33301 95.001 -10s57.834 -18.5 81.501 -35.5s42.5 -40 56.5 -69s21 -65.833 21 -110.5
c0 -80 -24.833 -140.333 -74.5 -181s-120.834 -61 -213.501 -61c-8 0 -18 0.166992 -30 0.5s-25.167 0.833008 -39.5 1.5s-29.5 1.66699 -45.5 3s-31.333 3 -46 5h-37v578zM631.001 112c18.667 0 36.3369 1.83301 53.0039 5.5s31.334 10 44.001 19s22.5 20.833 29.5 35.5
s10.5 32.667 10.5 54c0 22.667 -3.83301 41.167 -11.5 55.5s-17.667 25.5 -30 33.5s-26.833 13.333 -43.5 16s-34 4 -52 4c-4.66699 0 -10.334 -0.333008 -17.001 -1l-20 -2c-6.66699 -0.666992 -12.834 -1.5 -18.501 -2.5s-9.83398 -1.83301 -12.501 -2.5v-209
c7.33301 -2 17.166 -3.5 29.499 -4.5s25.166 -1.5 38.499 -1.5z" />
    <glyph glyph-name="afii10059" unicode="&#x40a;" horiz-adv-x="962" 
d="M453 305h-256.005v-305h-137v700h137v-273h256v273h137v-266c3.33301 0.666992 8.83301 1.5 16.5 2.5s16 1.83301 25 2.5l27.5 2c9.33301 0.666992 18 1 26 1c32.667 0 64.334 -3 95.001 -9s57.834 -17 81.501 -33s42.5 -38 56.5 -66s21 -64.333 21 -109
c0 -80 -24.667 -139.167 -74 -177.5s-120.666 -57.5 -213.999 -57.5c-9.33301 0 -22 0.333008 -38 1s-33.167 1.5 -51.5 2.5s-37.166 2.33301 -56.499 4s-36.666 3.5 -51.999 5.5v302zM657.995 112c20.667 0 39.5039 1.66699 56.5039 5s31.5 9.16602 43.5 17.499
s21.167 19.333 27.5 33s9.5 30.834 9.5 51.501c0 21.333 -3.33301 38.5 -10 51.5s-16 23.167 -28 30.5s-26.5 12.333 -43.5 15s-35.5 4 -55.5 4c-4.66699 0 -10.334 -0.333008 -17.001 -1l-20 -2c-6.66699 -0.666992 -12.834 -1.66699 -18.501 -3l-12.5 -3v-193
c7.33301 -2 17.166 -3.5 29.499 -4.5s25.166 -1.5 38.499 -1.5z" />
    <glyph glyph-name="afii10060" unicode="&#x40b;" horiz-adv-x="758" 
d="M353 0h-137v578h-205v122h546v-122h-204v-177c16.667 10 39.5 19.333 68.5 28s63.5 13 103.5 13c28 0 53.667 -3.66699 77 -11s43.5 -18.666 60.5 -33.999s30.167 -35.333 39.5 -60s14 -54.334 14 -89.001v-248h-137v206c0 40 -8 69.833 -24 89.5s-42 29.5 -78 29.5
c-25.333 0 -49 -2.83301 -71 -8.5s-39.667 -14.167 -53 -25.5v-291z" />
    <glyph glyph-name="afii10061" unicode="&#x40c;" horiz-adv-x="620" 
d="M233 299h-36v-299h-137v700h137v-310l32 14l193 296h156l-204 -294l-54 -38l56 -39l233 -329h-169zM318 870h159v-30l-160 -88h-103z" />
    <glyph glyph-name="afii10062" unicode="&#x40e;" horiz-adv-x="568" 
d="M294 391l20.0029 -91h6l16 94l105 306h141l-186 -484c-14.667 -38 -28.834 -71 -42.501 -99s-28.334 -51.167 -44.001 -69.5s-33.167 -32 -52.5 -41s-42 -13.5 -68 -13.5c-22 0 -39.833 1.5 -53.5 4.5s-28.5 9.5 -44.5 19.5l35 111c11.333 -6 21.666 -9.66699 30.999 -11
s19.333 -2 30 -2c31.333 0 53.333 24.667 66 74l-262 511h161zM228.003 874c2.66699 -21.333 10.499 -36.667 23.499 -46s29.833 -14 50.5 -14c44.667 0 69.334 19.667 74.001 59l111 -17c-7.33301 -42 -26.5 -72.667 -57.5 -92s-73.833 -29 -128.5 -29
c-27.333 0 -52.333 2 -75 6s-42.5 10.5 -59.5 19.5s-31 21.167 -42 36.5s-17.833 34.333 -20.5 57z" />
    <glyph glyph-name="afii10145" unicode="&#x40f;" horiz-adv-x="639" 
d="M60 0v700h137v-578h245v578h137v-700h-200l-15 -175h-88l-20 175h-196z" />
    <glyph glyph-name="afii10017" unicode="&#x410;" horiz-adv-x="605" 
d="M405 155h-215l-53 -155h-137l252 705h101l252 -705h-144zM225 265h150l-52 156l-21 110h-5l-21 -111z" />
    <glyph glyph-name="afii10018" unicode="&#x411;" horiz-adv-x="570" 
d="M60 700l431.003 -0.00195312v-122h-294v-146c11.333 2 25.166 4 41.499 6s32.5 3 48.5 3c37.333 0 71.666 -3.66699 102.999 -11s58.166 -19.5 80.499 -36.5s39.833 -39.333 52.5 -67s19 -61.5 19 -101.5c0 -39.333 -6.5 -73.666 -19.5 -102.999
s-31.667 -53.666 -56 -72.999s-53.666 -34 -87.999 -44s-72.833 -15 -115.5 -15c-11.333 0 -25.5 0.333008 -42.5 1s-35 1.66699 -54 3s-37.833 3 -56.5 5s-35.334 4.66699 -50.001 8v693zM273.003 102.998c17.333 0 33.5 2.16699 48.5 6.5s28.167 11 39.5 20
s20.333 20.5 27 34.5s10 31 10 51c0 24 -3.66699 43.333 -11 58s-17.333 26.167 -30 34.5s-27.167 13.833 -43.5 16.5s-33.833 4 -52.5 4c-9.33301 0 -21 -0.833008 -35 -2.5s-23.667 -3.16699 -29 -4.5v-213c7.33301 -2 18.5 -3.33301 33.5 -4s29.167 -1 42.5 -1z" />
    <glyph glyph-name="afii10019" unicode="&#x412;" horiz-adv-x="591" 
d="M531 537c0 -17.333 -2.16602 -34.666 -6.49902 -51.999s-11.5 -33.166 -21.5 -47.499s-23 -27 -39 -38s-35.333 -19.167 -58 -24.5v-6c20 -3.33301 39 -9 57 -17s33.667 -19 47 -33s23.833 -31 31.5 -51s11.5 -43.667 11.5 -71c0 -36 -7.66699 -67.167 -23 -93.5
s-35.833 -47.833 -61.5 -64.5s-54.834 -29 -87.501 -37s-66.334 -12 -101.001 -12h-43.5c-17.667 0 -36.667 0.5 -57 1.5s-41 2.5 -62 4.5s-40.167 5 -57.5 9v690c12.667 2 27.167 4 43.5 6s33.833 3.66699 52.5 5s37.834 2.33301 57.501 3s39.167 1 58.5 1
c32.667 0 64.5 -2.5 95.5 -7.5s58.667 -13.833 83 -26.5s43.833 -30.334 58.5 -53.001s22 -51.334 22 -86.001zM281.001 103c16.667 0 32.834 2 48.501 6s29.5 10.167 41.5 18.5s21.667 18.833 29 31.5s11 27.667 11 45c0 22 -4.33301 39.333 -13 52s-20 22.5 -34 29.5
s-29.667 11.5 -47 13.5s-34.666 3 -51.999 3h-73v-193c3.33301 -1.33301 8.66602 -2.33301 15.999 -3s15.166 -1.16699 23.499 -1.5l26 -1c9 -0.333008 16.833 -0.5 23.5 -0.5zM236.001 406c9.33301 0 20.168 0.333008 32.501 1s22.5 1.66699 30.5 3
c25.333 8 47.166 20 65.499 36s27.5 37 27.5 63c0 17.333 -3.33301 31.666 -10 42.999s-15.5 20.333 -26.5 27s-23.5 11.334 -37.5 14.001s-28.667 4 -44 4c-17.333 0 -33.333 -0.333008 -48 -1s-26 -1.66699 -34 -3v-187h44z" />
    <glyph glyph-name="afii10020" unicode="&#x413;" horiz-adv-x="458" 
d="M467 578h-270v-578h-137v700h407v-122z" />
    <glyph glyph-name="afii10021" unicode="&#x414;" horiz-adv-x="691" 
d="M674 -125l-97.001 0.00195312l-15 125h-450l-15 -125h-97v247h74c4.66699 7.33301 12.334 23.666 23.001 48.999s21.334 61.166 32.001 107.499s19.667 104.333 27 174s10.666 152.167 9.99902 247.5h419v-578h89v-247zM447.999 122.002v456.001h-155
c-4 -118.667 -13.5 -215.834 -28.5 -291.501s-30.167 -130.5 -45.5 -164.5h229z" />
    <glyph glyph-name="afii10022" unicode="&#x415;" horiz-adv-x="522" 
d="M60 700h415v-122h-278v-163h253v-122h-253v-171h283v-122h-420v700z" />
    <glyph glyph-name="afii10024" unicode="&#x416;" horiz-adv-x="839" 
d="M350 700h130v-311l35 14l145 297h154l-163 -307l-47 -34l57 -42l184 -317h-165l-161 304h-39v-304h-130v316l-36 -14l-161 -302h-160l183 307l54 39l-52 37l-171 317h159l145 -299h39v299z" />
    <glyph glyph-name="afii10025" unicode="&#x417;" horiz-adv-x="526" 
d="M120 310l-0.00195312 106.998h24h22c8.66699 0 17.5 0.166992 26.5 0.5s17.833 1 26.5 2s15.667 2.16699 21 3.5c23.333 5.33301 43.333 14.833 60 28.5s25 32.167 25 55.5c0 32 -10.167 53.833 -30.5 65.5s-47.166 17.5 -80.499 17.5c-30 0 -58 -4 -84 -12
s-45.667 -15.667 -59 -23l-35 116c7.33301 4 17.833 8.33301 31.5 13s29.334 9.16699 47.001 13.5s36.834 7.83301 57.501 10.5s41.667 4 63 4c29.333 0 58 -2.66699 86 -8s53 -14.666 75 -27.999s39.667 -31.166 53 -53.499s20 -50.833 20 -85.5
s-9.16699 -66.667 -27.5 -96s-47.833 -50.666 -88.5 -63.999v-5c43.333 -8.66699 77.166 -27.334 101.499 -56.001s36.5 -67 36.5 -115c0 -38 -7.66699 -70.5 -23 -97.5s-35.5 -49.167 -60.5 -66.5s-53.833 -30.166 -86.5 -38.499s-66 -12.5 -100 -12.5
c-44 0 -84 3.66699 -120 11s-63.667 16 -83 26l35 119c15.333 -7.33301 37.333 -14.833 66 -22.5s62.667 -11.5 102 -11.5c14.667 0 29.5 1.83301 44.5 5.5s28.5 9.66699 40.5 18s21.667 19.166 29 32.499s11 29.333 11 48c0 31.333 -11.667 55 -35 71s-65 24.667 -125 26
c-8 0.666992 -14 1 -18 1h-21h-27z" />
    <glyph glyph-name="afii10026" unicode="&#x418;" horiz-adv-x="666" 
d="M468 388l8 91h-5l-47 -94l-261 -385h-103v700h137v-381l-10 -94h6l49 97l261 378h102v-700h-137v388z" />
    <glyph glyph-name="afii10027" unicode="&#x419;" horiz-adv-x="666" 
d="M468 388l8 91h-5l-47 -94l-261 -385h-103v700h137v-381l-10 -94h6l49 97l261 378h102v-700h-137v388zM273 874c2.66699 -21.333 10.499 -36.667 23.499 -46s29.833 -14 50.5 -14c44.667 0 69.334 19.667 74.001 59l111 -17c-7.33301 -42 -26.5 -72.667 -57.5 -92
s-73.833 -29 -128.5 -29c-27.333 0 -52.333 2 -75 6s-42.5 10.5 -59.5 19.5s-31 21.167 -42 36.5s-17.833 34.333 -20.5 57z" />
    <glyph glyph-name="afii10028" unicode="&#x41a;" horiz-adv-x="620" 
d="M233 299h-36v-299h-137v700h137v-310l32 14l193 296h156l-204 -294l-54 -38l56 -39l233 -329h-169z" />
    <glyph glyph-name="afii10029" unicode="&#x41b;" horiz-adv-x="623" 
d="M426 578h-148.998c-2.66699 -63.333 -5.66699 -121 -9 -173s-7.83301 -98.833 -13.5 -140.5s-13.167 -78.5 -22.5 -110.5s-21.333 -59.667 -36 -83c-9.33301 -15.333 -19.833 -28 -31.5 -38s-23.834 -18 -36.501 -24s-25.167 -10.167 -37.5 -12.5
s-23.833 -3.5 -34.5 -3.5c-15.333 0 -28.166 1.16699 -38.499 3.5s-20.5 5.83301 -30.5 10.5l15 118c4 -1.33301 8 -2.33301 12 -3s8 -1 12 -1c10.667 0 21.167 2.66699 31.5 8s19.166 14.333 26.499 27c10 14.667 18.667 36.167 26 64.5s13.833 64.5 19.5 108.5
s10.167 96.5 13.5 157.5s5.66602 132.167 6.99902 213.5h413v-700h-137v578z" />
    <glyph glyph-name="afii10030" unicode="&#x41c;" horiz-adv-x="800" 
d="M603 363l15 139h-6l-43 -112l-149 -261h-44l-157 262l-44 111h-5l20 -138v-364h-130v700h125l187 -320l33 -80h4l30 82l177 318h124v-700h-137v363z" />
    <glyph glyph-name="afii10031" unicode="&#x41d;" horiz-adv-x="651" 
d="M453 293h-256v-293h-137v700h137v-285h256v285h137v-700h-137v293z" />
    <glyph glyph-name="afii10032" unicode="&#x41e;" horiz-adv-x="670" 
d="M38 350c0 116.667 25.668 206.5 77.001 269.5s124.666 94.5 219.999 94.5c50 0 93.667 -8.66699 131 -26s68.333 -42 93 -74s43 -70.333 55 -115s18 -94.334 18 -149.001c0 -116.667 -25.833 -206.5 -77.5 -269.5s-124.834 -94.5 -219.501 -94.5
c-50.667 0 -94.667 8.66699 -132 26s-68.166 42 -92.499 74s-42.5 70.333 -54.5 115s-18 94.334 -18 149.001zM182.001 350c0 -35.333 3.00098 -67.833 9.00098 -97.5s15.167 -55.167 27.5 -76.5s28.166 -38 47.499 -50s42.333 -18 69 -18c48.667 0 86.334 19 113.001 57
s40 99.667 40 185c0 34 -2.83301 65.667 -8.5 95s-14.5 55 -26.5 77s-27.667 39.167 -47 51.5s-43 18.5 -71 18.5c-48.667 0 -86.334 -19.5 -113.001 -58.5s-40 -100.167 -40 -183.5z" />
    <glyph glyph-name="afii10033" unicode="&#x41f;" horiz-adv-x="639" 
d="M442 578h-245v-578h-137v700h519v-700h-137v578z" />
    <glyph glyph-name="afii10034" unicode="&#x420;" horiz-adv-x="572" 
d="M60 693c28 5.33301 58.8311 9.49805 92.498 12.498s67.167 4.5 100.5 4.5c34.667 0 69.5 -2.83301 104.5 -8.5s66.5 -17 94.5 -34s50.833 -40.667 68.5 -71s26.5 -69.833 26.5 -118.5c0 -44 -7.66699 -81.167 -23 -111.5s-35.666 -55.166 -60.999 -74.499
s-54.166 -33.333 -86.499 -42s-65.833 -13 -100.5 -13h-16c-7.33301 0 -15 0.166992 -23 0.5s-15.833 0.833008 -23.5 1.5s-13.167 1.33398 -16.5 2.00098v-241h-137v693zM263.998 591.998c-13.333 0 -26 -0.499023 -38 -1.49902s-21.667 -2.16699 -29 -3.5v-227
c2.66699 -0.666992 6.66699 -1.33398 12 -2.00098s11 -1.16699 17 -1.5s11.833 -0.5 17.5 -0.5h12.5c18 0 35.833 1.66699 53.5 5s33.5 9.5 47.5 18.5s25.167 21.5 33.5 37.5s12.5 37 12.5 63c0 22 -4 40.167 -12 54.5s-18.5 25.833 -31.5 34.5s-27.833 14.667 -44.5 18
s-33.667 5 -51 5z" />
    <glyph glyph-name="afii10035" unicode="&#x421;" horiz-adv-x="559" 
d="M534 29c-21.333 -15.333 -48.4961 -26.3311 -81.4961 -32.998s-66.833 -10 -101.5 -10c-42 0 -81.833 6.5 -119.5 19.5s-70.834 34 -99.501 63s-51.5 66.667 -68.5 113s-25.5 102.5 -25.5 168.5c0 68.667 9.5 126.167 28.5 172.5s43.667 83.666 74 111.999
s64.166 48.666 101.499 60.999s74.666 18.5 111.999 18.5c40 0 73.833 -2.66699 101.5 -8s50.5 -11.666 68.5 -18.999l-27 -116c-15.333 7.33301 -33.5 12.666 -54.5 15.999s-46.5 5 -76.5 5c-55.333 0 -99.833 -19.667 -133.5 -59s-50.5 -100.333 -50.5 -183
c0 -36 4 -68.833 12 -98.5s20.167 -55 36.5 -76s36.666 -37.333 60.999 -49s52.5 -17.5 84.5 -17.5c30 0 55.333 3 76 9s38.667 13.667 54 23z" />
    <glyph glyph-name="afii10036" unicode="&#x422;" horiz-adv-x="568" 
d="M557 578h-204v-578h-137v578h-205v122h546v-122z" />
    <glyph glyph-name="afii10037" unicode="&#x423;" horiz-adv-x="568" 
d="M294 391l20.0029 -91h6l16 94l105 306h141l-186 -484c-14.667 -38 -28.834 -71 -42.501 -99s-28.334 -51.167 -44.001 -69.5s-33.167 -32 -52.5 -41s-42 -13.5 -68 -13.5c-22 0 -39.833 1.5 -53.5 4.5s-28.5 9.5 -44.5 19.5l35 111c11.333 -6 21.666 -9.66699 30.999 -11
s19.333 -2 30 -2c31.333 0 53.333 24.667 66 74l-262 511h161z" />
    <glyph glyph-name="afii10038" unicode="&#x424;" horiz-adv-x="802" 
d="M334 76c-12.667 -2 -25.668 -3.33301 -39.001 -4s-27.666 -1 -42.999 -1c-32 0 -61.667 5.5 -89 16.5s-51.166 28 -71.499 51s-36.333 52 -48 87s-17.5 76.5 -17.5 124.5c0 45.333 5.83301 85.833 17.5 121.5s28.334 66 50.001 91s47.5 44.167 77.5 57.5
s63.333 20 100 20c8.66699 0 19.334 -0.333008 32.001 -1s23 -2 31 -4v85h134v-88c12.667 3.33301 27.167 5.5 43.5 6.5s29.5 1.5 39.5 1.5c32.667 0 62.667 -5.83301 90 -17.5s51.166 -29.334 71.499 -53.001s36.166 -53 47.499 -88s16.666 -75.5 15.999 -121.5
c0.666992 -47.333 -5.33301 -89 -18 -125s-30 -66.167 -52 -90.5s-47.5 -42.666 -76.5 -54.999s-60.167 -18.5 -93.5 -18.5c-10.667 0 -22.167 0.5 -34.5 1.5s-23.5 2.83301 -33.5 5.5v-98h-134v96zM518.999 530c-6.66699 -0.666992 -15.667 -1.33496 -27 -2.00195
s-21 -2 -29 -4v-340c6 -1.33301 13.167 -2 21.5 -2s16.166 -0.333008 23.499 -1c18.667 0.666992 36 4.33398 52 11.001s30 17.334 42 32.001s21.333 33 28 55s9.66699 48.667 9 80c0.666992 53.333 -9.66602 95 -30.999 125s-51 45.333 -89 46zM286.999 181.999
c5.33301 0 13.502 0.167969 24.502 0.500977s20.167 1.83301 27.5 4.5v339c-6.66699 1.33301 -14.334 2.16602 -23.001 2.49902s-16.667 0.5 -24 0.5c-36.667 0 -67.334 -14.167 -92.001 -42.5s-37 -73.5 -37 -135.5c0 -54 11.333 -95.667 34 -125s52.667 -44 90 -44z" />
    <glyph glyph-name="afii10039" unicode="&#x425;" horiz-adv-x="633" 
d="M225 356l-195 344h165l108 -202l24 -71l23 71l113 202h149l-202 -337l212 -363h-163l-123 216l-27 74l-26 -74l-124 -216h-149z" />
    <glyph glyph-name="afii10040" unicode="&#x426;" horiz-adv-x="682" 
d="M665 -125h-97l-15 125h-493v700h137v-578h241v578h137v-578h90v-247z" />
    <glyph glyph-name="afii10041" unicode="&#x427;" horiz-adv-x="606" 
d="M183 700l0.00195312 -222c0 -40 7.83301 -69.833 23.5 -89.5s41.5 -29.5 77.5 -29.5c25.333 0 49.166 2.83301 71.499 8.5s40.166 14.167 53.499 25.5v307h137v-700h-137v282c-17.333 -10 -40.5 -19.167 -69.5 -27.5s-63.5 -12.5 -103.5 -12.5
c-28 0 -53.5 3.5 -76.5 10.5s-43 18.333 -60 34s-30.167 35.667 -39.5 60s-14 53.833 -14 88.5v265h137z" />
    <glyph glyph-name="afii10042" unicode="&#x428;" horiz-adv-x="861" 
d="M60 0v700h137v-578h165v578h137v-578h165v578h137v-700h-741z" />
    <glyph glyph-name="afii10043" unicode="&#x429;" horiz-adv-x="911" 
d="M60 0v700h137v-578h165v578h137v-578h165v578h137v-578h92v-247h-96l-15 125h-722z" />
    <glyph glyph-name="afii10044" unicode="&#x42a;" horiz-adv-x="664" 
d="M155 578l-159.001 0.000976562v122h296v-251c3.33301 0.666992 8.83301 1.5 16.5 2.5s16 1.83301 25 2.5l28 2c9.66699 0.666992 18.5 1 26.5 1c32.667 0 64.167 -3.33301 94.5 -10s57.333 -18.5 81 -35.5s42.5 -40 56.5 -69s21 -65.833 21 -110.5
c0 -80 -24.667 -140.333 -74 -181s-120.666 -61 -213.999 -61c-9.33301 0 -22 0.166992 -38 0.5s-33.167 1.16602 -51.5 2.49902s-37 3 -56 5s-36.5 5 -52.5 9v571zM359.999 112.001c18.667 0 36.3369 1.83301 53.0039 5.5s31.334 10 44.001 19s22.5 20.833 29.5 35.5
s10.5 32.667 10.5 54c0 22.667 -3.83301 41.167 -11.5 55.5s-17.667 25.5 -30 33.5s-26.833 13.333 -43.5 16s-34 4 -52 4c-4.66699 0 -10.334 -0.333008 -17.001 -1l-20 -2c-6.66699 -0.666992 -12.834 -1.5 -18.501 -2.5s-9.83398 -1.83301 -12.501 -2.5v-209
c7.33301 -2 17.166 -3.5 29.499 -4.5s25.166 -1.5 38.499 -1.5z" />
    <glyph glyph-name="afii10045" unicode="&#x42b;" horiz-adv-x="798" 
d="M600 700h137v-700h-137v700zM60 700h137v-251c7.33301 1.33301 19 3 35 5s31.667 3 47 3c33.333 0 65.166 -3.33301 95.499 -10s56.833 -18.5 79.5 -35.5s40.667 -40 54 -69s20 -65.5 20 -109.5c0 -81.333 -23.667 -142.166 -71 -182.499s-117.666 -60.5 -210.999 -60.5
c-9.33301 0 -21.333 0.166992 -36 0.5s-30.5 1.16602 -47.5 2.49902s-34.5 3 -52.5 5s-34.667 5 -50 9v693zM256 112c38 0 68.834 8.83301 92.501 26.5s35.5 47.167 35.5 88.5c0 22 -3.33301 40 -10 54s-15.667 25 -27 33s-24.666 13.5 -39.999 16.5s-32 4.5 -50 4.5
c-9.33301 0 -20.333 -0.833008 -33 -2.5s-21.667 -3.5 -27 -5.5v-209c7.33301 -2 16.166 -3.5 26.499 -4.5s21.166 -1.5 32.499 -1.5z" />
    </font>
</defs>
</svg>
